<svg id="Слой_1" data-name="Слой 1" xmlns="http://www.w3.org/2000/svg" viewBox="0 0 313.69 209.46"><defs><style>.cls-1,.cls-2{fill:#3c3c3b;}.cls-2{stroke:#c80613;stroke-linecap:round;stroke-linejoin:round;stroke-width:0;}</style></defs><title>3 книга</title><path class="cls-1" d="M986.16,469.37a5.17,5.17,0,0,0-3.46,1c.27-.77.54-1.55.82-2.31.05-.16-.2-.26-.26-.12-.66,1.45-1.28,2.9-1.89,4.37a5.25,5.25,0,0,0-2-2.77c-.14-.1-.31.12-.18.23a7.32,7.32,0,0,1,2,2.92c-.36.89-.72,1.77-1.07,2.66a8.86,8.86,0,0,0-3.39-4.23c-.19-.12-.43.18-.24.32a11.51,11.51,0,0,1,3.43,4.42c-.31.8-.61,1.59-.9,2.39a7.61,7.61,0,0,0-2-2.85.17.17,0,0,0-.23.24,12.4,12.4,0,0,1,2.11,3c-.29.8-.58,1.59-.86,2.39a8.4,8.4,0,0,0-5.21-5.21c-.15-.06-.26.19-.11.26a9.59,9.59,0,0,1,5.13,5.51c-.31.89-.63,1.78-.93,2.67a6.85,6.85,0,0,0-2.2-2.82c-.17-.14-.4.16-.23.3a7.9,7.9,0,0,1,2.24,3.09c-.27.82-.53,1.63-.79,2.45-.64-.75-1.3-1.47-2-2.18-.15-.15-.37.08-.23.24.68.77,1.38,1.53,2.11,2.26-.31.95-.6,1.9-.9,2.86a6.56,6.56,0,0,0-3.09-3.7.15.15,0,0,0-.15.27,7.81,7.81,0,0,1,3.06,3.9l0,0c-.29,1-.58,1.91-.86,2.87a8.42,8.42,0,0,0-2.38-3.48.19.19,0,0,0-.27.27,18,18,0,0,1,2.47,3.83c-.33,1.12-.66,2.24-1,3.37a9.07,9.07,0,0,0-3.72-3.82.2.2,0,0,0-.2.34,10.65,10.65,0,0,1,3.76,4c-.3,1-.59,2.07-.88,3.11a18.77,18.77,0,0,0-3.7-3.64c-.2-.14-.45.18-.26.34,1.34,1.16,2.6,2.42,3.86,3.67-.2.68-.39,1.37-.58,2.05a10.28,10.28,0,0,0-3-3c-.14-.1-.32.13-.19.24a21.05,21.05,0,0,1,3.12,3.14c-.21.75-.42,1.5-.62,2.26A20.36,20.36,0,0,0,966,501.8c-.16-.13-.39.08-.23.23a47.52,47.52,0,0,1,4.39,5c-.25.9-.49,1.79-.74,2.68a8.3,8.3,0,0,0-2.85-2.89c-.19-.12-.35.17-.17.3a13.71,13.71,0,0,1,2.91,3c-.05.2-.11.4-.16.6-.14.49-.28,1-.41,1.46a14.12,14.12,0,0,0-4.57-4.78c-.19-.13-.34.17-.17.3a21.09,21.09,0,0,1,4.62,4.9c-.18.63-.35,1.26-.53,1.88a10.55,10.55,0,0,0-3.72-4c-.28-.18-.53.27-.26.44A11.78,11.78,0,0,1,968,515c-.23.85-.47,1.7-.71,2.55a10.55,10.55,0,0,0-2.25-3,.15.15,0,1,0-.21.2,16.82,16.82,0,0,1,2.33,3.28l-.75,2.67c0-.1-.11-.19-.14-.26a12.94,12.94,0,0,0-1.8-2.49c-.17-.2-.43.08-.28.28s1.56,2.23,2.05,3.08c-.17.61-.35,1.23-.52,1.85a9.94,9.94,0,0,0-2.71-3.34c-.15-.12-.36.07-.21.21a14.55,14.55,0,0,1,2.8,3.58c-.18.62-.35,1.25-.53,1.88a7.48,7.48,0,0,0-2.9-3.28c-.2-.13-.38.19-.19.33a9,9,0,0,1,2.91,3.59c-.18.62-.35,1.25-.52,1.87a10.72,10.72,0,0,0-1.73-2.55c-.17-.2-.44.08-.28.28a14.52,14.52,0,0,1,1.85,2.81c-.19.68-.38,1.35-.56,2a11.57,11.57,0,0,0-2.84-3.49c-.18-.15-.43.09-.26.26a18.92,18.92,0,0,1,3,3.72c-.21.74-.42,1.48-.62,2.21a19.82,19.82,0,0,0-4.34-5.35c-.15-.14-.37.08-.22.22a32.07,32.07,0,0,1,4.42,5.63c-.2.75-.41,1.49-.62,2.24a7.83,7.83,0,0,0-1.93-2.65c-.18-.16-.44.09-.26.26a9.57,9.57,0,0,1,2,3c-.18.66-.37,1.32-.54,2a19.59,19.59,0,0,0-1.65-2.71.15.15,0,0,0-.25.15c.61,1,1.18,2,1.75,3.09-.19.71-.39,1.42-.58,2.13a8.88,8.88,0,0,0-3-3.84c-.16-.11-.36.15-.21.27a10.69,10.69,0,0,1,3,4.06c-.13.5-.27,1-.4,1.49a13.59,13.59,0,0,0-.81-1.32,20.62,20.62,0,0,0-4.85-5.27c-.18-.14-.44.11-.26.26a24.62,24.62,0,0,1,4.85,5.45,14.17,14.17,0,0,1,.93,1.4l-.48,1.83a16.11,16.11,0,0,0-2.62-4.47c-.12-.14-.37,0-.26.2a21.65,21.65,0,0,1,2.75,4.78c-.16.62-.33,1.23-.48,1.85a18.42,18.42,0,0,0-2.42-4.55c-.13-.17-.41,0-.29.17a25.23,25.23,0,0,1,2.57,4.91l-.27,1.06a17.31,17.31,0,0,0-3.61-6.61c-.17-.2-.43.08-.28.27a22.08,22.08,0,0,1,3.72,7c-.14.59-.29,1.18-.44,1.76a8,8,0,0,0-1.39-3.1c-.1-.15-.33,0-.23.13a9.72,9.72,0,0,1,1.46,3.61c-.1.45-.22.9-.33,1.35a10.72,10.72,0,0,0-1.73-4.06.13.13,0,0,0-.23.13,15.5,15.5,0,0,1,1.84,4.43c-.09.37-.19.75-.27,1.13a7.82,7.82,0,0,0-.89-2.49.17.17,0,0,0-.29.17,8.69,8.69,0,0,1,1,3.08c-.06.29-.13.57-.2.86a.16.16,0,0,0,.3.08c0-.15.09-.3.13-.45a.12.12,0,0,0,.12,0,7.66,7.66,0,0,1,4.32-2c.18,0,.14-.33,0-.32a6.42,6.42,0,0,0-4.25,1.91c.09-.32.18-.64.28-1,0,0,0,0,0,.06s.12.05.11,0l0-.33c0-.1,0-.2.08-.3a.07.07,0,0,0,.06,0,9.1,9.1,0,0,1,3-1.44.19.19,0,0,0-.1-.36,6.61,6.61,0,0,0-2.81,1.41c.18-.61.35-1.23.53-1.85l0,0a8.71,8.71,0,0,1,6.34-2.49c.26,0,.34-.42.07-.46a7.4,7.4,0,0,0-6.25,2.29c.19-.68.38-1.36.58-2a26.44,26.44,0,0,1,4.86-2.08.2.2,0,0,0-.11-.39,11.07,11.07,0,0,0-4.62,2c.21-.74.41-1.48.62-2.21a8.85,8.85,0,0,1,4.45-1.85c.26,0,.28-.45,0-.43a7.62,7.62,0,0,0-4.28,1.69l.66-2.38a10.4,10.4,0,0,1,7.87-3c.32,0,.3-.45,0-.49a9.11,9.11,0,0,0-7.66,2.77c.19-.68.37-1.36.56-2a19.82,19.82,0,0,1,4.1-1.46c.16,0,.13-.3,0-.28a10.15,10.15,0,0,0-4,1.32c.08-.3.17-.59.25-.89.08.08.25,0,.21-.12l-.11-.24a11,11,0,0,1,4.26-1.91c.26-.06.14-.42-.1-.38a8.18,8.18,0,0,0-4,1.73c.13-.47.25-.94.38-1.41a12.1,12.1,0,0,1,3.92-1.82.18.18,0,0,0-.09-.34,9.34,9.34,0,0,0-3.7,1.67c.13-.49.26-1,.4-1.47a.08.08,0,0,0,.1,0,6.75,6.75,0,0,1,4.06-2c.21,0,.23-.35,0-.34a5.52,5.52,0,0,0-4,2l.57-2.12c.92-.4,1.83-.82,2.71-1.29.19-.1,0-.37-.16-.28-.84.37-1.65.78-2.45,1.2.17-.64.34-1.28.52-1.92a12.38,12.38,0,0,1,5.13-2.13c.2,0,.16-.39,0-.36a10.14,10.14,0,0,0-5,2c.1-.35.19-.7.29-1.06a.14.14,0,0,0,.14-.17l-.06-.15c0-.12.07-.23.1-.35a7.87,7.87,0,0,1,3.72-1.75c.18,0,.14-.35-.05-.33a6.25,6.25,0,0,0-3.52,1.53c.18-.68.37-1.36.55-2a14.53,14.53,0,0,1,4.84-2c.19,0,.15-.37,0-.34a10,10,0,0,0-4.64,1.81c.18-.66.36-1.33.55-2a10.61,10.61,0,0,1,5.16-2.68c.28,0,.15-.46-.12-.42a8.4,8.4,0,0,0-4.87,2.47c.19-.71.38-1.42.58-2.13a22,22,0,0,1,4.82-2.71c.22-.08.13-.44-.1-.36a14.08,14.08,0,0,0-4.58,2.53l.39-1.41.06.12a.12.12,0,0,0,.21-.09l-.16-.43c.06-.24.13-.48.2-.71a22.36,22.36,0,0,1,6.4-2.34c.2,0,.16-.4,0-.37a15.55,15.55,0,0,0-6.22,2.22c.21-.76.43-1.52.64-2.28,2-.8,3.93-1.71,5.84-2.67.24-.12,0-.44-.2-.34-1.87.8-3.72,1.66-5.52,2.59l.63-2.26a8.74,8.74,0,0,1,4.43-1.64c.34,0,.34-.57,0-.53a8.73,8.73,0,0,0-4.26,1.55l.06-.22c.15-.54.31-1.07.46-1.6a11.48,11.48,0,0,1,4.2-2.29.22.22,0,0,0-.12-.42,9.15,9.15,0,0,0-3.9,2.1c.15-.53.31-1.05.46-1.57a13.36,13.36,0,0,1,5.17-3.38.18.18,0,0,0-.1-.35,9.81,9.81,0,0,0-4.82,2.88c.19-.67.39-1.34.59-2a13.56,13.56,0,0,1,5.17-3.27c.29-.1.18-.56-.13-.47a10.53,10.53,0,0,0-4.83,3c.29-1,.58-1.93.86-2.89a9.16,9.16,0,0,1,4.08-1.71c.25,0,.19-.44-.05-.43a6.51,6.51,0,0,0-3.83,1.49c.19-.65.39-1.3.59-1.95a11.18,11.18,0,0,1,3.49-2,.18.18,0,0,0-.1-.35,7.58,7.58,0,0,0-3.18,1.62c.25-.79.5-1.57.74-2.36a19.4,19.4,0,0,1,6-3.06.25.25,0,0,0-.14-.48,15.32,15.32,0,0,0-5.63,2.75c.3-1,.61-1.94.92-2.92a6.52,6.52,0,0,1,2.59-1.48A.17.17,0,0,0,978,490a4.73,4.73,0,0,0-2.28,1.1l.93-2.91a38.93,38.93,0,0,1,5.49-2.72c.22-.08.14-.43-.1-.36a19.16,19.16,0,0,0-5.2,2.49c.32-1,.63-1.95.95-2.92a8.87,8.87,0,0,1,2.73-1.24c.2,0,.11-.34-.08-.3a6.58,6.58,0,0,0-2.49,1c.34-1,.68-2.08,1-3.12a6.76,6.76,0,0,1,.73-.38c.45-.21.91-.39,1.38-.56a21.2,21.2,0,0,1,2.47-.73c.25-.06.14-.42-.1-.38a13.76,13.76,0,0,0-4.3,1.5c.37-1.1.75-2.2,1.13-3.3A14.47,14.47,0,0,1,983,476c.21-.07.13-.4-.09-.34a9.66,9.66,0,0,0-2.4,1.09l.9-2.59a10.21,10.21,0,0,1,4-1.37c.19,0,.21-.31,0-.31a6.64,6.64,0,0,0-3.8,1.2l1-2.76a7.46,7.46,0,0,1,3.64-1.14A.19.19,0,0,0,986.16,469.37Z" transform="translate(-803.27 -434.74)"/><path class="cls-1" d="M983.62,466.2v.61s.06,0,.06,0v-.61A0,0,0,1,0,983.62,466.2Z" transform="translate(-803.27 -434.74)"/><path class="cls-1" d="M946.49,554.92c-8.31-4.82-19-6.76-28.37-7.91a176.54,176.54,0,0,0-32.43-.54c-11.26.71-22.5,2-33.7,3.28-11.57,1.37-23.33,2.55-34.76,4.83-.23,0-.18.43.06.41,11.39-1.23,22.72-3.18,34.11-4.52,11.05-1.29,22.12-2.51,33.23-3.23a182.89,182.89,0,0,1,30.87.25,106,106,0,0,1,15.9,2.85c5.11,1.34,9.87,3.44,14.84,5.19C946.6,555.65,946.81,555.11,946.49,554.92Z" transform="translate(-803.27 -434.74)"/><path class="cls-1" d="M824.1,516.53a30.64,30.64,0,0,0-4.29,6.84c-.19.38.37.72.59.34a72.5,72.5,0,0,0,3.93-7C824.39,516.54,824.19,516.44,824.1,516.53Z" transform="translate(-803.27 -434.74)"/><path class="cls-1" d="M1102.76,567.35q-1.1-23.18-2.6-46.33c-1-15.41-1.45-31-3.45-46.31,0-.19-.31-.2-.31,0,.27,15.43,1.92,30.9,2.84,46.31s1.73,30.61,2.53,45.92c-24.51-4.32-49.21-7.45-73.69-12-5.65-1.06-11.3-2.26-17-2.9a95.76,95.76,0,0,0-18.39,0c-11.85,1-24,2.07-35.4,5.49a.24.24,0,0,0,.13.46,229,229,0,0,1,37.06-5.12,94.21,94.21,0,0,1,17.77.33c6.22.78,12.37,2.14,18.53,3.29,23.62,4.39,47.46,8.56,71.3,11.54a.38.38,0,0,0,.4-.2A.43.43,0,0,0,1102.76,567.35Z" transform="translate(-803.27 -434.74)"/><path class="cls-1" d="M1111.2,582.67c-.33-.73-.69-1.46-1.06-2.18-.33-8-1-16-1.5-24-.54-8.27-.85-16.57-1.63-24.82a.1.1,0,0,0-.2,0c.27,8.28,1,16.55,1.5,24.82.47,7.76.82,15.53,1.46,23.28-.58-1.11-1.18-2.22-1.8-3.31-.72-11.42-1.49-22.85-2.38-34.25,0-.1-.17-.11-.16,0,.63,11.22,1.4,22.45,2.21,33.66-.4-.71-.82-1.42-1.23-2.12-1.92-9.54-1.94-19.24-2.31-28.93s-.5-19.31-1.18-28.93c0-.08-.14-.08-.14,0,0,10,.66,20.09,1,30.11.32,8.78-.35,18.43,2.14,27-.93-1.56-1.88-3.11-2.8-4.64a.2.2,0,0,0,.26-.2q-.45-19.86-1.3-39.71-.4-9.63-.91-19.25c-.31-6.13-.22-12.48-1.94-18.42a.06.06,0,1,0-.12,0c1.42,6.4,1.43,13.08,1.75,19.6s.61,12.82.88,19.24q.78,19.21,1.21,38.43l-.12-.18c-.14-.25-.48,0-.37.22a77.32,77.32,0,0,0,8.12,14.93A.34.34,0,0,0,1111.2,582.67Z" transform="translate(-803.27 -434.74)"/><path class="cls-1" d="M875.51,577.23c-.1,1-.19,2-.2,3C875.4,579.21,875.5,578.19,875.51,577.23Z" transform="translate(-803.27 -434.74)"/><path class="cls-1" d="M986.88,592.16h0S986.87,592.18,986.88,592.16Z" transform="translate(-803.27 -434.74)"/><path class="cls-1" d="M885.28,580.82h0Z" transform="translate(-803.27 -434.74)"/><path class="cls-1" d="M1112.9,528.74q-1.07-14.38-2.21-28.75c-.19-2.4-.38-4.8-.59-7.2a11.27,11.27,0,0,0-.68-4.07,2.74,2.74,0,0,0-3-1.62,62,62,0,0,0-8.92-12.68.53.53,0,0,0-.16-.92c-18.34-6.19-37.28-12.4-56.62-14.28-18.44-1.8-38.25-.55-55.93,5.34-3.3-7.05-10-11.3-16.88-14.62a109.34,109.34,0,0,0-27.3-8.65,272.19,272.19,0,0,0-29.87-3.54c-11.05-.86-22.07-2.07-33.11-3a.33.33,0,0,0-.09.65c9.7,2,19.8,2.32,29.64,3,10,.73,20.06,1.54,30,3.24a116.19,116.19,0,0,1,27.3,7.83c7.61,3.37,15.69,7.81,19.65,15.46a.36.36,0,0,0,.22.42c.05.11.12.21.17.32.18.38.84.11.68-.28a1.3,1.3,0,0,0-.08-.17c18.4-4.48,36.67-6.86,55.63-5,19.42,2,37.38,8.91,56,14.14,1.19,1.89,2.41,3.79,3.66,5.68.64,10.44,1.48,20.92,2.53,31.33a.1.1,0,0,0,.2,0c-.62-10.31-1.45-20.67-2.48-31q2,3,4,5.81c-.38,8,1,16.39,1.71,24.38s1.37,16.19,2,24.29c1.23,16.55,2.53,33.1,3.07,49.7a.43.43,0,0,0,.09.26c-23.72-4-47.77-4.52-71.61-7.4-12-1.45-24-3.44-36-4.94s-24.8-3-36.93-2h-.23A43,43,0,0,0,964,565.8c16.25-3.77,32.36-1.93,48.56,1.33,15.87,3.2,31.86,7.48,48.18,7a.16.16,0,0,0,0-.31c-17.53,0-34.27-4.58-51.36-7.86-14.84-2.85-30.85-4.81-45.61-.47-.5-.72-1-1.43-1.56-2.12,6.88-3.06,15.41-3.07,22.82-3.14a125.19,125.19,0,0,1,23.51,2c14,2.53,27.75,7.52,42.06,7.87.28,0,.27-.4,0-.43-15.83-1.29-30.8-6.47-46.45-8.73a122.8,122.8,0,0,0-22-1.16c-6.26.22-14.52.06-20.08,3.4q-.63-.79-1.29-1.53c49-11.41,95.71,14,144.6,12.55a.28.28,0,0,0,0-.56c-25.32.72-49.87-5.91-74.5-10.83-22.9-4.57-47.47-7.94-70.34-1.42a23.31,23.31,0,0,0-1.83-1.77c6.22-.4,12.42-1.52,18.64-2.12,5.88-.56,11.77-1,17.68-1.12,12.72-.25,24.92,1.63,37.3,4.38,23.31,5.17,46.77,10,70.73,10.39a.25.25,0,0,0,0-.49c-24.92-.21-49.25-5.7-73.48-11a146.29,146.29,0,0,0-35.14-3.73,209.79,209.79,0,0,0-35.9,3.55,16.82,16.82,0,0,0-1.56-1.18c-1-.67-1.54-.57-2.62,0a42.85,42.85,0,0,0-6.29,4.36c-20.14-9.94-43.47-8.83-65.22-6.94-12,1-23.95,2.17-35.93,3.24-11.53,1-23.3,1.48-34.73,3.31-.45,0-.9,0-1.35.07a12.45,12.45,0,0,1,3.44-4.48,5.24,5.24,0,0,0,1.28-1.16c.23-.37.44-2.21.93-2.39q-.1.76-.21,1.5c0,.19.24.27.29.08.22-.84.44-1.69.65-2.55,15.87-4.24,32.54-4.88,48.75-7.32.1,0,.08-.2,0-.19-8.54.9-17,2.14-25.57,3.24-7.71,1-15.62,1.75-23.08,4a35.66,35.66,0,0,0,1-5.75c0-.21-.29-.23-.35,0a37.74,37.74,0,0,0-1.36,6.47.84.84,0,0,0-.77.1,1.13,1.13,0,0,0-.53.66c-.48,1.13.43.82-1,2.4a34.93,34.93,0,0,0-2.86,2.73,13,13,0,0,0-1.69,3.11c-.14.36.26.61.56.56a22.57,22.57,0,0,0,2.86-.55c11.26-.29,22.61-1.89,33.82-2.92q17.07-1.54,34.13-3.06c22.4-2,45.22-2.81,66.2,6.53l-.09.07a.21.21,0,0,0-.08.19c-.19-.39-.75-.1-.67.29,1.08,5.2,5.82,8.08,10.39,10,3.73,1.56,9.33,2.55,10.81-2.43a1,1,0,0,0,0-.23c5.91.09,11.8,0,17.71.39s11.63,1.13,17.44,1.88c12.21,1.58,24.36,3.6,36.58,5.09,11.93,1.46,23.92,2,35.88,3.08,12.36,1.09,24.61,2.76,36.91,4.35.52.07.65-.83.13-.92h-.08a.43.43,0,0,0,.19-.37c-.57-16.79-1.65-33.56-3.09-50.3-.69-8.09-1.32-16.19-2-24.28-.58-7.16-.6-14.71-1.85-21.83a.25.25,0,0,0,.18,0,2.74,2.74,0,0,1,.55-.3.47.47,0,0,0,.15-.06c2.81-.88,2.88,6.36,3,7.35l.48,6q.51,6.3,1,12.6.94,12.26,1.84,24.51c1.17,16.33,2.2,32.66,3.32,49a.53.53,0,0,0-.41.51c0,1.21-9-.18-10-.28l-8.44-.94-18.08-2-36.17-4c-24-2.67-47.92-5.71-71.94-7.82h0a.45.45,0,0,0-.87.24c1.06,6.91-13.2,4.26-16.77,3.38l-.63-.16a.24.24,0,0,0-.31-.19l-.19,0a22.21,22.21,0,0,1-5.9-2.59c-3.6-2.3-3.66-5.27-3.23-9.09,0-.27-.4-.31-.47-.06a16.28,16.28,0,0,0-.49,2.07.35.35,0,0,0-.33.16c-.78,1.09-1.55,2.19-2.33,3.29.79-1.62,1.53-3.27,2.19-5,.17-.42-.47-.64-.7-.29-1.54,2.31-3.06,4.63-4.59,6.95,1-2.19,2.05-4.38,3.08-6.58a.33.33,0,0,0,0-.32c.93-.13,1.86-.28,2.78-.44.65-.12.51-1.25-.16-1.18a250.07,250.07,0,0,1-28.4,1.51l0-.1c.1-.2-.17-.45-.34-.26l-.31.36c-1.67,0-3.33,0-5-.09h-.1a.29.29,0,0,0-.16,0c-11.48-.33-22.94-1-34.43-1-11.23.1-22.47.6-33.71.94l-17.24.53-8.33.26c-1.55,0-8.27,1.16-9.68-.58,6.5-8.31,13-17.6,17.3-27.25a.27.27,0,0,0,0-.23c.82,0,1.63,0,2.45-.07-1.77,3.19-3.3,6.45-5.4,9.49l-.29,0c-.29,0-.3.46,0,.46h.05c0,.23.36.4.54.19l.15-.19c7,0,14-1,21-1.75,7.41-.82,14.82-1.75,22.24-2.56a271.36,271.36,0,0,1,43.87-1.56c.33,0,.31-.45,0-.49-14.54-1.59-29.38-.23-43.87,1.35-7.23.79-14.44,1.71-21.66,2.52-7,.78-14.06,1.12-21.06,1.9a31.79,31.79,0,0,0,5.5-9.44c4.46-.24,8.93-.76,13.35-1.13l17.73-1.49c11.72-1,23.58-2.49,35.35-1.39a225.11,225.11,0,0,1,32.79,5.79A97.74,97.74,0,0,1,934.89,542c-2.86-1-5.74-1.76-8.57-2.42-11.44-2.68-23.45-3.46-35.17-3.34a.14.14,0,0,0,0,.28c11.61.44,23.16.73,34.55,3.35a82,82,0,0,1,28.61,13c.09.06.18,0,.22-.09l.2.27a15.47,15.47,0,0,1,1.86,3.81.14.14,0,0,0,.27-.08,13.28,13.28,0,0,0-3.48-6.6.21.21,0,0,0-.08-.2c-13.19-10.39-29.47-16.65-45.48-21.18a381.64,381.64,0,0,0-55-10.84,310.73,310.73,0,0,0-33.08-2.84c9.73-12.4,18.32-25.85,27.35-38.76s18.49-25.65,28.45-38a.19.19,0,0,0-.17-.31,13.71,13.71,0,0,0,1.83-2.07c.22-.33-.26-.66-.53-.41a23.18,23.18,0,0,0-2.57,3.26c-.11.15.11.33.25.23-10.28,10.59-18.67,23.3-27.08,35.36-9.51,13.63-19.76,27-28.44,41.18-.13.22.19.49.36.28s.12-.15.17-.23a.33.33,0,0,0,.24.14l5.58.49a.77.77,0,0,0,.14.59c0,.09.18,0,.13-.08l.1,0a.17.17,0,0,0,.08.31l1.42.79a.19.19,0,0,0,.36-.1c0-1.62.78-.22,1.38.39a.2.2,0,0,0,.34-.14c.08-1.32.92-.39,1.48.26a.2.2,0,0,0,.34-.14c0-2.32.67-.44,1.29.49a.2.2,0,0,0,.36-.16c-.63-2.52,1.61.38,1.81.58s.35,0,.33-.19c-.36-2.45,1-.26,1.61.64a.19.19,0,0,0,.34-.14c-.06-.36-.39-1.5-.13-1.55s1.67,1.9,1.81,2.06.36,0,.32-.19-.55-1.83-.27-2.11h0c.15.14,2,2.11,2,2.2s.37,0,.33-.2c-.57-2.56.74-.25,1.42.53a.2.2,0,0,0,.34-.14c0-2.34.6-1.27,1.65-.12a.2.2,0,0,0,.34-.2c-.5-1.64,1.55.95,1.47.85.13.16.34,0,.32-.18-.39-2.41.6-.46,1.28.38.1.13.31,0,.31-.12-.09-1.8,1-.5,1.48.34a.17.17,0,0,0,.32-.08c0,.06.09-1.66-.09-1.59.18-.07,1.76,1.93,1.89,2.08s.36,0,.33-.2c-.46-2.6.79-.58,1.67.33.13.14.34,0,.3-.18-.11-.48-.48-1.43-.17-1.51s1.9,2,2.06,2.14a.19.19,0,0,0,.31-.18c0-.09-.58-1.79-.4-1.86s1.85,2.09,2,2.23.34,0,.31-.19c-.05-.34-.17-1.51-.39-1.46a16.2,16.2,0,0,1,1.83,1.93.18.18,0,0,0,.3-.18c-.69-2.88.53-.82,1.43.71a.19.19,0,0,0,.34-.14,21.06,21.06,0,0,0-.48-2.2c0-.21-.35-.11-.32.09.35,2,.41,1-.29.49-.07-.05-.61-.66-1-1.08l3.32.47a.13.13,0,0,0,0,.09c0,.4,0,.81,0,1.21,0,.23.37.23.36,0,0-.4,0-.81,0-1.21a.11.11,0,0,0,0-.06c9.8,1.42,19.56,3.15,29.3,5.34,17.89,4,35,9.6,50.84,18.5-8.9-4.5-19-6.84-28.81-8.68a.17.17,0,0,0-.11-.24c-7.56-2.52-15.65-3.8-23.48-5.2-7.55-1.34-15.14-2.5-22.76-3.41s-15.56-1.66-23.37-2.17c-2.83-.19-5.68-.38-8.53-.54a.28.28,0,0,0-.2,0c-1.46-.08-2.92-.14-4.38-.2a.25.25,0,0,0-.38,0c-3.73-.13-7.45-.16-11.15,0a.16.16,0,0,0,0,.32c2.65.19,5.31.31,8,.41.43,1.81,1,3.63,1.26,5.46l0,.13c-.07-.2-.17-.5-.34-.89-.46-1.09-1-2.16-1.52-3.23a.13.13,0,0,0-.18-.07c.08-.17.17-.33.24-.5a.21.21,0,0,0-.32-.25c-3.35,2.73-5.55,7.49-7.4,11.38l-.19,0c-.23,0-.21.35,0,.45v0c-.13.28.26.52.41.24,0-.08.1-.16.14-.24h1.15c-3,4.52-5.51,9.3-8.45,13.84s-6.13,8.93-9.33,13.32c-.25.34.14.76.49.74,1.13,2.31,5.88,1.34,7.8,1.28l19-.56c12.53-.36,25.06-.81,37.59-1.07,1.55,0,3.1-.05,4.66-.05q1.29,1.79,2.66,3.52c-6.28,4.61-9.8,12.91-14.41,18.94-.17.21.19.49.36.29a102,102,0,0,0,7-9.08A105.24,105.24,0,0,1,876.2,569c.59.75,1.17,1.5,1.78,2.24a155,155,0,0,0-13.13,17.2c-.21.31.28.69.52.4,1.83-2.15,3.66-4.38,5.45-6.65,0,.06.16.09.2,0l.26-.59,1.17-1.52a12.45,12.45,0,0,1-.23,1.47.17.17,0,0,0,.33.09c.08-.26.49-1.74.81-2.78.15-.21.31-.41.46-.61,0,1-.24,3.41-.26,3.64s.29.23.33,0c.39-1.54,1.54-4.33,1.55-5.95l0,0a10.87,10.87,0,0,1,0,1.3c.06-.55.11-1.08.15-1.6l.93-1.36c-.18,1.37-.37,2.73-.61,4.09a12.59,12.59,0,0,0-.62,3.12,8.72,8.72,0,0,1-.05-1.28c-.08.83-.16,1.63-.19,2.36a.18.18,0,0,0,.36.05c.53-2.34.58-5.1,1.36-7.34,0-1.41.19-1.41.4,0,0,.75,0,1.5-.09,2.25-.09,1.51-.25,3-.43,4.5,0,.25.39.3.43.06.14-.76,1.18-5.9,1.54-8.19-.13,2.37-.3,7.85-.31,8.58,0,.29.48.37.52.07.18-1.17,1.23-7.59,1.27-7.59.22,0-.35,7.45-.38,8.15,0,.33.46.37.56.07.27-.87,1-5.08,1.62-5.41-.27.15.09,4.85.08,5.43a.27.27,0,0,0,.51.13,9,9,0,0,0,1.38-3.06,9.06,9.06,0,0,0-.24,1.91,1.41,1.41,0,0,0,0,.78c0,.38,0,.76,0,1.08s.51.34.53,0a20,20,0,0,0,.32-3.1,10.59,10.59,0,0,1,0,3.18.28.28,0,0,0,.54.07c.15-.57.21-2.64.58-1.72a10.17,10.17,0,0,1,.13,2.46c0,.28.43.44.57.15.33-.7.53-1.47.85-2.16s.17-.57,0,.38a9,9,0,0,1-.06,1.8c0,.38.49.39.61.09.34-1.31.5-1.47.48-.51-.09.37.49.53.58.16a5.74,5.74,0,0,0,.11-.58c.52.64,1.06,1.29,1.58,1.94,3,3.71,5.84,7.51,8.75,11.29-5.93-1.62-12-2.58-18-3.64-6.19-1.08-12.24-2.5-18.3-4.13a.48.48,0,0,0,0-.72,2.48,2.48,0,0,0-.5-.36.29.29,0,0,0-.29-.14c-2.95-1.07-3.19,9.06-3.14,10.4.08,2.26.85,12.2,4.54,11.37a2,2,0,0,0,.21.2.27.27,0,0,0,.46-.19V610a.4.4,0,0,0,.15-.17c10.08.37,20.14,3.25,30,5.29s19.72,4.14,29.6,6.15c19.77,4,39.59,7.8,59.28,12.18,4.2.94,8.42,1.94,12.67,2.83,3.61.91,7.25,1.69,10.89,2.51,1.77.41,3.54.83,5.32,1.2.75.16,1.68.65,2.4.23a.26.26,0,0,0,.34-.09c.23-.43.46-.87.7-1.3a.32.32,0,0,0,.15-.28c9.78-18.15,17.67-37.34,26.69-55.86.22-.47-.49-.88-.71-.41-8.69,18.65-18.6,36.86-26.54,55.87a41.33,41.33,0,0,1,.16-6h0c1.63-3.15,3.28-6.34,4.79-9.55.06-.13-.12-.24-.19-.11a81.19,81.19,0,0,0-4.57,9.26,37.52,37.52,0,0,1,.84-4.81l.28-.29s0,0,0,0c.69-.19,2.15-3.73,2.62-4.53,1.09-1.85,2.16-3.72,3.22-5.59,2-3.56,4.09-7.15,5.78-10.88.08-.18-.17-.34-.28-.16-3.75,6.53-7.4,13.14-11.13,19.69a36,36,0,0,1,1.23-3.53.13.13,0,0,0,0-.06.41.41,0,0,0,.35-.2,224.9,224.9,0,0,0,19.2-40l7.77.83c-4.48,10.29-9.19,20.51-13.91,30.7s-10.22,20-14.41,30.25c-25.11-5.72-50.48-10.38-75.71-15.56q-19-3.89-37.94-7.75c-12.57-2.59-25.12-5.71-37.81-7.7a3.66,3.66,0,0,0,.37-.71c.11-.32-.37-.5-.54-.23-2.25,3.59-5.74-1.72-6.7-3.4A20.27,20.27,0,0,1,856,600.4a17.18,17.18,0,0,1,.37-7c.81-2.66,2.64-3.92,4.55-5.68a.42.42,0,0,0-.5-.66c-6.27,3.87-6.62,11.52-4.34,18,1,2.71,2.62,6.48,5.31,7.9a3,3,0,0,0,3.55-.27l.1,0c12.48,3.21,25.28,5.31,37.9,7.92s25.26,5.28,37.9,7.9c25.26,5.23,50.46,11,75.83,15.7a.55.55,0,0,0,.65-.58.34.34,0,0,0,.12-.12c5.82-9.62,10.24-20.36,15-30.54s9.15-20.37,13.52-30.65c15.65,1.68,31.3,3.33,46.93,5.09q8.75,1,17.48,2c1.58.18,6.41,1.36,6.23-1.52a.44.44,0,0,0,.38-.49C1115.82,567.8,1114.36,548.27,1112.9,528.74ZM948.66,563.81a2.93,2.93,0,0,1-.18.26h0a.63.63,0,0,0-.65.18,1.63,1.63,0,0,1-.16-.6c.32-.19.64-.4,1-.6a1.32,1.32,0,0,0,.2.53l.07.07Zm.81-.65-.08.07a1.46,1.46,0,0,1-.08-.65c.32-.2.63-.41.94-.62a1.57,1.57,0,0,0,0,.3,1.23,1.23,0,0,0,.12.26C950.09,562.72,949.78,562.94,949.47,563.16Zm2.43-1.39a7.11,7.11,0,0,0-.89.4,1.19,1.19,0,0,1,.08-.78l1.73-1.18a2.22,2.22,0,0,0,0,1.3A5.81,5.81,0,0,0,951.9,561.77Zm1.6-.35a2.16,2.16,0,0,1,0-.62,4.81,4.81,0,0,1,.33-1.12.25.25,0,0,0,0-.19,2.63,2.63,0,0,1,2.43-.6,2.74,2.74,0,0,0-1.41,2.56A5.39,5.39,0,0,0,953.5,561.42Zm4.55,1.62a6.77,6.77,0,0,0-1-.72,2.13,2.13,0,0,1,.25-.34,3.78,3.78,0,0,1,1-.7.23.23,0,0,0-.12-.43,2.07,2.07,0,0,0-1.72,1.14l0,0a5.41,5.41,0,0,0-1.1-.4,2.34,2.34,0,0,1,.28-1.07,3.36,3.36,0,0,1,1.3-1.21h0a19.38,19.38,0,0,1,1.85,2c.22.23.43.47.64.71A1.63,1.63,0,0,0,958.05,563Zm1.85-.5.05,0,.92,1.11a2.28,2.28,0,0,0-1,.56,2.44,2.44,0,0,0-.39.46,10.44,10.44,0,0,0-1-1.14A1.91,1.91,0,0,1,959.9,562.54Zm-.59,3.4h.07a19,19,0,0,1,.93,1.72C960,567.09,959.63,566.52,959.31,565.94Zm1.05,0c-.15-.26-.32-.52-.49-.77a2.23,2.23,0,0,1,.47-.5c.3-.22.7-.3,1-.51.36.45.71.92,1,1.38a1.72,1.72,0,0,0-1.31.47,2,2,0,0,0-.41.47C960.56,566.35,960.47,566.17,960.36,566Zm1.68,3.24h0c-.36-.66-.69-1.34-1-2a1.59,1.59,0,0,1,.52-.63c.33-.23.74-.2,1.08-.4a.35.35,0,0,0,.1-.12c.45.63.9,1.27,1.33,1.92A3.28,3.28,0,0,0,962,569.23Zm.38.56a3.49,3.49,0,0,1,.81-.72,10.45,10.45,0,0,1,1.17-.56l.85,1.33a2,2,0,0,0-1.87,1A7.9,7.9,0,0,1,962.42,569.79Zm1.76,3.59-.57-.47,0,0a2.39,2.39,0,0,0,.85.37A1.73,1.73,0,0,1,964.18,573.38Zm-.3-2.09a2,2,0,0,1,.4-.37,3,3,0,0,1,1.3-.4l.08,0,.08.12C965.45,571.91,964.66,571.83,963.88,571.29Zm-10.41-19.81c.27.29.53.6.79.92l-.93-.77A.67.67,0,0,0,953.47,551.48ZM826.09,516.74c.08.06,0-.19,0-.44l1,.09C827,517.1,826.71,517.19,826.09,516.74Zm1.66-.28,1.11.1C828.77,517.72,828.26,517.07,827.75,516.46Zm1.83.17,1,.09C830.45,517.34,830.16,517.09,829.58,516.63Zm1.92.18.5.05C832,517.67,831.82,517.41,831.5,516.81ZM833,517l1.16.11C834.32,518.55,833.62,517.75,833,517Zm1.91.19,1.12.11C836.36,519.33,836.05,518.24,834.89,517.14Zm3.2,1.7c-.18,0-.92-.9-1.4-1.52l1.23.12C838.05,518.06,838.2,518.82,838.09,518.84Zm.87-1.29,1.08.11C840.28,519,839.65,518.38,839,517.55Zm1.84.19,1.42.15C842.13,519.46,841.5,518.64,840.8,517.74Zm2.29.25,1.07.12C843.82,519.28,843.67,518.8,843.09,518Zm1.6.18,1,.11C846,520.21,845.35,519.06,844.69,518.17Zm1.58.17,1.26.15a.14.14,0,0,0,0,.07C847.63,520.45,846.87,519.22,846.27,518.34ZM849,519.4c.34.19-.55-.51-1-.86l1.18.14a4,4,0,0,1,.26,1.33C849.29,519.8,849.14,519.6,849,519.4Zm.77-.65,1.34.16C851.45,521,850.51,519.72,849.75,518.75Zm3.44,1.65c-.23,0-1-.88-1.45-1.41l1.3.16C853.18,519.66,853.44,520.38,853.19,520.4Zm2.17.46c-.16.06-1.07-1-1.63-1.62l1.38.18C855.27,520,855.51,520.81,855.36,520.86Zm1.9.16c-.22,0-.93-.85-1.44-1.51l1.19.15C857.19,520.19,857.58,521,857.26,521Zm.29-1.28,1.21.16C859.32,522.13,858.7,521.36,857.55,519.74Zm94.34,30a.37.37,0,0,0,.07.16l.24.26c-.68-.55-1.38-1.08-2.09-1.58C950.71,548.94,951.3,549.33,951.89,549.72Zm-79.83-21.55a.09.09,0,0,0,0,.07,4.49,4.49,0,0,0,.07,1.08c-.31-.42-.61-.84-.91-1.27Zm-6.39-.84a6.46,6.46,0,0,0,.19,1.18c-.31-.41-.63-.82-.94-1.24a.1.1,0,0,0,0,0Zm-1-.12a.13.13,0,0,0-.09.11,5,5,0,0,0-.08,1.26,22,22,0,0,1-1.61-1.59Zm-2.46-.29.35.67a1.94,1.94,0,0,1,0,.72,14.75,14.75,0,0,1-1.23-1.49Zm-1.54-.17a.42.42,0,0,0,0,.16c0,.24.08.47.13.71-.26-.31-.52-.62-.76-.94h0Zm-1.22-.13h0c0,1.41-.81.43-1.49-.15Zm-1.89-.19a0,0,0,0,0,0,0c.1,1.45-.59.51-1.16-.14C856.77,526.34,857.15,526.39,857.54,526.43Zm-1.7-.18c0,1.2-.62.51-1.14-.11Zm-1.93-.18c.1,1.72-.64.78-1.51-.13Zm-2-.17h0c.33,2.19-.35.87-1.22,0a.18.18,0,0,0-.29.17c.45,2.45-.52.49-1.25-.37Zm-3.11-.27a.25.25,0,0,0-.08.25,8.77,8.77,0,0,0,.45,1.46c-.22,0-1.06-1.11-1.56-1.79Zm-1.91-.13a5.83,5.83,0,0,1,.4,1.84,12,12,0,0,1-1.69-1.94Zm-2-.15a13.51,13.51,0,0,1,.41,1.78c-.17,0-1.26-1.35-1.67-1.87Zm-1.78-.12v.07c0-.16.44,2.29.5,2.27a16.73,16.73,0,0,1-1.9-2.42Zm-1.93-.11a.2.2,0,0,0,0,.15,13.92,13.92,0,0,0,.87,2.56,18.51,18.51,0,0,1-1.87-2.77Zm-1.61-.08v0a16.64,16.64,0,0,0,.67,2.71,12.25,12.25,0,0,1-1.87-2.8Zm-1.84-.08a6.63,6.63,0,0,1,.83,2.38c.23.83.05.69-.53-.42a18.74,18.74,0,0,1-1.39-2Zm-1.91-.07c.22.93.65,2.75.81,3.25-.28-.55-1.56-2.66-2-3.29Zm-1.71-.06v0c.09.39.55,1.8.8,2.62a22.92,22.92,0,0,0-1.71-2.7Zm-1.57-.05.42,1.65c-.32-.58-.68-1.14-1-1.67Zm-1.31,0a28.52,28.52,0,0,1,1.44,4.55c-.07-1-1.61-3.37-2.32-4.58Zm-1.56,0c.2,1.26.75,5.16,1.07,5.2-.27,0-1.83-4-2.34-5.24ZM827,526.28c.25,1.17,1.47,4.36,1.12,5.29.22-.58-1.13-3.08-1.73-4.25C826.63,527,826.83,526.63,827,526.28Zm-.93,1.54c.27,1.29.73,3.56.77,3.55s-.77-1.72-1.24-2.86Zm-.86,1.24c.24,1.32.43,2.38-.46.63Zm-.81,1.11c.19.8.33,1.53-.21.31Zm-4.08,6.38c1-1.74,2.11-3.44,3.22-5.13l.4-.59c.06.41.11.83.16,1.25,0,.12.2.13.19,0-.14-1.3-.1-1,.35.1a.12.12,0,1,0,.24-.06c-.3-2.23-.47-2.47.62-.21.06.11.27.06.25-.07s-.33-2.44-.36-3l.07-.09c.31.44,1.46,3.47,1.6,3.78.06.14.27,0,.24-.11-.12-.63-1.28-4-1-4.47-.31.5,1.72,4.1,2,4.73a.16.16,0,0,0,.31-.09c-.1-.48-.64-5.18-1.06-5.34.47.17,1.66,3.79,2,4.46.1.2.4.05.36-.15-.12-.5-1.08-4.52-1.33-5.76.39,1.21,2.16,5,2.34,5.38s.46.06.42-.18c-.12-.62-.93-5.54-1.09-5.52.13,0,2.42,4.91,2.63,5.32.13.25.53.07.45-.2s-.67-2.52-1.11-4c.61,1.32,1.52,3.09,1.67,3.4s.57.08.49-.21-.65-2.56-1-3.6c.5,1,1.6,2.89,1.75,3.15a.26.26,0,0,0,.47-.2c-.1-.45-.72-2.28-.89-3a26.51,26.51,0,0,0,2.15,3.27.25.25,0,0,0,.46-.2c-.11-.48-1-3.89-1-3.89s2.29,3.47,2.46,3.72.51.14.48-.13a26.52,26.52,0,0,1-.69-3.2c-.09.87,1.2,2.32,1.85,3.25a.26.26,0,0,0,.48-.2,14.1,14.1,0,0,0-.68-2.75c.63.41,1.54,2.26,2,2.93.16.22.57.1.47-.2s-.57-1.88-.77-2.4c.36.56,1.75,2.3,1.89,2.48s.5,0,.45-.26a14.91,14.91,0,0,1-.56-2.47s1.75,2,1.82,2a.21.21,0,0,0,.35-.2c-.86-3.45.11-1.1,1.72.51a.22.22,0,0,0,.36-.21c0,.12-.45-2-.51-2a17.5,17.5,0,0,1,1.92,2.27c.17.19.47,0,.41-.24s-.28-1.12-.37-1.41c.26.4,1.43,1.67,1.38,1.61.16.19.44,0,.39-.23-.55-2.28.18-1,1,0,.14.16.36,0,.33-.2-.38-2.33.67-.66,1.54.19.11.11.36,0,.34-.14-.2-1.77,0-2.08,1.29,0a.21.21,0,0,0,.39-.11c.19-1.73.73-.56,1.51.24.11.11.36,0,.33-.14-.2-1.53,1-.2,1.48.36.1.12.29,0,.3-.12s0-.57,0-.85c.14.26.27.53.42.79a.17.17,0,0,0,.28,0c.16.23.34.44.51.67s.54.16.5-.14-.07-.53-.12-.8c.34.39.69.78,1,1.15a.26.26,0,0,0,.44-.11s0-.06,0-.08a.22.22,0,0,0,.24,0c.19-.15.1-.43,0-.61h0c.15.21.3.4.44.61h0l0,0h0c.12.11.35,0,.35-.12l.61.59a.22.22,0,0,0,.37-.15,10.34,10.34,0,0,1,0-1.24,14.12,14.12,0,0,1,1.29,1.68c.1.16.39.06.32-.13-.13-.34-.7-1.49-.44-1.84a20.67,20.67,0,0,1,1.68,2.17.19.19,0,0,0,.35-.1,3.15,3.15,0,0,0-.3-1.51c-.07-.14-.29,0-.25.11a3.57,3.57,0,0,1,.16.79,14.18,14.18,0,0,0-1.36-1.65l.39.05,2.43.32a.11.11,0,0,0,0,.06,1.33,1.33,0,0,1-.23.91c-.15.21.22.44.35.21a1.34,1.34,0,0,0,.11-1.15h0l1.29.17c0,.36,0,.72,0,1.07s.44.25.41,0l-.09-.76a10.66,10.66,0,0,1,1.29,2.07.21.21,0,0,0,.38-.1,6.07,6.07,0,0,0-.43-2.06l1.53.22c-.09.26-.16.52-.23.79a.17.17,0,0,0,.32.09c.06-.28.12-.55.17-.82v0q3.61.51,7.21,1.08c0,.38,0,.77.08,1.15a3.88,3.88,0,0,1-.4-.49c-.09-.13-.31,0-.22.13a4.39,4.39,0,0,0,.72.89.16.16,0,0,0,.27-.11c0-.52-.1-1-.18-1.53,3,.46,5.93,1,8.88,1.5,4.11.75,8.2,1.67,12.3,2.55a119.53,119.53,0,0,0-21.55-1.93c-9.73.16-19.46,1.24-29.16,2-8.83.72-17.91,1-26.76,2.1a.33.33,0,0,0-.51.07C823.29,536.07,821.82,536.3,820.34,536.55Zm52.29,44.06c.16-.13.15-.52.09-.94.15-.19.3-.39.44-.59A4.81,4.81,0,0,1,872.63,580.61ZM874,580a.92.92,0,0,1,0-.16c0-.63,0-1.26,0-1.89.28-.38.56-.77.83-1.16C874.58,577.86,874.31,578.93,874,580Zm159.79,1a26.06,26.06,0,0,0-1.78,2.86q.15-1.15.21-2.34c0-.39-.6-.59-.77-.21-.72,1.62-1.45,3.23-2.18,4.85.33-1.85.67-3.7,1-5.55Zm-4.52-.5c-.92,1.75-1.86,3.49-2.79,5.23.39-1.57.79-3.14,1.17-4.72a.43.43,0,0,0-.79-.33c-1,1.64-1.9,3.33-2.73,5.05.29-1.58.59-3.15.88-4.73.08-.42-.52-.75-.75-.31-.85,1.68-1.71,3.35-2.58,5a54.81,54.81,0,0,0,1-5.44c0-.38-.55-.51-.71-.19q-1.41,2.73-2.83,5.44.68-2.88,1.32-5.77a.35.35,0,0,0,0-.23Zm-13.07-1.43,3.6.39,0,0a37.77,37.77,0,0,0-2.95,5.54c.23-1.82.47-3.64.7-5.46.05-.34-.51-.48-.66-.18q-1.35,2.91-2.73,5.82.6-2.43,1.18-4.84c.09-.37-.46-.65-.64-.27l-2.64,5.44c.32-1.59.64-3.18,1-4.77.07-.35-.46-.64-.63-.26l-2.34,5.2.81-3.8c.08-.36-.42-.61-.61-.26l-2.85,5.12c.4-1.62.73-3.26,1-4.92a.37.37,0,0,0-.27-.4l8.09-2.36Zm-8.42,2.52c-.34.62-2.91,5.11-3.46,6a53,53,0,0,0,1.13-5.38l2.39-.7A.24.24,0,0,0,1007.8,581.58Zm-63.36-8.14.38.29a.24.24,0,0,0-.14,0l-.74.57a2.32,2.32,0,0,1,0-.24.35.35,0,0,0-.52-.3,11.71,11.71,0,0,0-.92.77c.16-.47.29-1,.41-1.46a.33.33,0,0,0-.54-.32L941,574.23l1.4-3.36A7,7,0,0,0,944.44,573.44Zm-2.55-5.6a7.34,7.34,0,0,0,.38,2.61.31.31,0,0,0-.38.06l-2.7,3.27Zm-3.24-3.1c-1.6,2.5-3.36,5-5,7.46.13-.26.25-.53.39-.79l3-5.91a.34.34,0,0,0-.58-.34c-1.29,1.81-2.54,3.65-3.79,5.48l-1.71,2.5-.37.49c.26-.51.53-1,.79-1.54,1.1-2.11,2.21-4.22,3.29-6.35a.34.34,0,0,0-.2-.5C935.9,565.1,937.28,564.94,938.65,564.74Zm-6.32.69,1.87-.16a.53.53,0,0,0-.12.1c-1.46,1.9-2.88,3.83-4.29,5.76.94-1.84,1.78-3.74,2.54-5.68Zm-2.55.18,1.71-.12-3.15,4.24c-.46.63-1.21,1.42-1.9,2.24l.44-.88c.93-1.75,1.88-3.48,2.89-5.18A.27.27,0,0,0,929.78,565.61Zm-.64,0c-1.74,2.56-3.58,5-5.52,7.41l4-7.33Zm-2.58.12L924,568.91c-.24.3-.73.79-1.27,1.33l2.61-4.44Zm-2.31.07q-1.95,2-3.71,4.15c.69-1.35,1.33-2.71,1.91-4.12Zm-2.54,0c-1.69,2.14-3.69,4.29-5.27,6.57.15-.34.3-.68.47-1l2.56-5.14c.11-.23-.21-.54-.4-.3l-3.15,4c-.78,1-2.08,3.46-3.16,4,.76-.38,1.41-2.17,1.91-3.13q1.3-2.5,2.59-5C918.75,565.88,920.23,565.89,921.71,565.87Zm-5.21,0c-1.13,1.31-2.48,2.76-3.6,4.26.75-1.36,1.53-2.7,2.36-4a.21.21,0,0,0,0-.27Zm-1.59,0h0c-1.18,1.28-2.32,2.59-3.39,4-.16.2-.62.7-1.11,1.27.19-.4.38-.82.58-1.21q1-2,2-4.07Zm-3-.07a44.11,44.11,0,0,0-3,3.66c.63-1.23,1.25-2.46,1.87-3.69Zm-2,0c-.7.9-1.66,2.17-2.46,3.3.58-1.2,1.19-2.53,1.54-3.33Zm-1.61-.05-1.26,2c.24-.68.45-1.36.65-2Zm-1.52,0L905,568.06c.46-.92.88-1.86,1.19-2.47Zm-1.29,0-1.61,2c-.4.49-2,2-2.13,2.6.17-.71,2-3.36,2.52-4.62Zm-1.79-.07a25.88,25.88,0,0,0-3.79,4.45c-.35.58-.49.83-.52.89.05-.1.49-.85.67-1.2.68-1.36,1.23-2.81,1.84-4.21Zm-2.37-.09c-.6.85-1.21,1.69-1.81,2.53l-.43.7a29.37,29.37,0,0,0,.86-3.28Zm-2.15-.08a35.21,35.21,0,0,0-2.74,3.48c.43-.93,1.44-2.78,1.8-3.51Zm-1.56-.05c-.67.83-2,2.54-2.51,3a17.1,17.1,0,0,0,1.14-2.88.2.2,0,0,0-.06-.19Zm-5.32-.2,3.62.13h0c-.19.23-1.23,1.8-1.73,2.54a15.42,15.42,0,0,0,.55-2.26.16.16,0,0,0-.27-.16c-.55.48-1,1.17-1.56,1.61h0a11,11,0,0,0,.33-1.51c0-.14-.13-.25-.24-.14C892.11,566.22,892,566.35,892.3,565.08Zm-.42,0-1.19,1c-.14.11.06.3.19.19,1-.8,1-.52.67.64a.14.14,0,0,0,.23.14c1.62-1.69.77.19.41,1.13-.06.15.18.25.26.11,1.69-2.91,2.19-2.05.72.55-.1.16.14.37.27.21.3-.37,1.63-2.47,2.07-2.61s-1.2,2.47-1.42,2.87c-.12.21.17.46.34.26.48-.53,3.14-2.94,3.06-3.5.11.77-1.58,3.46-1.94,4.26a.22.22,0,0,0,.38.22c.44-.59,2.7-4.52,3.43-4.6-.2,0-1.71,4.49-2,5a.21.21,0,0,0,.36.21l3.39-4.84c-.42.74-2.25,5-2.42,5.38a.21.21,0,0,0,.37.21c1.12-1.64,2.42-4.17,4.12-5.26.43-.54.47-.5.12.13s-.46,1-.71,1.48c-.5,1-1,1.91-1.61,2.84-.11.17.15.39.29.22.46-.55,1.94-2,3-3.3-.14.21-.25.39-.31.5L902,572a.25.25,0,0,0,.43.26c1.58-2.11,3.06-4.73,4.79-6.6h0c-.63.7-1.07,2.51-1.59,3.59s-1.26,2.4-1.95,3.56a.25.25,0,0,0,.43.25c.31-.47.61-1,.91-1.48a8.49,8.49,0,0,0,1.33-2.23,26.25,26.25,0,0,1,2.24-3.22c-1.47,1.75-2.28,4.13-3.47,6.1-.17.28.24.5.43.25,1.35-1.83,3.85-4.42,4.55-6.42a32.61,32.61,0,0,1-1.86,3.52c-.66,1.31-1.31,2.63-2,4-.11.23.21.43.34.21a94.1,94.1,0,0,1,5.5-7.93h.35c-1,1.83-3.78,7.65-4.08,8.27a.22.22,0,0,0,.37.22,88,88,0,0,1,5.41-7.3c-.88.93-3.65,6.62-4,7.31a.25.25,0,0,0,.44.25c1.75-2.61,3.83-6.22,5.93-8.17-.83.77-1.47,2.59-2.06,3.73L912,575c-.12.22.19.51.37.28,2.07-2.63,4-5.55,6.33-8-1.62,1.72-3.05,5.51-4.31,8-.12.23.2.53.39.29,2.16-2.76,4.55-5.43,6.55-8.3l.15-.23c-.19.28-.55.8-.61.91-.44.72-.75,1.54-1.16,2.28-.81,1.51-1.72,3-2.66,4.38-.23.35.33.67.56.33,1.68-2.52,3.79-4.66,5.67-7-.19.35-.37.71-.56,1q-1.49,2.52-3,5c-.17.29.25.64.47.37l5.49-6.66q-2.1,3.87-4.19,7.76c-.16.31.26.68.5.39q2.38-2.79,4.59-5.71c-.82,1.64-1.59,3.3-2.35,5a.27.27,0,0,0,.47.27l5.88-7.76a66.93,66.93,0,0,1-4.53,8.58c-.22.36.33.67.56.33q2.76-4,5.69-7.81l-4.16,8.32a.27.27,0,0,0,.47.27c2-2.83,4-5.62,6-8.43l-3.44,7a.23.23,0,0,0,.4.24c1.7-2.44,3.43-4.84,5.11-7.29q-1.53,3.28-3.05,6.55a.34.34,0,0,0,.59.35l4.93-7.37a65,65,0,0,1-3.57,6.68c-.25.41.37.75.64.37l3.88-5.52-2.63,5.81c-.15.32.27.74.54.42l2.91-3.55c-.41,1-.83,2-1.24,3-.13.32.34.55.55.32l1.71-1.81a10.58,10.58,0,0,1-.64,1.61c-.14.32.26.73.53.41a3.79,3.79,0,0,1,1.08-1.07c-.2.35.24.63.53.41l1-.77a4.14,4.14,0,0,0,.34.42c.27.33.74-.14.47-.47l-.12-.57a.25.25,0,0,0,0-.17,19.71,19.71,0,0,0,5.08,2.56c-13.92,3.65-27.9,7.68-41.57,12.11l0-.06c-3.55-4-7.2-7.93-10.66-12-3.2-3.81-6.16-7.84-9.39-11.63Zm-14,11a4.53,4.53,0,0,0-.59-2.75c.36-.54.72-1.09,1.06-1.63l.28.33Q878.21,574,877.85,576Zm1,3.25c0-2,.21-5,.3-6.65.24.29.48.59.73.88C879.72,574.31,879.07,577.24,878.83,579.26Zm7.57,3.93c-.1.89-.16,1-.18.22a15.54,15.54,0,0,1-.37-2.59c-.05-.3-.49-.27-.56,0,0,0-.09.39-.17.8-.07-.71-.21-1.46-.23-1.72a.26.26,0,0,0-.51-.07l-.24.75c0-.59-.11-1.09-.12-1.2a.26.26,0,0,0-.52,0c-.07.82-.88,4.9-.89,1.64,0-1.45-.12-2.91-.23-4.36a.28.28,0,0,0-.55-.07,35.13,35.13,0,0,0-1.36,4.3c-.43,2.5,0,.15,0-.71a25.75,25.75,0,0,0,.08-5.82c2,2.48,4.13,4.95,6.19,7.42A14.06,14.06,0,0,1,886.4,583.19Zm-24.87,7.08a1.47,1.47,0,0,1,.1-.13c.21.88.42,1.76.61,2.64a2.29,2.29,0,0,0-.82,0A7,7,0,0,1,861.53,590.27Zm-.06,3h.2c.22,0,.45,0,.67,0,.14.64.28,1.28.4,1.93a2.35,2.35,0,0,0-.47,0,3.58,3.58,0,0,0-.45.09C861.69,594.64,861.56,593.92,861.47,593.22Zm.91,2.43c.16,0,.31,0,.46.05.12.66.24,1.32.34,2l-.42.06-.47.08c-.07-.59-.23-1.34-.4-2.15A2.69,2.69,0,0,1,862.38,595.65Zm0,2.67.5,0c.15,0,.29,0,.42,0,.09.63.18,1.26.24,1.89a1.77,1.77,0,0,0-1.18,0A15.34,15.34,0,0,0,862.33,598.32Zm-.32,6a2.93,2.93,0,0,0,.37-1.46h0c.36,0,.72,0,1.07,0s.33-.32.12-.41a2.19,2.19,0,0,0-1.19-.16c0-.28,0-.54,0-.8s0-.54,0-.82a10.24,10.24,0,0,1,1.17-.18h0c.14,1.46.19,2.94.22,4.41a1.62,1.62,0,0,0-1.32-.27,3,3,0,0,0-.43.1Zm1.77,3.06c-.2.83-.5,1.67-.88,1.36-.2-.38-.37-.77-.54-1.15l-.05-.17a1,1,0,0,0,0-.17h.27a4,4,0,0,0,1,.07.18.18,0,0,0,.08-.3c-.26-.3-.79-.27-1.15-.22l-.26,0a11.14,11.14,0,0,1-.16-1.55,2.61,2.61,0,0,1,.57-.1,6.27,6.27,0,0,0,1.14.06l0,0A8.68,8.68,0,0,1,863.78,607.41Zm150.81,21.2c-6.65-2.15-13.47-3.83-20.29-5.33-.19,0-.26.24-.08.28,6.85,1.5,13.58,3.36,20.33,5.27a33.08,33.08,0,0,0-.5,5.36c-23.91-3.29-47.53-7.64-71.13-12.71-23.83-5.11-47.57-10.83-71.48-15.51a.11.11,0,0,0-.06.21c23.87,5.77,48,10.66,72,15.8,23.35,5,46.91,10,70.66,12.62a33.2,33.2,0,0,0,.22,3.57c-9.87-.5-19.58-3.07-29.24-5s-19.48-3.84-29.18-6c-19.83-4.38-39.75-8.37-59.64-12.5l-16.58-3.43c-5.13-1.07-10.27-2.26-15.53-2.09.06-6.54-.06-12.77-2-19.11,12.07,4.35,25.33,5.17,37.74,8.35,2.87,3.72,5.77,7.41,8.81,11,.14.17.43,0,.31-.24-5.2-7.9-11.36-15.31-17.26-22.7-4.85-6.07-9.65-12.42-14.88-18.27.19-.32-.14-.79-.51-.57-.91-1-1.84-2-2.78-3l3.78,0c11.09,13.72,22.7,27.06,34.26,40.38.31.36.81-.15.52-.51-11.18-13.4-22.37-26.85-34-39.86l1.21,0c4.58,5.86,9.57,11.44,14.34,17.16,4.92,5.88,9.76,11.84,14.8,17.62.11.13.28-.06.18-.19-4.71-6-9.7-11.9-14.65-17.77-4.75-5.63-9.4-11.42-14.43-16.82,1.25,0,2.49.06,3.74.09a298.73,298.73,0,0,0,23.45,29.27c.13.14.33-.07.21-.21-7.91-9.62-15.8-19.21-23.44-29.05l4.17.1c5.64,8.69,13.15,16.9,20.59,24l0,0a.26.26,0,0,0,.33.27l.78-.21a53.05,53.05,0,0,1,3.19,15.07.32.32,0,0,0,.64,0,25.3,25.3,0,0,0-.06-4.17c19.24-7.64,39-13.28,58.65-19.77a.23.23,0,0,0-.13-.44C952,585.45,932,591.49,913.15,599.64c-.09-.88-.23-1.76-.41-2.64a47.4,47.4,0,0,0,10.51-2.3.12.12,0,0,0-.06-.24c-3.51.72-7,1.56-10.51,2.25a29,29,0,0,0-.75-2.88c8.12-.63,15.86-3.29,23.41-6.2,3.91-1.51,7.79-3.09,11.72-4.53,4.09-1.51,8.3-2.57,12.42-4,.1,0,.1-.23,0-.21-7.83,1-15.48,4.83-22.77,7.71-8.06,3.19-16.18,6-24.84,6.91a31.86,31.86,0,0,0-1.22-3.22c6.41-1.15,12.8-3.51,19-5.43,6.39-2,12.85-3.88,19.14-6.2.26-.09.16-.51-.12-.43-6.41,2-12.73,4.22-19.14,6.2s-12.85,3.37-19,5.74c-.2-.44-.4-.88-.62-1.31,6.92-1.82,13.75-4,20.62-6s13.82-3.87,20.66-6c1.13.35,2.28.63,3.41.86-6.2,1.27-12.14,4.62-18,6.78-6.59,2.42-13.38,4-20.06,6.15-.08,0,0,.14,0,.13,6.82-1.16,13.63-3.57,20.13-5.89s12.53-5.23,19.12-7a38.17,38.17,0,0,0,10.09.45c-4.25,1.4-8.45,3-12.62,4.4C946,585.34,938.81,588,931.74,591c-.12,0,0,.26.09.21,7.37-2.73,14.71-5.55,22.15-8.12s15.08-4.55,22.46-7.23a.22.22,0,0,0-.12-.43c-2.23.52-4.46,1.14-6.67,1.82a3.3,3.3,0,0,0,1.46-3.71q17,2.31,34.16,4.28c-15.35,4.2-30.51,9.22-45.73,13.85-7.73,2.35-15.44,4.75-23.2,7q-5.9,1.71-11.86,3.17c-3.72.91-7.84,1.31-11.37,2.8-.13,0-.05.24.07.25,3.63.13,7.47-1.15,11-2,4-1,7.91-2.09,11.85-3.22,8-2.29,15.86-4.71,23.78-7.09,15.94-4.78,32.09-9.16,47.86-14.47l6.52.74-8.85,2.5a.33.33,0,0,0-.27.08l-12.39,3.54a.28.28,0,0,0-.44,0l-.08.12-29.34,8.45q-13.29,3.81-26.6,7.57c-8.79,2.48-18.06,4.43-26.51,7.91a.18.18,0,0,0,.09.35c1.33-.22,2.65-.49,4-.78,17.12,3.74,34.35,7.19,51.56,10.52.1,0,.14-.13,0-.15-17-3.67-34-7.24-51-10.5,2.19-.5,4.38-1.08,6.55-1.7,5.16,1.69,10.69,2.62,16,3.82L952,614c10.5,2.39,21,4.94,31.51,7.13a.14.14,0,0,0,.07-.28c-10.63-2.66-21.36-5-32-7.41l-15.74-3.62c-4.8-1.11-9.66-2.5-14.55-3.2,3.12-.89,6.23-1.87,9.32-2.84a.23.23,0,0,0,.16.12c14.3,3.44,28.82,6.12,43.23,9,14.21,2.87,28.38,5.92,42.6,8.75A35.36,35.36,0,0,0,1014.59,628.61Zm-15.26-43.78a.3.3,0,0,0-.55-.15l-1.62,2.89c0-.05-.08.14-.23.42.17-1.23.23-2.72.27-3.15a.25.25,0,0,0-.11-.23l4.5-1.29c-.59,1.15-1.18,2.3-1.78,3.45-.14.27-.47.76-.79,1.25,0-.12,0-.18,0-.15A25.81,25.81,0,0,0,999.33,584.83Zm3-1.61v-.1l2.14-.62a44.24,44.24,0,0,1-3.05,5.22c-.8,1.12,0-.09.19-.91Zm-7.63,2.09,2-.56c-.26.47-2.09,3.88-2.64,4.8a40,40,0,0,0,.82-3.95A.26.26,0,0,0,994.68,585.31Zm-.36.1c-.54.9-1.07,1.8-1.61,2.69,0,0-.15.26-.36.64a28,28,0,0,0,.3-2.85Zm-3,.85a17.42,17.42,0,0,0-1,1.61c0-.44-.06-.9-.1-1.31Zm-4.1,1.29a19.39,19.39,0,0,0-1.11,2l-.26.47a11.91,11.91,0,0,0-.08-2.16l3.64-1c-.59,1.22-1.72,3.51-2,4.13.11-.65.24-3,.24-3.26A.25.25,0,0,0,987.27,587.55Zm-2.24.52a8.63,8.63,0,0,1-1.28,2.57,15.09,15.09,0,0,0,.23-2.27Zm-1.7.48a4.24,4.24,0,0,1-.83,1.57c-.12.07-.13-.76-.13-1.29Zm-1.66.48c-.37.8-.7,1.47-.9.25Zm-1.57.45c-.29.84-.38,1.48-.62.17Zm-1,.29c-.19.5-.48.58-.89.25Zm55.66-4.54a.49.49,0,0,0,0,.17c-5.17,12.18-11.11,23.83-17.38,35.52,0,0,0,.06,0,.09a.57.57,0,0,0-.49.18c-14.2-3.06-28.45-5.89-42.67-8.91s-28.35-6.26-42.62-8.76q2.46-.76,4.9-1.49,13.27-3.87,26.58-7.68l12.63-3.61-.72,1c-.1.15.14.28.24.14.21-.91.6-1.11,1.15-.6a.16.16,0,0,0,.27.07c.88-.9.67-1.46,1.19.05a.17.17,0,0,0,.28.08c.39-.39,1.43-2.14,1-.25,0,.19.23.33.32.14.54-1,.92-2.61,1.15-.43a.18.18,0,0,0,.34.09c1-1.82,1.07-2.26,1.12.08a.21.21,0,0,0,.39.11s.81-1.82,1-2.25c-.12.45-.22,2.53-.23,2.66s.32.31.42.12c.37-.73.72-2.12,1.31-2.61.31-.82.42-.68.34.44a2.74,2.74,0,0,1-.25,2,.25.25,0,0,0,.46.19c.08-.13,1.7-2.94,1.66-3,.23.19-.23,3.12-.27,3.36s.3.43.43.18c.75-1.39,1.32-3.29,2.26-4.51a1.32,1.32,0,0,0,.25-.51c0,.07,0,.18.06.36.25,1-.36,2.49-.66,3.38-.1.29.37.42.47.13,0-.05,1.74-4.65,2.34-5.12l.11,0c.22.13-.95,4.43-1.07,4.83a.25.25,0,0,0,.46.19c.15-.24,2.44-3.82,2.69-4.41-.13.54-.88,3.7-1,4.21-.06.3.34.5.5.22.56-1,1.84-4.51,2.85-5.08-.25.14-.78,3.53-1.09,4.53a.3.3,0,0,0,.54.23c.44-.78,1.87-4.47,2.71-4.81-.18.07-.7,3.81-.94,4.66a.29.29,0,0,0,.54.22c1-2,2.13-4,3.15-6.05a4.67,4.67,0,0,0-.29.84c-.25,1.2-.49,2.39-.72,3.59a.3.3,0,0,0,.54.23c1.22-2,2.23-4.44,3.68-6.22.77-1-.19,1.25-.32,1.89-.25,1.19-.56,2.35-.9,3.52a.3.3,0,0,0,.54.22q1.82-2.64,3.43-5.4c-.36,1.92-.81,3.8-1.36,5.69a.33.33,0,0,0,.6.25q1.51-2.73,3-5.46c-.34,1.56-.68,3.13-1,4.69-.08.35.45.63.62.26l2.4-5.32c-.31,1.49-.61,3-.91,4.48-.08.36.45.64.63.26l2.4-4.93-1.23,5.06c-.1.37.47.65.64.27l3.27-7-.81,6.15c0,.43.59.46.71.1a37.39,37.39,0,0,1,2.81-6.25l-1.38,6.2c-.08.36.44.63.63.26,1-1.91,2-3.81,3-5.71a64.25,64.25,0,0,1-1.48,6.39c-.12.41.51.7.71.3q1.46-2.84,2.93-5.65c-.34,1.79-.69,3.58-1,5.37a.42.42,0,0,0,.81.23,59.64,59.64,0,0,1,2.6-5.4q-.61,2.5-1.22,5c-.11.44.53.75.76.32,1.12-2.12,2.26-4.24,3.4-6.35q-.52,3.13-1,6.27c-.07.38.49.71.68.29.82-1.78,1.64-3.57,2.47-5.35a26,26,0,0,1-1.12,4.63c-.16.51.62.71.79.22a24.13,24.13,0,0,1,2.63-5.71c-.39,1.55-.78,3.1-1.18,4.65-.11.46.58.8.81.34.62-1.28,1.24-2.56,1.87-3.84C1034.89,584.56,1034.82,584.89,1034.74,585.23Zm.64-3.83-1.18,2.41.69-2.7.8.09A.36.36,0,0,0,1035.38,581.4Zm.77.61c0-.13,0-.26,0-.39a.41.41,0,0,0-.3-.4l.56.06Z" transform="translate(-803.27 -434.74)"/><path class="cls-2" d="M860.82,527.23h0" transform="translate(-803.27 -434.74)"/><path class="cls-1" d="M876.24,530.21c-.09-.4-.18-.8-.29-1.2,0-.13-.25-.11-.24,0,0,.41.08.81.13,1.22A.2.2,0,1,0,876.24,530.21Z" transform="translate(-803.27 -434.74)"/><path class="cls-1" d="M878,529.61a.17.17,0,0,0-.34,0,3.15,3.15,0,0,1-.15,1.26,3.79,3.79,0,0,1-.73-1.3.14.14,0,0,0-.28.07,4.26,4.26,0,0,0,.95,1.76.2.2,0,0,0,.32,0A2.5,2.5,0,0,0,878,529.61Z" transform="translate(-803.27 -434.74)"/><path class="cls-1" d="M879.74,530c0-.09-.17,0-.13.08a1.62,1.62,0,0,1,.14.92l-.23-.21a.11.11,0,0,0-.15.15l.37.34a.11.11,0,0,0,.18,0A1.55,1.55,0,0,0,879.74,530Z" transform="translate(-803.27 -434.74)"/><path class="cls-1" d="M883.44,530a3.81,3.81,0,0,0-.43.62.12.12,0,0,0,.2.12,3,3,0,0,0,.38-.62C883.64,530,883.51,529.91,883.44,530Z" transform="translate(-803.27 -434.74)"/><path class="cls-1" d="M885.54,530.8a1.16,1.16,0,0,1-.75-.58.08.08,0,0,0-.14.06,1,1,0,0,0,.87.7C885.63,531,885.64,530.83,885.54,530.8Z" transform="translate(-803.27 -434.74)"/><path class="cls-1" d="M929.12,537.64l-2.53-1.85c-.19-.14-.44.05-.45.26,0,1.37-2.31-1.11-2.6-1.36a.3.3,0,0,0-.5.29c.21,1.4.23.51-.54-.1s-1.37-1.39-2.07-2c-.16-.15-.53-.06-.5.21.08.73.17,1.46.26,2.19,0,.3-.12.22-.35-.22-.79-.35-1.74-2-2.29-2.62-.18-.23-.46,0-.43.25.06.4.12.79.19,1.19a3.77,3.77,0,0,0-.38-.23c-.66-.69-1.21-1.6-1.8-2.35a.26.26,0,0,0-.44.18,12.71,12.71,0,0,1,.2,2.3,17.11,17.11,0,0,1-2.07-2.47.31.31,0,0,0-.52.21c0,2,.18,1-.71.47a14.25,14.25,0,0,1-2.08-2.1.31.31,0,0,0-.51.3c.13,1,.52,1.11-.2.42a18.29,18.29,0,0,1-1.73-2.31c-.16-.22-.6-.18-.57.15s.13,1.61.11,1.61a27.75,27.75,0,0,1-2.15-2.09c-.15-.13-.49-.06-.46.19.08.68.33,1.4,0,1.47s-2-2.12-2.24-2.32-.46,0-.43.25c.12.85.38,1.37,0,1.41s-2-2.17-2.27-2.43-.48,0-.43.25a4.6,4.6,0,0,0,.28,1,1.12,1.12,0,0,0-.22-.17c-.57-.33-1.14-1-1.72-1.43a.24.24,0,0,0-.35.2c.12,1.07.43,1.34-.38,1-.47-.18-1.5-1.61-1.82-1.93-.1-.1-.34,0-.32.14a13.11,13.11,0,0,0,.26,1.74,28.13,28.13,0,0,1-2-2.12.21.21,0,0,0-.35.2c.64,2.39-1,0-1.71-.64a.19.19,0,0,0-.32.18c.6,2.17-.7-.1-1.64-.81a.18.18,0,0,0-.27.16c.14,2.31-1.29.18-2.25-.65a.18.18,0,0,0-.3.13c.17,2.46-.72.81-1.59-.22a.19.19,0,0,0-.32.13c0,2.6-.82.58-2-.48-.11-.1-.38,0-.35.15.28,2.14-.66.33-1.45-.61-.17-.2-.44,0-.4.24s.06.47.1.66c-.45-.45-1.37-1.3-1.42-1.34a.26.26,0,0,0-.44.18c0-.88-.13.54,0,1.14-.43-.5-1.65-1.62-1.75-1.71a.22.22,0,0,0-.36.21c.39,2.55-.63.28-1.22-.55a.2.2,0,0,0-.36.15l.21,1.14,0,0c-.5-.51-.89-1.17-1.4-1.7-.11-.11-.35,0-.33.14a7.9,7.9,0,0,0,.22,1.62c-.47-.49-1.59-1.66-1.72-1.77a.19.19,0,0,0-.32.19c.39,2.26.07,1.53-1.25,0a.18.18,0,0,0-.31.14c0,1.84-.71.34-1.47-.43a.19.19,0,0,0-.32.18c.32,1.42.3,1.15-.54,0a.21.21,0,0,0-.38.1c-.13,1.15-.61.12-1.13-.52-.13-.16-.35,0-.37.15-.06.74-.44.44-.88-.07v0a.28.28,0,0,0-.31-.35,8.49,8.49,0,0,0-.71-.83c-.12-.1-.36,0-.34.15.11,1.49-.08,1.13-.86,0a.23.23,0,0,0-.42.11,6.71,6.71,0,0,0,.43,2.57.19.19,0,0,0,.36-.1q-1-3,.67-.51c.1.13.37.11.36-.1-.07-.92.05-1.2.27-1.14a.2.2,0,0,0,.06.14.14.14,0,0,0,0,.09.29.29,0,0,0,.35.11c.29.35.63.89.93,1.31a.21.21,0,0,0,.39-.1c.11-1.16.57-.14,1.11.5.13.16.33,0,.35-.14.13-1.2.63,0,1.12.65a.2.2,0,0,0,.36-.15c-.5-2.13.6-.15.95.44a.18.18,0,0,0,.34-.09c0-2.14.94-.48,1.7.39.14.16.35,0,.32-.18-.08-.45-.35-1.42-.17-1.68s2.32,2.79,1.81,2c.11.17.43.07.35-.15a3.17,3.17,0,0,1-.31-1.87,8.9,8.9,0,0,1,1.37,2.13c.1.21.39.06.36-.15-.08-.41-.37-1.5-.23-1.47a13.72,13.72,0,0,1,1.34,1.89c.09.13.38.11.35-.1-.36-2.78.86-.68,1.62.55a.25.25,0,0,0,.46-.19c-.44-3,.92-.7,1.5.19a.26.26,0,0,0,.48-.2c-.42-2.09.83.25,1.36.87.16.19.4,0,.37-.22-.36-2.5,1-.25,1.64.68a.18.18,0,0,0,.33-.09c0-2.37.9-.69,1.75.31a.18.18,0,0,0,.31-.13c-.19-2.65,1.19-.73,2.21.39a.18.18,0,0,0,.3-.12c-.13-2.14,1.3-.45,2,.5a.18.18,0,0,0,.33-.14c-.6-2.24,1.16.23,1.77.82a.21.21,0,0,0,.34-.2c-.61-2.34,1.05.16,1.79.92a.2.2,0,0,0,.33-.2c-1-3,1.11-.2,1.86.79.11.14.4.12.38-.11-.18-2.14.89-1.1,1.77.18a.27.27,0,0,0,.5-.21c-.21-1-.53-1.08.29-.7.59.27,1.5,1.57,1.9,2,.19.19.45,0,.42-.24-.11-.78-.35-1.4,0-1.45s2,2.1,2.23,2.33a.26.26,0,0,0,.44-.18c0-.44-.22-1.41-.07-1.59s2.65,3.06,2,2.23c.16.21.6.19.57-.16a11.27,11.27,0,0,1-.09-1.53c.27,0,1.93,2.58,2.08,2.78a.31.31,0,0,0,.56-.24c-.37-2.65,2,1.21,2.55,1.86.17.21.52,0,.52-.22,0-2.39,1.48.42,2.23,1.3a.29.29,0,0,0,.5-.2c0-.1-.33-2.29-.3-2.36s1.92,2.6,2.21,3.05a.26.26,0,0,0,.47-.2c-.15-1-.88-2,.12-1.38.82.48,1.62,1.94,2.23,2.67a.31.31,0,0,0,.52-.21l-.27-2.19c0-.37.18-.33.42.11.8.29,1.75,1.85,2.29,2.48.21.25.53,0,.49-.28-.24-1.7,1.48.58,2.16,1.17a.3.3,0,0,0,.51-.13c.44-1.4,1.38-.1,2.35.56C929.13,538.24,929.37,537.82,929.12,537.64Z" transform="translate(-803.27 -434.74)"/><path class="cls-2" d="M863.25,521.56h0" transform="translate(-803.27 -434.74)"/><path class="cls-1" d="M980.57,466.76c-.15-.11-.32.12-.19.24a6.58,6.58,0,0,1,1.76,2.93c0,.09.18.08.18,0A4.08,4.08,0,0,0,980.57,466.76Z" transform="translate(-803.27 -434.74)"/><path class="cls-1" d="M981.59,464.71a.19.19,0,0,0-.19.34,4.91,4.91,0,0,1,1.81,2.48.18.18,0,0,0,.34-.1A3.73,3.73,0,0,0,981.59,464.71Z" transform="translate(-803.27 -434.74)"/><path class="cls-1" d="M860.4,545c-6.78.49-13.54,1.4-20.27,2.32-7.07,1-14.34,1.76-21.26,3.49-.06,0,0,.12,0,.11,6.55-.73,13-2.11,19.56-3,7.3-1,14.64-1.76,22-2.67C860.53,545.16,860.54,545,860.4,545Z" transform="translate(-803.27 -434.74)"/><path class="cls-1" d="M889.16,550.84a318.74,318.74,0,0,0-35.7,3.44c-12.22,1.72-24.61,3.09-36.74,5.42-.11,0-.09.22,0,.21,11.9-1.28,23.71-3.64,35.57-5.23,12.27-1.64,24.49-2.85,36.84-3.64C889.29,551,889.29,550.83,889.16,550.84Z" transform="translate(-803.27 -434.74)"/><path class="cls-1" d="M947.38,560.71c-20.69-12.52-46.35-10.05-69.23-6.81a.09.09,0,0,0,0,.17c23.35-2.46,47.71-5.29,69,6.9C947.39,561.07,947.55,560.81,947.38,560.71Z" transform="translate(-803.27 -434.74)"/><path class="cls-1" d="M949.85,556.28c-16.2-13.09-40-13-59.68-12.22a.05.05,0,1,0,0,.1c11,.17,22-.06,32.89,1.88a72.53,72.53,0,0,1,26.66,10.42C949.82,556.53,950,556.37,949.85,556.28Z" transform="translate(-803.27 -434.74)"/><path class="cls-1" d="M951.33,557.79s0,0,0,0A0,0,0,0,0,951.33,557.79Z" transform="translate(-803.27 -434.74)"/><path class="cls-1" d="M1022.86,572.43c-9.9-1.87-19.9-3.38-29.86-4.9-9.21-1.39-18.23-1.81-27.39.18-.2,0-.11.35.09.31,19.08-3.34,38.24,2.28,57.11,4.77C1023,572.82,1023.06,572.47,1022.86,572.43Z" transform="translate(-803.27 -434.74)"/><path class="cls-1" d="M1109.48,582.05c-9.89-.91-19.81-1.2-29.69-2.3-10.27-1.14-20.44-2.79-30.61-4.5-.06,0-.09.07,0,.08,9.72,2,19.59,3.46,29.45,4.6,10.18,1.18,20.62,2.42,30.88,2.3C1109.6,582.23,1109.59,582.06,1109.48,582.05Z" transform="translate(-803.27 -434.74)"/><path class="cls-1" d="M1106.73,577.77c-7,1.56-13.59.7-20.57-.44-6.25-1-12.49-2.1-18.76-3-.09,0-.14.13,0,.15,7,1.3,14,2.43,21,3.55,6.08,1,12.5,1.85,18.53.16A.22.22,0,0,0,1106.73,577.77Z" transform="translate(-803.27 -434.74)"/><path class="cls-1" d="M1098.1,477c0-.08-.14-.06-.13,0a83.46,83.46,0,0,0,1,8.33c0,.14.26.11.25,0C1099,482.55,1098.65,479.73,1098.1,477Z" transform="translate(-803.27 -434.74)"/><path class="cls-1" d="M1102.83,483.88c0-.11-.19-.08-.18,0,.91,13.57,2.15,27.12,3,40.7a.12.12,0,0,0,.23,0A377,377,0,0,0,1102.83,483.88Z" transform="translate(-803.27 -434.74)"/><path class="cls-1" d="M1098.08,561.11l-8.12-.61c1.84-.11,3.68-.22,5.52-.35a.35.35,0,0,0,0-.7c-1.63-.18-3.26-.39-4.89-.6a52.36,52.36,0,0,0,6-.55c.4-.06.29-.58,0-.69a19.84,19.84,0,0,0-5.93-1.1l4.49-.37a.31.31,0,0,0,0-.62,63.72,63.72,0,0,1-7.6-.37c2.31.41,5.15-.1,7.49-.15.33,0,.44-.56.08-.61l-1.16-.17c.41,0,.82-.05,1.22-.09s.49-.46.18-.63a12.34,12.34,0,0,0-1.74-.82l1-.07c.32,0,.53-.5.18-.67l-1-.46,1.2-.14a.37.37,0,0,0,.26-.62,3.68,3.68,0,0,0-.72-.66c.13-.2.12-.47.29-.86a9.7,9.7,0,0,1,.74-1.35.35.35,0,0,0-.61-.36l-1,1.15a.36.36,0,0,0,0,.62l-.33.48c-.39.08-.3.58,0,.7l.42.29-1.49.18c-.31,0-.54.5-.18.67l.87.42-1.73.13c-.37,0-.51.61-.09.69a10,10,0,0,1,2.52.74c-1.34.09-2.68.12-4,.08-.35,0-.45.57-.09.62l1.39.2-4.75.1a.31.31,0,0,0-.08.6,27.28,27.28,0,0,0,4.08.73l-4.52.35a.33.33,0,0,0,0,.65c2.87.24,6,.21,8.89.93a51.21,51.21,0,0,1-10.65.2c-.43,0-.41.61,0,.66,2.49.32,5,.63,7.48,1l-7.76.4a.37.37,0,0,0-.31.18q-2.44-.13-4.89-.24c-.28,0-.27.4,0,.43,6.44.77,12.91,1.22,19.39,1.58C1098.65,562,1098.64,561.15,1098.08,561.11Z" transform="translate(-803.27 -434.74)"/><path class="cls-1" d="M886,441.78a.92.92,0,0,0,0-.16.35.35,0,0,0-.6-.25c-.33.3-.65.61-1,.92.09-.31.18-.61.28-.92s-.39-.53-.61-.25c-.34.45-.7.88-1.06,1.32.28-.59.55-1.19.83-1.77a.34.34,0,0,0-.59-.35c-.68.92-1.35,1.84-2,2.77.32-.64.64-1.28,1-1.92a.33.33,0,0,0-.57-.33c-.22.28-1.06,1.34-1.91,2.45.58-1,1.09-2,1.23-2.18s-.29-.59-.51-.29c-.37.49-2.38,3.16-3.8,5.13,1.18-2.07,2.68-4.93,3-5.45a.27.27,0,0,0-.43-.33c-.86,1-1.7,2-2.48,3l-.27.35,2-3.66c.15-.26-.22-.58-.44-.33-.35.41-.69.84-1,1.26l.89-1.48c.21-.34-.29-.61-.51-.3a88.9,88.9,0,0,0-7.22,11.8c-.1.2.2.38.31.18.3-.56.61-1.1.93-1.65a.25.25,0,0,0,.44,0l.59-1a5.34,5.34,0,0,0,.7-1.16l.79-1.31c.62-.87,1.32-1.71,2-2.57-.08.16-.16.32-.24.46-1,1.76-2,3.5-2.93,5.26a.27.27,0,0,0,.46.27c.64-1,5.68-7.87,5.55-8,.14.17-3.91,6.79-4.37,7.63a.28.28,0,0,0,.49.28c.78-1,1.7-2.08,2.59-3.16l-.71,1.23c-.17.28.26.64.47.36l2.9-3.72-1.29,2.55a.34.34,0,0,0,.58.34l2.44-3.34-.36.79c-.15.32.24.69.51.4.55-.6,1.07-1.21,1.58-1.83l-.15.51a.34.34,0,0,0,.56.33c.15-.13,1.37-1.59,1.24-.89a.35.35,0,0,0,.59.34,3.29,3.29,0,0,0,.79-1C886.87,441.78,886.29,441.43,886,441.78Z" transform="translate(-803.27 -434.74)"/><path class="cls-1" d="M912.12,600.86c-8.53-9.92-17-19.85-25.37-29.91,0,0-.1,0-.07,0a303.15,303.15,0,0,0,25.18,30.12C912,601.29,912.27,601,912.12,600.86Z" transform="translate(-803.27 -434.74)"/><path class="cls-1" d="M910.48,594.6c-6.52-7.86-13.58-15.33-20.28-23.06-.11-.13-.29.06-.19.19,6.29,8,12.92,16.06,20.27,23.08C910.42,594.94,910.6,594.74,910.48,594.6Z" transform="translate(-803.27 -434.74)"/><path class="cls-1" d="M981.42,575.78c-2.4.84-4.79,1.7-7.19,2.53a.15.15,0,0,0,.08.28,30.81,30.81,0,0,0,7.21-2.56A.14.14,0,0,0,981.42,575.78Z" transform="translate(-803.27 -434.74)"/><path class="cls-1" d="M990.08,577.24c-22.31,7.7-45,13.86-67.53,21a.11.11,0,0,0,.06.21c11.41-3.1,22.72-6.56,34.08-9.86s22.67-6.4,33.53-10.8C990.53,577.63,990.41,577.13,990.08,577.24Z" transform="translate(-803.27 -434.74)"/><path class="cls-1" d="M986.23,632.27c-20.2-4.52-40.59-8.34-60.86-12.5s-40.52-8.74-60.89-12.41c-.16,0-.23.21-.07.25,20.17,4.64,40.58,8.39,60.85,12.54s40.52,8.66,60.88,12.45C986.35,632.64,986.44,632.32,986.23,632.27Z" transform="translate(-803.27 -434.74)"/><path class="cls-1" d="M920.18,613.56c-9.29-2.78-18.79-5-28.25-7.11-9.07-2-18.26-4.2-27.49-5.29-.15,0-.19.23,0,.26,9.28,2.08,18.71,3.51,28,5.54s18.5,4.47,27.73,6.79A.1.1,0,0,0,920.18,613.56Z" transform="translate(-803.27 -434.74)"/><path class="cls-1" d="M1012.12,632.17c-26.22-5-52.32-10.35-78.33-16.34-.12,0-.18.16,0,.19,25.94,6.13,52.07,11.69,78.31,16.39C1012.21,632.44,1012.28,632.2,1012.12,632.17Z" transform="translate(-803.27 -434.74)"/><path class="cls-1" d="M905.15,606.28c-12.28-3.35-24.92-6-37.41-8.53-.19,0-.28.25-.08.3,12.35,3.12,24.91,6.14,37.44,8.41C905.22,606.48,905.27,606.31,905.15,606.28Z" transform="translate(-803.27 -434.74)"/><path class="cls-1" d="M1012.7,630.07c-11.68-3.45-23.68-6-35.62-8.37-.15,0-.22.2-.07.23,12,2.37,23.78,5.38,35.62,8.37C1012.78,630.34,1012.85,630.11,1012.7,630.07Z" transform="translate(-803.27 -434.74)"/><path class="cls-1" d="M1012.74,623.84c-13.53-3.3-27.16-6.24-40.76-9.23s-27.17-6.27-40.88-8.66c-.16,0-.24.21-.07.25,13.53,3.29,27.25,5.83,40.85,8.79s27.18,6.15,40.79,9.08C1012.82,624.11,1012.89,623.88,1012.74,623.84Z" transform="translate(-803.27 -434.74)"/><path class="cls-1" d="M894.88,599.55c-9.57-1.86-19.13-3.74-28.59-6.11a.05.05,0,1,0,0,.1,242.23,242.23,0,0,0,28.55,6.27C895,599.83,895.05,599.58,894.88,599.55Z" transform="translate(-803.27 -434.74)"/><path class="cls-1" d="M1027.78,608.17c-4.4,8.93-8.59,18-12.79,27,0,.1.1.18.15.08,4.48-8.87,8.86-17.87,12.85-27C1028.05,608.15,1027.85,608,1027.78,608.17Z" transform="translate(-803.27 -434.74)"/><path class="cls-1" d="M1040.4,582.08c-3.73,6.63-7.28,13.47-10.5,20.36-.06.12.1.21.16.1,3.67-6.68,7.19-13.5,10.57-20.32C1040.71,582.06,1040.48,581.93,1040.4,582.08Z" transform="translate(-803.27 -434.74)"/><path class="cls-1" d="M1038.65,582.21a66.36,66.36,0,0,0-5.31,10.21c0,.09.09.18.14.08,1.63-3.49,3.58-6.77,5.34-10.19A.1.1,0,0,0,1038.65,582.21Z" transform="translate(-803.27 -434.74)"/></svg>