<svg id="Слой_1" data-name="Слой 1" xmlns="http://www.w3.org/2000/svg" viewBox="0 0 271.69 298.28"><defs><style>.cls-1,.cls-2{fill:#3c3c3b;}.cls-2{stroke:#273480;stroke-linecap:round;stroke-linejoin:round;stroke-width:0;}</style></defs><title>2 книга</title><path class="cls-1" d="M974.72,409.21c-16.13-.28-32.42,0-48.54.74a17.31,17.31,0,0,0-1.34-3.23c-.16-.24-.57-.09-.48.2a8.34,8.34,0,0,0,.86,1.84c.25.41.48.79.7,1.2l-.4,0a.1.1,0,1,0,0,.19H926c.09.18.19.37.28.56s.21,0,.16-.09-.14-.31-.2-.47c16.14-.09,32.32-.35,48.45-.71A.13.13,0,0,0,974.72,409.21Z" transform="translate(-824.22 -390.39)"/><path class="cls-1" d="M898.86,414.49c-14.64-1.78-29.17-3.22-43.5-6.86.07-1.25,0-2.5,0-3.7-.13-3-.78-5.85-2.81-8.18-.27-.32-.72.14-.45.45,3.62,4.13,3.27,13,1.12,17.76a.28.28,0,0,0,0,.2.11.11,0,0,0,0,.22c13.13,2.19,26.38,4.32,39.58,6,.13,0,.16-.21,0-.23-12.91-2.45-26.1-4.33-39.14-5.93a14.1,14.1,0,0,0,1.69-6.31c14.09,4,28.94,5.64,43.51,6.77C899,414.68,899,414.51,898.86,414.49Z" transform="translate(-824.22 -390.39)"/><path class="cls-2" d="M1038.06,431.7s0,0,0,0" transform="translate(-824.22 -390.39)"/><path class="cls-1" d="M1052.34,471.76c-6.88-.27-13.77-.39-20.65-.48s-13.86-.59-20.66.08a.14.14,0,0,0,0,.27c6.81.63,13.82.2,20.66.29s13.77.27,20.65.4A.28.28,0,0,0,1052.34,471.76Z" transform="translate(-824.22 -390.39)"/><path class="cls-1" d="M1052.19,587.7c-.12-.23-.55-.14-.52.14.18,1.63.74,3.21.93,4.83a.07.07,0,1,0,.13,0A8.08,8.08,0,0,0,1052.19,587.7Z" transform="translate(-824.22 -390.39)"/><path class="cls-1" d="M853.22,602.13c-5.35,1.59-5.47-9.46-5.48-12.31a45.82,45.82,0,0,1,1.71-11.69c.1-.36-.42-.48-.54-.15a34.21,34.21,0,0,0-1.59,17.93c.46,2.67,2,9.19,6.14,6.79A.31.31,0,0,0,853.22,602.13Z" transform="translate(-824.22 -390.39)"/><path class="cls-1" d="M987.63,649.59c-19.89.63-39.77,2.09-59.64,3.17q-14.73.79-29.46,1.55c-10.07.52-20.23.71-30.27,1.68-.38,0-.4.61,0,.61,10.08-.08,20.21-1,30.27-1.47L928,653.6c19.87-1,39.81-1.78,59.64-3.42C988,650.15,988,649.58,987.63,649.59Z" transform="translate(-824.22 -390.39)"/><path class="cls-1" d="M1092.11,428.3a12.73,12.73,0,0,1,2.11.35.41.41,0,0,0,.42.13,7.07,7.07,0,0,1,.74.24c.44.16.76-.58.32-.77a7.07,7.07,0,0,0-.69-.27c-.17-3.26-6.57-3.91-9.92-4.16a.27.27,0,0,0-.18-.12c-3.08-.71-6.31-.83-9.44-1.26-2.8-.37-5.91-1.26-8.77-1.08a53.08,53.08,0,0,0,.15-11.05c-.23-3-1.07-6.23-3.47-8.29s-5.69-2.22-8.69-2a8.72,8.72,0,0,0-2.42-.64.22.22,0,0,0-.15-.13c-12.42-3-25.55-3.4-38.26-4.14-13.55-.79-27-1.74-40.48-3.58a.38.38,0,0,0-.28.06.48.48,0,0,0-.36-.17c-20.32-1.22-40.83-1.08-61.19-1-10.09,0-20.19.1-30.29.34-9.69.23-19.58.06-29.25.92-1.46-.24-3.07-.34-3.82.5a1.38,1.38,0,0,0,.35,2.24.27.27,0,0,0,.19.39c5.88,1.07,11.92,1.45,17.85,2.16,6.48.78,12.94,1.67,19.39,2.58,12.32,1.74,24.58,4,36.9,5.68,0,.15,0,.3.08.44a.29.29,0,0,0,.33.24.27.27,0,0,0,.21.15c4.58.62,9.35.36,14,.36,5.23,0,10.46-.08,15.69-.08q15.09,0,30.17-.2,30.48-.39,60.93-1.49l9-.35c1.32-.05,2.65-.18,4-.17a5,5,0,0,1,4.84,3.91c1.67,5.38.79,11.66-1.14,16.84a.41.41,0,0,0,.24.54c-4.92,2-10.35,1.33-15.54,1.24-5.6-.11-11.2-.1-16.8,0-11.4.15-22.8.6-34.19,1.08-11.2.47-22.39,1-33.59,1.34q-8.4.25-16.8.35-4.2.06-8.4.06a80.19,80.19,0,0,0-8.77,0,.44.44,0,0,0-.34-.23l-1.42-.25a1.52,1.52,0,0,0,1.28-1,3.43,3.43,0,0,0,.17-1.14c10.22,0,20.44-.7,30.66-1s20.57-.41,30.84-.81c20.88-.81,41.79-1,62.66-2a.13.13,0,0,0,0-.26c-20.89.27-41.77,1.36-62.66,1.86-10.28.24-20.55.75-30.84,1.11s-20.44.31-30.64.92c.13-.89.48-1.68.66-2.54a1.2,1.2,0,0,0,0-.46,143.51,143.51,0,0,0,22.33-.23c.12,0,.13-.21,0-.2-7.48.45-14.9.24-22.37.15,0,0,0,0,0-.09,0-.29-.17.32-.09-.49s.11-.17.29-.63a.39.39,0,0,0,0-.14.17.17,0,0,0,0-.32,13.26,13.26,0,0,0,0-1.78A293.48,293.48,0,0,0,972,418.61c.1,0,.11-.17,0-.16-14.76,1.15-29.49,1.45-44.29,1.17,0-.12,0-.19-.07-.17.22-.1.14-.4,0-.48a2.74,2.74,0,0,1,.26-2.05c0-.12.09-.23.13-.35,16.28.6,32.58-1.44,48.88-1.19s32.75,1.15,48.89-1.51c.16,0,.09-.25-.06-.23-16.62,2.34-33.29,1.63-50,1.4-15.91-.22-31.77,1.44-47.67,1.23v0a1.39,1.39,0,0,0-.28-.7,2.31,2.31,0,0,1-.59-1.19,1.3,1.3,0,0,0,0-.21c.69,0,1.38,0,2.06-.05a.14.14,0,0,0,.12-.07c21.73-.38,43.47-1.53,65.19-2.3,22.16-.79,44.38-1.19,66.52-2.41.16,0,.17-.26,0-.26-22.17.37-44.36,1.55-66.52,2.34-22,.78-44,1.18-66,2.37l-1.41-.06a1.53,1.53,0,0,1,.41-.86.16.16,0,0,0-.22-.22,1.56,1.56,0,0,0-.7,1.06c-3.69-.16-7.38-.28-11.06-.52-.15,0-.14.21,0,.22a92.21,92.21,0,0,0,11,.76,3.36,3.36,0,0,0,.3,1,2.22,2.22,0,0,1,.24,1.08h-.38c-.17,0-.17.26,0,.27h.35c0,.12,0,.24-.07.38s-.19.42-.26.66c-8.3-1-16.62-2-24.93-3-.15,0-.19.25,0,.27,8.28,1.15,16.6,2.19,24.93,3a2.46,2.46,0,0,0,.3,1.27.89.89,0,0,0-.23.49c-.08.38.15.57.2.93a1.41,1.41,0,0,1,.26.93c-11.84-2.13-23.89-3.38-35.81-5-11.72-1.59-23.43-3.25-35.15-4.8a.1.1,0,0,0,0,.2c12.08,1.76,24.18,3.42,36.26,5.15,11.48,1.64,23,3.64,34.52,4.79a.87.87,0,0,1-.25.15.19.19,0,0,0-.08.07c0,.09-.18.29-.23.42.09-.25.12,1.4.14,1.27-.07,1-.76,4.7-1.55,4.73a.21.21,0,0,0-.16.35c-11.65-2.09-23.34-4-35-6.07-12.26-2.22-24.49-5-36.81-6.81-.4-.06-.58.51-.17.61,12.05,3.06,24.47,5,36.69,7.22,11.92,2.19,23.85,4.44,35.83,6.28a3.32,3.32,0,0,0-.15.54h0c-6.26.13-12.54-1.38-18.7-2.37l-18.38-2.94c-11.78-1.88-23.6-4.11-35.46-5.44a.2.2,0,0,0,0-.11c-.34-.5-.81-.79-1-1.42a2.4,2.4,0,0,1,.29-2,.21.21,0,0,0-.29-.3,2.33,2.33,0,0,0-.94,2.35,2.67,2.67,0,0,0,.85,1.56.22.22,0,0,0,.17.27c9.78,2.11,19.74,3.62,29.67,5.16-2.88.29-5.75.68-8.6,1a10.24,10.24,0,0,0-3.56.73,3.62,3.62,0,0,0-1.47,1.55c-1.51-1.53-4.23-1-5.57.77a10.38,10.38,0,0,0-1.56,5.13c-.42,3.3-.7,6.63-.82,9.95a61.72,61.72,0,0,0,.86,13.89l-.32.11a.48.48,0,0,0-.77.21l0,.08-1.31.47a.42.42,0,0,0-.58.21l-4.31,1.6a.35.35,0,0,0-.62,0c-.07.09-.12.2-.18.29l-1.21.43q-2.24.78-4.47,1.53a38.11,38.11,0,0,1-4.38,1.56,10.36,10.36,0,0,0-1.26.1,2,2,0,0,1-.57-.13.23.23,0,0,0-.3.31A2.86,2.86,0,0,0,838,468.5a.43.43,0,0,0,.55.42l.39-.11a.27.27,0,0,0,.16.08l4.5.18a.27.27,0,0,0-.07.29,31.67,31.67,0,0,1,0,22.68.38.38,0,0,0,0,.23l-2,.09a.25.25,0,0,0,0,.5c13.68.82,27.5.35,41.21.49s27.47.38,41.2.77c27.59.79,55.11,2.76,82.68,3.88,15.44.63,30.95,1,46.39.18a.62.62,0,0,0,.46-1,38.1,38.1,0,0,0,6.75-6.06c2-2.22,4.56-4.69,5.86-7.42,1.2-2.53.79-5.51.64-8.2-.21-3.83-.56-7.63-1.08-11.42l1.4-.17c.57,3.59,1.52,6.9,1.52,10.59,0,1.47-.08,2.94-.18,4.41-.07.92-.16,1.83-.25,2.75a24.47,24.47,0,0,1-.86,3.38c-.1-.31-.61-.3-.62,0a.36.36,0,0,0-.31.26c-1,3.18-3.1,5.49-5.2,8-.94,1.13-1.89,2.24-2.82,3.37s-2.07,3.12-3.63,3.61a.59.59,0,0,0-.45-.15c-27.71,1.47-55.4-.74-83.08-1.86q-22.89-.92-45.78-1.4a2.61,2.61,0,0,1-.28-.17.2.2,0,0,0-.3.16l-7.11-.15-.14-.09a.24.24,0,0,0-.32.08q-14.73-.28-29.45-.45l-4.18-.07a.48.48,0,0,0-.49,0l-1.35,0,0-.58c0-.49-.78-.66-.91-.12-.06.22-.11.45-.16.68l-1.57,0a.46.46,0,0,0-.83,0c-12.46-.26-25-.63-37.38-.15-.35-.91-.5-2.16.47-2.78a.24.24,0,0,0-.18-.43,2,2,0,0,0-1.65,1.64,1.83,1.83,0,0,0,1,2.11.28.28,0,0,0,.2,0c6.08.34,12.19.44,18.31.48-4.91,1-9.78,2.3-14.65,3.43-5.77,1.33-11.63,2.48-17.29,4.24h-.13a.4.4,0,0,0-.34-.12,3,3,0,0,0-2.22,2.44,1.72,1.72,0,0,0,.93,1.59.2.2,0,0,0,.13.32c.88.15,1.77.27,2.66.38a.23.23,0,0,0,.05.41c1.53.48,1.37,5.35,1.32,6.52a16.87,16.87,0,0,1-1.6,6.4l-1.88-.15a.25.25,0,0,0-.32-.2,2.83,2.83,0,0,0-.35.14h-.12a.26.26,0,0,0-.26.23c-1.58,1.11-.13,3.46,1.59,4.06,2.76,1,6.22.87,9.1,1.2l4,.46a.3.3,0,0,0-.12.32,17.85,17.85,0,0,1-1.34,11,.4.4,0,0,0,.69.4,13.73,13.73,0,0,0,1-1.82c10.23,3.3,20.8,5.76,31.18,8.55s20.76,5.2,31.14,7.83c21.27,5.38,42.64,10.44,64,15.33a.19.19,0,0,0,.21-.11,13.16,13.16,0,0,0,1.39,2.91l-.51.07a.53.53,0,0,0-.12-.14.26.26,0,0,0-.11-.45c-10.75-2.88-21.74-4.93-32.57-7.47-11-2.59-22-5.44-33-8.19-10.81-2.71-21.63-5.35-32.4-8.16s-21.71-6.12-32.69-8.62a.3.3,0,0,0-.38-.21c-1.37.36-2.22,2.66-.9,3.48a.24.24,0,0,0,.17.29c9.52,3.18,19.55,5.28,29.37,7.64-1.79.32-3.57.77-5.36,1.08q-1.35.24-2.7.45a.26.26,0,0,0-.28,0l-.07,0q-3.87.62-7.76,1.12c-5.83.76-11.76,1.18-17.51,2.36a.31.31,0,0,0-.15.51l-.68,0c0-.08,0-.16,0-.24a.2.2,0,0,0-.37-.15c-.9,1.44-1.07,3.84.39,5a.42.42,0,0,0,.48.07c1,.09,2,.16,3.06.23a14.43,14.43,0,0,1,.38,9.35,3.22,3.22,0,0,0-3,3.88.25.25,0,0,0,.07.45l.19.06a1.13,1.13,0,0,0,.1.13.35.35,0,0,0,.47,0,40,40,0,0,0,7.81.88c3.63.25,7.26.45,10.88.79,6.82.63,13.64,1.2,20.46,1.78a.32.32,0,0,0,0,.56c12.11,6.22,24.86,11.59,37.33,17h.07l-.15,0c-.21,0-.16.39,0,.37l.22,0a2.93,2.93,0,0,1,0,.29,2.69,2.69,0,0,1-.06,1,2.79,2.79,0,0,1-.51,1l-.34.06c-6.89-4.08-14.27-7.48-21.45-11-6.76-3.33-13.78-7.48-21-9.65a.17.17,0,0,0-.13.31c3.28,2.11,7.05,3.57,10.56,5.26s7.09,3.44,10.62,5.18c7.06,3.48,14,7.36,21.1,10.66l.11,0a.36.36,0,0,0,.42.13,2.55,2.55,0,0,0,.85-.63c7.26-.2,14.57-1.35,21.78-2q11.73-1.15,23.46-2.31c15.06-1.5,30.16-2.82,45.15-4.91.11,0,.08-.19,0-.19-15.48,1-30.91,2.75-46.33,4.33L930,596.67c-6.89.72-13.94,1.06-20.79,2.22a2.33,2.33,0,0,0,.26-.66,3,3,0,0,0,0-1.48c9.22-.72,18.43-1.86,27.63-2.82s18.43-1.69,27.58-2.94c.27,0,.21-.52-.07-.5-9.58.71-19.15,2-28.7,3-8.88.94-17.8,1.71-26.64,2.88a1.45,1.45,0,0,0-.22-.21.34.34,0,0,0-.2-.42c-10-4.7-20.11-9.57-30.33-13.93a.34.34,0,0,0,.16-.56l-.08-.15,1,.71c.22.16.59-.1.48-.36l-.27-.66c.9.59,1.77,1.23,2.61,1.9s1.42,1.28,1.47,1.33a.37.37,0,0,0,.58-.45l-.72-1.33L886,584c.31.24.88-.08.6-.45a17.27,17.27,0,0,1-1.43-2.17,21.46,21.46,0,0,1,3.29,2.27c.3.25.81-.07.57-.44s-.62-1-.94-1.53q2,1.36,4.09,2.72c.32.21.67-.2.5-.5l-.92-1.7,4.46,3.09c.31.21.75-.22.53-.53l-1.34-1.9,3.76,2.44c.37.23.81-.32.47-.61a11.51,11.51,0,0,1-2.08-2.35l5.6,3.68c.33.21.81-.23.56-.56l-1.88-2.51,3.92,2.63c.36.23.77-.23.57-.57l-1.26-2.16A29.58,29.58,0,0,1,910,586a.41.41,0,0,0,.57-.58l-1.69-2,4.47,2.55c.34.2.84-.22.58-.58l-1-1.4,3.55,2.11c.36.21.85-.23.6-.6l-.63-.91,3.53,2.12c.37.22.88-.24.62-.63l-1.25-1.8a20.81,20.81,0,0,1,3.49,2.2.46.46,0,0,0,.72-.56l-.66-1.35,3.59,1.74c.39.19.88-.2.63-.62l-.71-1.17,3.21,1.7c.32.17.84-.12.67-.52l-.31-.76a19.55,19.55,0,0,1,3.85,1.87c.43.27.79-.24.62-.63-.24-.57-.48-1.14-.73-1.71a19.33,19.33,0,0,1,3.64,2c.43.31.91-.35.55-.71-1.54-1.56,2.64.79,2.38.69a6.48,6.48,0,0,0,1.44.59c.36.07.74-.31.51-.66l-.36-.87a7.92,7.92,0,0,1,1.92,1,.44.44,0,0,0,.64-.26c1-.61,1.78-.49,2.25.34a.43.43,0,0,0,.71-.19l1.46-.59a.4.4,0,0,0,.6-.34L1003,590c16.33,1.38,32.66,2.9,49,3.33a.57.57,0,0,0,0-1.14c-28.69-.83-57.33-3.7-85.92-6.09l-32.77-2.72-.42-.17a.38.38,0,0,0-.42.1l-50.39-4.18a1.16,1.16,0,0,0-.56-.13,2.83,2.83,0,0,0-.54,0l-.73-.06q-12.09-1-24.18-2c-7.9-.63-16.14-.82-24-2.19a3.64,3.64,0,0,1,.29-2,2.65,2.65,0,0,1,1.48-1.28c0,.1-.06.2-.09.3h-.18c-.21,0-.28.35,0,.39l.26,0a.53.53,0,0,0,.79.12c6.21,1,12.6,1.09,18.85,1.56q10.51.78,21,1.61,21,1.65,42.06,3.49,41.74,3.66,83.43,8c15.65,1.62,31.34,2.94,47.08,2.16a2.91,2.91,0,0,0,1.45,1.19c.35.13.55-.23.47-.52a.27.27,0,0,0,.18-.07c5.93-5.13,11.52-10.61,17.24-16,5.48-5.13,11.2-10,16.85-14.89.4-.36-.14-1.08-.59-.76l-.15.12c1.58-2.3,2.22-6.44.23-8.62-2.57-2.82-5.56,1.82-7,3.54-7.37,8.49-15.68,15.83-23.68,23.66a.43.43,0,0,0,0,0,2.84,2.84,0,0,0-.3-1.2l-.45-1.27a.27.27,0,0,0-.52.14c.11.47.22.93.34,1.4a2.54,2.54,0,0,0,.42,1.14.22.22,0,0,0,.24.09l0,.05c-.15.14,0,.41.22.29,6-4.25,11.22-9.47,16.32-14.68q3.83-3.92,7.44-8c.73-.82,1.44-1.65,2.16-2.48,1.16-1.33.95-1.6,3-1.05s2,1,2,3a5.82,5.82,0,0,1-.07.73.1.1,0,0,0-.07,0c-6,4.79-11.39,10.56-17,15.83s-11.28,10.59-16.8,16c-.08.08,0,.19.12.12,5.75-5.18,11.38-10.49,17-15.77s11.5-10.1,16.59-15.66a16.29,16.29,0,0,1-1,2.84.38.38,0,0,0,.15.45A192.28,192.28,0,0,0,1066,572.65c-5.85,5.47-11.69,11-17.21,16.79l0,.06a6.7,6.7,0,0,1-1.2-4.09c11.72-10.28,23.36-21.06,34.18-32.29a.17.17,0,0,0-.24-.24c-11.39,10.63-22.61,21.48-33.94,32.19a17.8,17.8,0,0,1,.39-3.06,265.38,265.38,0,0,0,32.5-29.55c.2-.21-.11-.52-.31-.32A434,434,0,0,1,1048,581.83c.25-1.21.57-2.38.84-3.41.07-.27-.33-.45-.46-.19a20.75,20.75,0,0,0-2,8c-9.37-.89-18.88-.78-28.28-1.43s-18.81-1.5-28.21-2.35c-.13,0-.12.17,0,.19,9.38,1.14,18.79,2,28.21,2.62s18.93,1.72,28.29,1.45h0a7.18,7.18,0,0,0,.19,1.27c-27.5,1.57-55.26-2.94-82.57-5.58q-41.71-4-83.49-7.37-11.41-.9-22.84-1.76c-7.52-.56-15.21-1.57-22.77-1.48a8.79,8.79,0,0,0,.4-1.08c9.91-.39,19.56.17,29.44.7.16,0,.2-.26,0-.29a147.08,147.08,0,0,0-29.37-.77,12.09,12.09,0,0,0,.42-3.84c3.46-.28,6.92-.4,10.39-.38a.08.08,0,0,0,0-.15,73.85,73.85,0,0,0-10.41.27,12.08,12.08,0,0,0-.58-2.93c5.48.14,11,.32,16.46.37a0,0,0,0,0,0-.09c-5.5-.22-11-.3-16.51-.43a11.31,11.31,0,0,0-.74-1.71c5.94.34,11.91.39,17.85.69q11.16.59,22.32,1.09c14.67.68,29.37,1.59,44,1.86a.47.47,0,0,0,.51-.5q7.2,1.8,14.41,3.54c5.4,1.3,10.8,2.55,16.24,3.71q4.06.86,8.15,1.67c3,.58,6,.92,8.42,2.79a.36.36,0,0,0,.5-.08l.21.1a.29.29,0,0,0,.34-.09c4.1.11,8.37-.7,12.43-1.15q5.85-.64,11.68-1.42,4.48-.6,8.95-1.28a.22.22,0,0,0,.13.34c8.17,1.18,16.44,1.71,24.65,2.59,8.59.92,17.18,1.94,25.79,2.72.75.07.74-1.09,0-1.17-8.38-.88-16.79-1.55-25.19-2.29s-16.51-1.82-24.78-2.28c2.74-.41,5.49-.84,8.23-1.28a.15.15,0,0,0,.1.07c6.59,1.18,13.57,1.1,20.26,1.58,7.08.51,14.3,1.48,21.4,1.44l.13,0a.32.32,0,0,0,.46.13,88.9,88.9,0,0,0,14.24-12,3,3,0,0,0,2.68-1.55,8.44,8.44,0,0,0,1-2.52c4.95-4.45,9.44-9.33,14.2-14a.37.37,0,0,0,.07.12c8.35,9.88-3.89,21.34-10.84,27.58-6,5.39-12.75,10.56-17.43,17.22l-.15,0a.14.14,0,0,0,0,.27c-.65.95-1.27,1.93-1.83,2.94-.11.2.18.46.34.26.87-1.12,1.78-2.19,2.71-3.25,5.79-.41,11.29-2.38,17-3.51a34.36,34.36,0,0,1,10-.62c2.36.23,4.56.56,6.61-.82a.21.21,0,0,0,.1-.13,26.54,26.54,0,0,0-.91,3.26c-9.18,2.61-18.57,4-28,5.41q-14.82,2.21-29.67,4.24-30.57,4.18-61.24,7.53c-11.32,1.24-22.67,2.32-34,3.67-.14,0-.15.24,0,.23,20.31-1.61,40.56-4.2,60.78-6.68q29.78-3.66,59.47-7.9c10.87-1.56,21.88-2.87,32.48-5.8a42.6,42.6,0,0,0-.7,10c.08,1.69.29,8.75,2,10.56h0q-69.85,9.42-140.06,16c-13,1.2-26.06,2-39,3.52l0-.05a33.42,33.42,0,0,0,2.13-8.84l.65.23a.09.09,0,0,0,.06-.17l-.64-.27c9.34-.44,18.71-1.64,28-2.57q14.3-1.41,28.58-3c18.62-2.12,37.42-4,55.89-7.27.2,0,.15-.38-.05-.36-18.84,2.07-37.6,5-56.43,7.2q-14,1.62-28,3c-9.33,1-18.74,1.49-28,2.67.1-.95.17-1.91.21-2.85a542.65,542.65,0,0,1,81.83-8.17.14.14,0,0,0,0-.28,396.65,396.65,0,0,0-81.82,8c0-.92,0-1.83,0-2.72,0-.53,0-1.07,0-1.63,6.43-.49,12.52-2.62,19-2.64a.2.2,0,0,0,0-.39c-6.42-.72-12.7,2-19,2.69A24.88,24.88,0,0,0,912,601.7c16,.92,32.42-1.57,48.18-3.76,16.8-2.35,33.56-5.12,50.47-6.6.39,0,.39-.63,0-.6-16.19,1.42-32.23,4-48.31,6.3-8.47,1.21-17,2.33-25.48,3.12-8.34.77-16.66.85-25,1.21a10.53,10.53,0,0,0-1-1.63.27.27,0,0,0-.46.27,25.25,25.25,0,0,1,2.22,7.61c-9.64-4.31-19.37-8.35-28.87-13s-19-9.7-28.27-15c-.15-.09-.29.15-.14.24,18.3,10.63,37.48,20.76,57.33,28.18a38.6,38.6,0,0,1,.07,7.9c-15.29-7.87-31.23-14.74-46.89-21.85-.1-.05-.2.11-.09.16,15.53,7.49,31.06,15.36,46.95,22.08-.08.79-.17,1.58-.27,2.36-9.92-4.23-19.87-8.29-29.58-13-10-4.89-19.79-10.23-29.45-15.79,0-.38,0-.76,0-1.13l-.06-2.1a45.53,45.53,0,0,0,8.37,5.07c.16.07.3-.15.14-.24a77.24,77.24,0,0,1-8.52-5.2,23,23,0,0,1,.16-3.53c16.38,9.27,33.16,18.47,50.42,26,.22.1.43-.22.2-.34-16.83-8.74-33.89-17-50.59-26a10.74,10.74,0,0,1,1.6-4.37c.26-.39-.35-.88-.66-.51-2.39,2.84-2.19,6.53-2.1,10,.07,2.79-.25,6.15.3,9.13l-.24-.11c-.12-.06-.24.12-.11.19l.41.21a10,10,0,0,0,1,2.85l-.8-.39c-.27-.13-.5.25-.24.39,18.86,10.49,38.25,20.12,57.46,29.94.48.25.91-.48.43-.73-18.71-9.79-37.38-19.83-56.41-29a.18.18,0,0,0,0-.19,11.93,11.93,0,0,1-.59-2.39c9.15,4.93,18.7,9.26,28,13.86,9.79,4.83,19.53,9.76,29.39,14.44.06,0,.11-.06,0-.09-9.69-5-19.52-9.75-29.29-14.61-9.38-4.66-18.69-9.66-28.24-14a20.94,20.94,0,0,1-.16-2.11,62.34,62.34,0,0,0,5.95,2.7c.14.05.22-.16.1-.23-1.91-1.09-4-1.87-6.06-2.77,0-1.56,0-3.14,0-4.66C863,596,873,601.35,883.12,606.27A297.19,297.19,0,0,0,912.35,619c-.14.94-.29,1.88-.45,2.81a423.15,423.15,0,0,1-49.58-22.58.12.12,0,0,0-.12.2A280.67,280.67,0,0,0,911.86,622c-.38,2.05-.82,4.07-1.27,6a.41.41,0,0,0,.09.4c-.28.14-.26.61.11.6,23.43-1,46.93-3.9,70.26-6.26s46.78-4.95,70.12-7.78q19.75-2.38,39.49-5a.58.58,0,0,0,.52-.76,1,1,0,0,0,.3,0,.25.25,0,0,0,.2-.37,2.19,2.19,0,0,1,1,.5c-.05.56-.09,1.11-.14,1.67.44,1.26.14,1.87-.9,1.85-1.11.57-3.58.41-4.81.55l-9,1-18.08,2-36.77,4q-36.46,4-72.93,8l-19.89,2.21c-6.65.73-13.37,1.15-20,2.26-.33,0-.26.6.08.59,6.85-.34,13.67-1.4,20.49-2.13l9.37-1a.21.21,0,0,0,.18.1c10.77.71,21.66.62,32.45.88s21.64.49,32.46.73,21.34.44,32,.93c10.13.45,21.77.14,31.18,4.38,0,.45.06.89.07,1.34a.53.53,0,0,0,.88.37l1.84,1.44c0,.14,0,.28,0,.42q-58.15-3.27-116.47-2.77a.08.08,0,0,0,0,.15q58.29,0,116.48,3.29c0,.7,0,1.39,0,2.09s0,1.13,0,1.69a4.49,4.49,0,0,1-.07,1.1c0,.94-.58,1.32-1.87,1.17a.52.52,0,0,0-.53-.65c-29.42.63-58.82-.63-88.19-2.35-29.18-1.7-58.36-3.58-87.54-5.38-16.3-1-32.63-2.33-49-2.87a6.37,6.37,0,0,0,1.34-3.14c31.76,1.56,63.53,3.58,95.31,4.8.14,0,.14-.21,0-.22-31.68-2.39-63.53-3.62-95.27-4.94a10,10,0,0,0-.11-2.84c14.11,1.8,28.41,2.55,42.6,3.37s28.44,1.39,42.66,1.84c28.48.92,57,1.34,85.44,2.13,16.24.46,32.47,1.16,48.7,1.87.27,0,.27-.41,0-.42-57.06-3.5-114.31-2.54-171.39-5.65-16.06-.87-32.05-2.4-48.08-3.5-.09-.44-.2-.87-.33-1.3,6.37.25,12.74.36,19.12.53,12.75.35,25.51.84,38.27.86a.22.22,0,0,0,.19-.11q3.46,1.72,7,3.44c.44.21.82-.43.38-.66q-5.55-2.94-11.14-5.78a.42.42,0,0,0-.34-.58l-.9-.06-16.68-8.46c-2.18-1.11-4.39-2.19-6.61-3.27-.37-.48-.72-1-1.07-1.46a.49.49,0,0,0-.84.49l0,.05-2.33-1.14-.32-.32a.47.47,0,0,0-.5-.09l-2.51-1.25-.23-.3a.39.39,0,0,0-.51-.08q-1.57-.79-3.12-1.62l-.1-.12a.38.38,0,0,0-.35-.12c-3-1.64-6-3.38-8.87-5.28-.29-.19-.63.25-.37.47a30.11,30.11,0,0,0,3.32,2.44c.11.85.22,1.69.34,2.54-.35-.93-.7-1.86-1-2.8a.42.42,0,0,0-.82.11v.21a.3.3,0,0,0-.45,0l-.7.89a.34.34,0,0,0-.32.29l0,.15c-.57.73-1.14,1.45-1.72,2.17a.36.36,0,0,0-.22.23l0,.06q-2.5,3.11-5.09,6.16a.38.38,0,0,0-.21-.07c-1.92-.07-3.84,0-5.75.11a15.91,15.91,0,0,0-5,.69c-.14.06-.19.3,0,.34a20.59,20.59,0,0,0,5,0c1.76-.08,3.51-.12,5.27-.21-2.35,2.78-4.7,5.55-7,8.36a.33.33,0,0,0,.28.54c.35,2.35,3.51,2.59,5.63,2.68a7.27,7.27,0,0,1,.26,1.28h0c-.22,0-.2.31,0,.33h0c.14,2.22-.79,4.33-1.81,6.39a.4.4,0,0,0,.63.49l0,0a.38.38,0,0,0,.34.29c29,2.62,58.22,3.76,87.29,5.56,29.29,1.82,58.59,3.83,87.92,4.91,16.38.6,32.77.85,49.16.52a1.76,1.76,0,0,0,2.5.85c1.48-.71,1.45-2.62,1.45-4,0-.87.13-2.09.12-3.29h.12c.44,0,.44-.64,0-.67h-.14a4.27,4.27,0,0,0-.87-2.63,2,2,0,0,0-2.39-.5c-.05-.12-.09-.25-.14-.38a.44.44,0,0,0,.08-.8,32.21,32.21,0,0,0-12.22-3.34c-5.36-.6-10.77-.95-16.16-1.23-11-.57-22.08-.66-33.13-.88-11.22-.22-22.43-.49-33.65-.7-10-.18-20-.67-30-.59l7.32-.77,37.18-4a.19.19,0,0,0,.12.09l3.1.82c.33.09.58-.43.24-.57a6.69,6.69,0,0,0,2.65.7.37.37,0,0,0,.32-.55c.74-.76,1.38-.8,1.93-.13.29.21.59-.15.54-.42-.19-1.2,4.06.31,4.7.32a.37.37,0,0,0,.27-.63c-.09-.1-.17-.21-.25-.31a16.56,16.56,0,0,0,2.56.66.39.39,0,0,0,.37-.64l-.37-.36,3.88,1.06a.39.39,0,0,0,.44-.57l-.38-.65,3.83,1.22a.39.39,0,0,0,.43-.57l-.76-1.07a19.34,19.34,0,0,0,3.31.84.41.41,0,0,0,.39-.67l-.35-.41a31.29,31.29,0,0,1,4.69,1.85c.34.17.81-.2.56-.57a9.1,9.1,0,0,0-.64-.83l3.8,1.54c.43.17.66-.43.42-.71l-1.61-1.83,4.73,1.86c.45.17.71-.52.32-.76a6.59,6.59,0,0,1-2.13-1.95l6.78,2.74c.4.17.7-.43.41-.71l-2.1-2c1.94.67,3.84,1.43,5.72,2.28.41.18,1-.35.53-.69a15.36,15.36,0,0,1-1.94-1.83l5.92,2.32c.43.17.68-.43.42-.72l-1.8-2a33,33,0,0,1,4.24,2c.49.28.85-.41.43-.73a15.73,15.73,0,0,1-2.16-1.93L1049,624c.42.18.87-.3.52-.67l-2.34-2.4a29.81,29.81,0,0,1,5.69,2.88c.46.29.83-.33.54-.7-.67-.83-1.33-1.67-2-2.51a21.31,21.31,0,0,1,5.24,2.33c.44.28.86-.33.53-.69l-2.68-2.94a27.31,27.31,0,0,1,6.11,2.71.43.43,0,0,0,.52-.67l-1.84-1.78q2.68,1.11,5.3,2.4c.43.21.94-.35.55-.71l-2.44-2.23a19.78,19.78,0,0,1,3.69,1.76c.39.24.8-.31.49-.64l-1.59-1.67a13.16,13.16,0,0,1,3.26,1.46c.43.27.8-.31.51-.65s-.77-.9-1.15-1.35l1.31.37c.36.28.87-.21.51-.51a3.69,3.69,0,0,0-2-1l7-.76,1.65-.18a.84.84,0,0,0-.05.17,122.71,122.71,0,0,0-.32,22.19,5.43,5.43,0,0,0-.81-1.59,3.3,3.3,0,0,0-3.9-1.27,173.34,173.34,0,0,0,1.47-17.48c0-.33-.46-.31-.5,0a172.63,172.63,0,0,0-1.51,17.6c-2.45-2.29-5.58-3-8.84-3.38-4.81-.55-9.68-.8-14.51-1.16-10.21-.78-20.44-1.18-30.67-1.51-10-.31-19.94-.46-29.91-.6-5.14-.07-10.27-.08-15.41-.1s-10.3-.46-15.4,0a.09.09,0,0,0,0,.17c4.71.47,9.49.16,14.22.22s9.48.22,14.22.31c9.56.2,19.11.49,28.67.81s19.25.75,28.87,1.28c4.61.26,9.22.5,13.82.84,5,.37,10.43.36,14.53,3.55h0c-.35.29.09.75.45.58,5-2.38,4.13,6.68,3.78,9.08a24.86,24.86,0,0,1-.77,3.82c-.63,2-3.24,4.64-4.57,1.63-.2-.46-.86-.19-.87.24a2.05,2.05,0,0,0,0,.56c-59.49-2-118.93-5.13-178.31-9.13q-25-1.68-49.93-3.64a12.94,12.94,0,0,1,.81-1.46.12.12,0,0,0,.1-.15,12.76,12.76,0,0,1,2.16-2.55.36.36,0,0,0,.42-.36.69.69,0,0,0,.13-.11c.21-.17-.06-.5-.28-.37l-.09.06c-2.14-3.17-4.49-6.18-6.55-9.42a.26.26,0,0,0-.34-.09.33.33,0,0,0-.48.07c-1.93,2.72-1.56,6.56-1.34,9.72a88.81,88.81,0,0,0,1.53,12.05.19.19,0,0,0,.11.15c4.69,6.52,10.13,12.55,15.28,18.71q8.18,9.78,16.38,19.54c.32.38.87-.17.55-.55q-8-9.57-16-19.12c-5.23-6.25-10.27-12.76-15.94-18.63a.24.24,0,0,0,.06-.17c-.1-1.42-.23-2.85-.37-4.26,5.51,6.67,11.21,13.19,16.84,19.75,5.46,6.36,10.77,12.9,16.44,19.08a28.89,28.89,0,0,1-.89,3c-.14.37.48.64.64.27a22.46,22.46,0,0,0,.93-2.56c.12.14.31-.06.19-.2l-.09-.12a27.61,27.61,0,0,0,1-7.77h0c14.06-1,28.06-3,42.14-4s28.19-1.42,42.28-2.27a.13.13,0,0,0,0-.25c-14.28,0-28.64,1.09-42.88,2.16-13.81,1-27.88,1.81-41.56,4.07a66.08,66.08,0,0,0-2.34-14.6.49.49,0,0,0-.1-.19c22.59-.42,45.21-1.87,67.78-3,23.91-1.16,48-2.14,71.77-4.79a.48.48,0,0,0,.35-.22c3.11.15,6.21.3,9.32.43q25.38,1.14,50.78,2h.08a3.08,3.08,0,0,0,2.88.66c2.75-.71,3.34-4.45,3.74-6.75l0-.09a55.6,55.6,0,0,0,7,.66c.47,0,1,.07,1.53.08a27.79,27.79,0,0,0-2.38,6.92c-54,4.49-108,8-162,11.09-15.32.89-30.66,1.58-46,2.67-.26,0-.27.42,0,.41,27.23-1.19,54.44-3.16,81.65-4.78s54.42-3.44,81.6-5.46q22.37-1.65,44.69-3.5a29.15,29.15,0,0,0-.23,9.18,664.87,664.87,0,0,1-70,5.69c-.19,0-.19.31,0,.3a532.65,532.65,0,0,0,70.13-5.49,28.2,28.2,0,0,0,1.15,4.78.44.44,0,0,0,.25.28c-13.17,3.12-26.74,3.08-40.21,3.45q-21.1.57-42.21,1.58-42.48,2-84.87,5.74c-15.6,1.37-31.43,2.33-46.9,4.8-.32,0-.25.59.07.57,14.23-.86,28.43-2.83,42.63-4.1s28.45-2.4,42.7-3.38q42.74-2.94,85.56-4.05c15-.41,30.34,0,44.93-4-.38,1.12-.77,2.23-1.16,3.35a9.76,9.76,0,0,1-2.15.36c-.74.08-1.5.1-2.25.14l-5.37.32c-3.58.21-7.15.4-10.73.59q-11.05.57-22.09,1c-14.34.6-28.67,1.11-43,1.68-28.83,1.14-57.67,2.51-86.38,5.46-7.56.78-15.1,1.65-22.62,2.69-8,1.1-16.35,3.26-24.38,1.38a.11.11,0,0,0,0-.12A131,131,0,0,0,851.34,668c-2.63-3.22-5.35-6.37-8.05-9.53s-5.32-6.83-8.46-9.62a.29.29,0,0,0-.28-.36c-2.46,0-.9-16.17-.82-18,.12-2.66.23-5.31.32-8,0-.64-.28-3.29.11-3.7.8-.82,1.42-.23,2.1.09.21.1.49-.19.27-.36-.78-.62-1.64-2.6-2.81-1.4-.81.83-.35,4.33-.41,5.37q-.19,3.69-.35,7.39c-.2,5-.51,10.07-.72,15.11-.06,1.56-.18,4.47,2,4.13,2,3.12,4.81,5.84,7.23,8.64,2.72,3.15,5.46,6.27,8.15,9.45a195.63,195.63,0,0,1,14.66,19.93l-.55-.13a.2.2,0,0,0-.11.39c6.56,2.26,13.56.75,20.23-.15q12.38-1.67,24.79-3c16-1.67,32.1-2.84,48.18-3.75,31.82-1.82,63.68-2.56,95.52-3.94,9.15-.4,18.3-.83,27.45-1.4,2.13-.13,5.16-.06,6.46-2.14a2.9,2.9,0,0,0-.83-4.13.47.47,0,0,0-.71.24l-1.13.28a.43.43,0,0,0,.08-.39,36.09,36.09,0,0,1-.92-4.7.26.26,0,0,0-.07-.48,33.22,33.22,0,0,1,.22-9.13h.13c.27,0,.27-.45,0-.43h-.06a36.69,36.69,0,0,1,1.91-6.83,3.68,3.68,0,0,0,2.36-.77c1.1-1,1.17-3.29-.55-3.5-.31,0-.32.37-.14.52q.55,3-1.74,2.82h-.6c-.93,0-1.86-.1-2.78-.14a49.46,49.46,0,0,0-5.58,0c.07-.42.15-.87.23-1.33a43.42,43.42,0,0,0,9.78-1c.24-.06.2-.48-.06-.45-2.6.23-5.18.54-7.77.8a.33.33,0,0,0-.07-.32c-.2-.2-.38-.41-.56-.62l.22,0a.4.4,0,0,0,.38-.66,9.2,9.2,0,0,1-.66-1,6.4,6.4,0,0,1,2.07.29c.48.17.65-.5.32-.76a8.53,8.53,0,0,1-1-1l.37.05c.37.08.76-.41.41-.7-.16-.12-.3-.25-.45-.38a.44.44,0,0,0,.16-.57h.2c.49.43,1,.86,1.48,1.27a17.88,17.88,0,0,0,4.43,3.08c.33.12.55-.34.33-.57a47.74,47.74,0,0,0-4.65-3.53c-1.48-1.19-2.85-2.5-4.29-3.73.3-6.45.53-13,.5-19.4a.4.4,0,0,0-.08-.23l9.16-1c2.34-.25,5.63,0,7.72-1.33,3.81-2.35-.47-5.36-3.08-5.86h-.12a35.32,35.32,0,0,1-1-6.62,46.21,46.21,0,0,1-.17-6c.18-4.52,1.38-8.58,2.43-12.91a21.35,21.35,0,0,0,2.09-.7.26.26,0,0,0-.14-.51,145.69,145.69,0,0,1-17.81,2c-5.13.22-10.27.5-15.22,2,.9-.9,1.81-1.79,2.73-2.66a125.25,125.25,0,0,0,28.21-3.28,14.89,14.89,0,0,1,2.39,1.81c.26.24.59-.12.38-.39a10.45,10.45,0,0,0-2-2l0,0a18.15,18.15,0,0,0-5.65-2.68c-4.06-1.24-8-1.93-11.92-3.68a.46.46,0,0,0-.23,0c1.28-1.19,2.56-2.4,3.82-3.64,6.33-6.24,13.09-16.33,6-24.62l-.1-.07.14-.14c.27-.25-.09-.75-.4-.52l-.47.37h0c-3-.66-6.16-.51-9.19-.73l-4.54-.35c-.49,0-2.13,0-3.36,0a2.36,2.36,0,0,0-3.06-.38.36.36,0,0,0-.3-.23,37,37,0,0,1-8.22-1.32c2.26-.85,4.52-1.69,6.78-2.5,2.94-1,6-2,8.86-3.18a8.09,8.09,0,0,0,4-2.91c2.22-3.43,2.07-9,1.53-13l4.26-.39c2.91-.27,5.86-.44,8.76-.8a5.16,5.16,0,0,0,3.24-1.21c1.39-1.43.66-4-1.47-4a.67.67,0,0,0,0,1.33c.12,1.85-.59,2.69-2.14,2.53l-2.4.23-4.2.4-9,.84-16.78,1.58q-15,1.44-30,2.83a.26.26,0,0,0-.28,0l-3.92.37c-11.3,1.06-22.6,2.2-33.91,3.17-10.88.94-21.7,1.08-32.6,1.38.06-.7.11-1.4.13-2.11a.58.58,0,0,0,0-.19c5.22-.74,10.21-.31,15.52,0a95.75,95.75,0,0,0,16.92-.79q16.72-1.85,33.44-3.72c22.68-2.53,45.38-4.93,68.06-7.47.85-.09.86-1.44,0-1.34l-1.33.15c-1.79-4.28-1.3-8.28.57-12.46a.31.31,0,0,0,0-.13c1.52-.21,3-.41,4.56-.63a.5.5,0,0,0,.28-.78l0,0c1.1-1.9-.67-2.53-3.19-2.6a120.33,120.33,0,0,0-26.12-4.14A9.81,9.81,0,0,0,1067,486a1,1,0,0,0,.89.12c1.25-.32,1.13-3.05,1.21-3.84.6-5.61,1.56-13.22-1.42-18.37,2.37-.28,4.73-.53,7.1-.75,6.13-.57,21.44.92,21-9a.59.59,0,0,0-1.17,0,2.28,2.28,0,0,1,0,.26l0,0a4.25,4.25,0,0,0-4.23-.05c-1-8.74-.73-17.29,1.81-25.86A.53.53,0,0,0,1092.11,428.3ZM944,585c-.14.17-.27.36-.36.37a7.5,7.5,0,0,1-1.37-.52Zm-3.4-.29a.41.41,0,0,0,0,.22c0,.26.09.44.12.59-.38-.29-.77-.62-1.18-.9Zm-3.41-.29a1.26,1.26,0,0,0-.43.63c-.46-.28-.92-.54-1.39-.78Zm-4.73-.4c.19.43.37.87.56,1.3a20.43,20.43,0,0,0-3.79-1.57h-.05Zm-3.37-.29a.46.46,0,0,0-.43.58l.21.52-2.51-1.33Zm-4.47-.37a.44.44,0,0,0,.07.21c.25.42.5.84.76,1.26l-3.39-1.64a.46.46,0,0,0-.62.63c.15.31.3.63.46.94a23.17,23.17,0,0,0-3.69-2Zm-8.68-.74,1.86.16a.47.47,0,0,0-.22.65l1,1.44-3.51-2.09c-.36-.21-.86.23-.6.61l.65.94-3.52-2.08Zm-4.9-.41a.38.38,0,0,0-.14.56l1.1,1.5-4.11-2.33Zm-4.35-.37a.42.42,0,0,0,.09.38l1.11,1.31a31.35,31.35,0,0,0-3.36-1.87Zm-3-.25a.37.37,0,0,0-.06.47l1.05,1.81-3.78-2.52Zm-4.07-.35a.32.32,0,0,0,.06.23l1.94,2.59L897,581Zm-3.56-.3a.4.4,0,0,0,0,.37,11.93,11.93,0,0,0,1,1.72l-2.94-1.89c-.3-.19-.73.21-.51.52l1.23,1.76-4-2.75c-.33-.21-.68.21-.51.51l.95,1.74-4.12-2.73Zm-13.56-1.14,4.18.35a.36.36,0,0,0-.12.47l.78,1.27a22.34,22.34,0,0,0-2.92-1.75.38.38,0,0,0-.51.51c.21.45.44.87.67,1.29l-1.79-1.43a.41.41,0,0,0-.41-.06A1.26,1.26,0,0,0,882.54,579.79Zm-.35,1a.3.3,0,0,0,0,.14c.16.3.33.6.49.91a8,8,0,0,0-.91-.75A1.35,1.35,0,0,0,882.19,580.82Zm-9.77-1.89,7.9.67a1,1,0,0,0,.06.41.05.05,0,0,0,0,0,.79.79,0,0,0,0,.23c-.33-.22-.68-.43-1-.64s-.57.17-.45.45l.21.49-1.12-.79c-.25-.18-.55.12-.49.38a3.69,3.69,0,0,0,.18.56l-2.51-1.13c-.37-.15-.7.37-.32.56s.52.26.79.38c-1.38-.58-2.76-1.14-4.15-1.69Zm-7.25-26.87s0,0,0,.06c-.27.67-.54,1.35-.8,2,0-.61,0-1.22,0-1.83Zm-2.45.65.53-.13c-.24.48-.52,1-.69,1.32A9.6,9.6,0,0,0,862.72,552.71Zm-2,.42.76-.14c-.27.48-.53,1-.79,1.46Q860.69,553.8,860.69,553.13Zm-2.41.43v0l.91-.14-1.11,1.05C858.15,554.14,858.21,553.85,858.28,553.56Zm-1.86.23,1-.14c-.29.42-.68.93-1,.92S856.29,554.2,856.42,553.79Zm-6.8.82c1.64-.21,3.36-.4,5.09-.61a6.68,6.68,0,0,0-.5.73c-.15.25.23.47.39.23a9.22,9.22,0,0,1,.77-1l.34,0a8.2,8.2,0,0,1-.39,1.6.33.33,0,0,0,.48.37,9.18,9.18,0,0,0,1.57-1.23c-.06.23-.11.47-.16.7a.33.33,0,0,0,.55.32c1.57-1.49,2.62-3.45,2.1.31-.05.33.4.6.6.25.5-.93,1-1.86,1.51-2.79-.05.56-.09,1.13-.14,1.69,0,.34.43.4.59.16a25.88,25.88,0,0,0,1.44-2.45c.07,0-.46,4.12-.35,3.42a.32.32,0,0,0,.62.17l1.17-2.84a18.07,18.07,0,0,1,.08,2.21c0,.34.52.53.68.19a17.36,17.36,0,0,0,.86-2.3l.42,2.43c.06.38.67.36.75,0,.2-.94.4-1.88.59-2.83a19.42,19.42,0,0,1,1,2.93.41.41,0,0,0,.79,0,7.45,7.45,0,0,0,.39-1.69c.64,1,1.28,2,1.91,3a.43.43,0,0,0,.78-.33l-.3-2.26c.44.64.89,1.28,1.33,1.93a.44.44,0,0,0,.79-.34c-.09-.47-.17-1-.26-1.42l1.88,2.1c.32.36.8,0,.74-.43l-.3-1.78c.52.57,1.05,1.13,1.57,1.69a.46.46,0,0,0,.77-.32c0-.34-.09-.64-.15-.94l1.8,1.57a.46.46,0,0,0,.77-.45l-.09-.43,1.68,1.37a.48.48,0,0,0,.79-.21c-.1.33,2,1.07,2.39,1.08a.49.49,0,0,0,.48-.48v-.15c.79.45,1.64.44,2.68,1a.48.48,0,0,0,.63-.17l.77-.22a.49.49,0,0,0,.68-.46l9.06,2.28,5.27,1.32c-12-.72-24.11-1.1-36.15-1.85-6.62-.4-13.26-.82-19.88-1.29-6-.44-12-1.53-18-1.77C838.2,556.26,844,555.36,849.62,554.61Zm16-2.7c.4-.13.8-.26,1.19-.41l.09,0a.33.33,0,0,0-.31.26A19,19,0,0,1,866,554c0-.63-.12-1.26-.22-1.91A.26.26,0,0,0,865.66,551.91Zm1.56-.32,1,.25a.31.31,0,0,0-.07.14c-.14.67-.28,1.34-.43,2-.13-.74-.27-1.47-.41-2.21A.29.29,0,0,0,867.22,551.59Zm5.27,3.91c-.54-.82-1.08-1.64-1.61-2.47a.4.4,0,0,0-.75.2,5.5,5.5,0,0,1-.07,1.47,23.85,23.85,0,0,0-1.13-2.68l3.53.89a.32.32,0,0,0-.26.37C872.3,554,872.39,554.76,872.49,555.5Zm1.53-1.72.18,1L873,553.07s0,0,0,0l1.26.31A.49.49,0,0,0,874,553.78Zm.84-.27,1.51.39c.09.52.17,1,.26,1.56Zm8.07,2,3.53.89a.78.78,0,0,0,0,.16c0,1.21-.88-.57-1.85-.43a1.08,1.08,0,0,0-.61.23Zm4.72,1.19,2.53.64A2.82,2.82,0,0,1,887.65,556.74Zm-13,5.66-21.72-.84c-7.36-.28-14.73-1-22.09-1.07a6.63,6.63,0,0,1-.75-1.94,5.85,5.85,0,0,1,0-1.51c6.26,1.23,12.89,1.19,19.24,1.77,6.82.62,13.64,1.27,20.48,1.79,13.63,1,27.35,2.15,41,2.34a.51.51,0,0,0,.49-.26l5.21,1.3C902.55,563.23,888.58,563,874.63,562.4Zm92,10.48h-.07a.25.25,0,0,0-.16.37,2.61,2.61,0,0,0-.28,1.44,4.21,4.21,0,0,0,.09.49c-3.52-2.4-8.62-2.59-12.66-3.42q-8.14-1.68-16.27-3.54c-8.75-2-17.45-4.14-26.15-6.34a.62.62,0,0,0-.35-.14l-.3,0-7.3-1.85-24-6.12-.13-.11a.43.43,0,0,0-.54-.06l-8.87-2.26-1.86-.48a.28.28,0,0,0-.33-.27l-.52,0c-10.29-2.7-20.66-5.85-31.1-7.71a.35.35,0,0,0,0-.25c-.39-.71-.62-1.82.14-2.33l.08,0c10.62,3.32,21.53,5.8,32.29,8.56,11,2.82,22,5.7,33,8.39,10.82,2.65,21.68,5.09,32.52,7.68s21.91,5.64,33,7.7A1,1,0,0,0,966.64,572.88Zm-86.89,45.36,3,1.54a.47.47,0,0,0-.17.52c0,.06,0,.11,0,.17-1.07-.77-2.12-1.56-3.16-2.37Zm-7-3.54c.09.24.18.48.26.71l-1.2-1.18Zm-3.87-2c.14.44.27.89.41,1.33l-1.51-1.89Zm-4-2,.78.4c.23.69.45,1.39.68,2.08-.7-1-1.43-1.93-2.2-2.85Zm-3-1.5c.21.88.43,1.75.64,2.63-.68-1.12-1.36-2.23-2-3.35Zm-2.71-1.43a.48.48,0,0,0,0,.17l.51,3.14-2.1-4.22C858.2,607.19,858.73,607.5,859.26,607.79Zm-4.39-1.15,0,2.83c-.22-.67-.44-1.33-.65-2ZM853.08,609l-.45,2.51a7.21,7.21,0,0,1-.41-1.37ZM851,611.8c-.08.45-.14.9-.18,1.38s.56.42.6.08a17.29,17.29,0,0,1,.37-1.9,11.46,11.46,0,0,0,.71,1.64.41.41,0,0,0,.74-.1c.23-1.26.46-2.52.7-3.78.34,1,.68,2.11,1,3.17a.42.42,0,0,0,.82-.11c0-1.29,0-2.59,0-3.88.51,1.37,1,2.74,1.52,4.1.15.41.88.39.82-.11l-.51-3.77q1.38,2.76,2.73,5.53c.23.47.86.11.79-.33-.2-1.25-.41-2.51-.61-3.76l2.88,4.77a.44.44,0,0,0,.8-.34l-.93-3.82a55.54,55.54,0,0,1,4.19,5.69c.27.41,1,.16.83-.35l-1-2.94,2.87,3.63c.3.38.91,0,.78-.46-.21-.7-.42-1.41-.64-2.12l3.42,3.41a.48.48,0,0,0,.8-.47c-.07-.29-.16-.58-.24-.87a33.84,33.84,0,0,0,2.59,2.78.5.5,0,0,0,.78-.6l-.23-.54c1.82,1.48,3.68,2.9,5.6,4.25.34.25.73-.09.76-.44s0-.4,0-.53l1.52.73a.53.53,0,0,0,.95-.17l8.63,4.39c-8.66-.55-17.35-.75-26-1-9.59-.26-19.27-.7-28.87-.27A158.83,158.83,0,0,0,851,611.8Zm-6.29,16-.12-.32a.2.2,0,1,0-.36.15l.06.16c-2.12-.06-4.35-.45-5-2.34l.37-.39c9.73.57,19.52.43,29.26.72,9.31.27,18.62.8,27.93,1.11l4.93,2.48c-10.37-.52-20.76-.71-31.15-1L855.06,628l-7.78-.2C846.58,627.79,845.65,627.84,844.68,627.83ZM991,625.46l-1.42-.27L991,625A1.37,1.37,0,0,0,991,625.46Zm3,.13a5.69,5.69,0,0,1-1.58-.7l2.1-.23C994.11,625.08,993.8,625.61,993.92,625.59Zm5.8-1.49.89-.1a.36.36,0,0,0,0,.09c.13.15.25.31.37.47C1000.64,624.42,1000.19,624.25,999.72,624.1Zm2.26-.24,1-.11,0,.06.49.49A15.22,15.22,0,0,1,1002,623.86Zm2.82-.3,2.55-.28a.39.39,0,0,0,0,.38l.41.7Zm3.32-.36,2.43-.26a.44.44,0,0,0,.05.15c.28.39.56.77.83,1.16Zm3.68-.39,2.05-.22a.44.44,0,0,0,.08.42l.46.56A20.13,20.13,0,0,1,1011.8,622.81Zm6.29-.55c-.47-.19-.69.51-.33.76a6.42,6.42,0,0,1,1.08.85,32.75,32.75,0,0,0-4-1.39l5.88-.63a.47.47,0,0,0,.1.34l1.58,1.81Zm3.77-.53,2.32-.25a7.85,7.85,0,0,0,1,1.57Zm4-.43,2.65-.28a.4.4,0,0,0,.12.35l1.89,1.81Zm3.92-.42,3.47-.37a.42.42,0,0,0-.09.54,17.91,17.91,0,0,0,1.3,1.56Q1032.11,621.67,1029.74,620.88Zm8.32-.83c-.43-.14-.69.42-.42.72.58.63,1.16,1.27,1.73,1.91l-5.64-2.22,6.32-.68a.47.47,0,0,0,.07.17c.38.49.78.95,1.19,1.4A31.9,31.9,0,0,0,1038.06,620.05Zm16.79.89a21.74,21.74,0,0,0-4.48-1.54.45.45,0,0,0-.44.74l1.35,1.7a30.46,30.46,0,0,0-5.58-2.34.44.44,0,0,0-.42.73l2.08,2.12-6.07-2.7,11.54-1.24a.42.42,0,0,0,.1.39Zm-.83-2.66,3.16-.33a.45.45,0,0,0-.09.69l1.25,1.2A28.83,28.83,0,0,0,1054,618.28Zm10.14-.93a.41.41,0,0,0-.39.68l.84.89a19.74,19.74,0,0,0-3.44-1.24.42.42,0,0,0-.4.7l1.68,1.58c-1.62-.73-3.26-1.42-4.93-2.05l9-1a.41.41,0,0,0,0,.53l.64.77A14.28,14.28,0,0,0,1064.16,617.35ZM907.88,644.92a2.69,2.69,0,0,1-2.2-.15Zm-3.22-.22a.64.64,0,0,0-.09.41c0,.16,0,.33.08.5a4.67,4.67,0,0,0-1.49-.3c-2.06-.18.73.45-1.86.05-1-.16-2-.75-3.07-.9-.35-.05-.76.21-.62.62l.24.7A20.37,20.37,0,0,0,894,644.2a.51.51,0,0,0-.64.48c0,.14,0,.26,0,.36l-2.2-1.23Q897.93,644.28,904.66,644.7Zm-15.35-1a.39.39,0,0,0,.06.17l.16.29a9.46,9.46,0,0,0-1.12-.52Zm-4-.28a.63.63,0,0,0,0,.31l.93,2.06-4.12-2.11c-.39-.2-1,.24-.66.67l.58.82-3.35-2.07a.48.48,0,0,0-.65.65l1.17,1.84-3.65-2.27c-.33-.2-.84.14-.69.53s.22.52.33.77c-1.12-.72-2.28-1.4-3.47-2.05-.37-.2-.88.23-.61.62s.49.69.74,1c-1-.65-2.1-1.26-3.2-1.84-.37-.19-.9.23-.62.63l1.41,2-4-3Q875.4,642.71,885.29,643.4Zm-20.9-1.49a.41.41,0,0,0,0,.34c.58,1,1.18,1.9,1.77,2.85a44.53,44.53,0,0,0-4.81-3.31.42.42,0,0,0-.51.66,28.14,28.14,0,0,1,2.06,2.5,27.49,27.49,0,0,0-4.58-3,.39.39,0,0,0-.47.61c.34.44.69.87,1,1.3q-1.33-1.22-2.61-2.52Zm-28.28-14c1.66,2.05,3.38,4.1,5.17,6,.12.12.29-.06.19-.19-1.69-2.09-3.5-4.12-5.33-6.1.12-.8.27-1.6.46-2.39a36.07,36.07,0,0,0,6.23,9.3,10.06,10.06,0,0,0-2.24,2.06,29.68,29.68,0,0,0-4.78-5.34A31.9,31.9,0,0,1,836.11,627.89Zm34,41.57c-8.52-9.86-17.49-19.38-26.5-28.79-.12-.13-.3.06-.19.18,9,9.64,17.82,19.47,26.75,29.19a40.18,40.18,0,0,1,.21,4.25,182.54,182.54,0,0,0-16.9-19.81c0-.06-.13,0-.08.08,5.56,6.81,11.26,13.56,17,20.23,0,.8-.06,1.59-.14,2.39-10.28-12-20.77-23.75-31.28-35.52-.09-.09-.23.05-.14.15,10.37,12,20.77,24.07,31.37,35.9-.11.95-.26,1.9-.46,2.85-5.23-6.46-10.84-12.63-16.27-18.92-5.68-6.59-11.31-13.24-17.12-19.71a82.63,82.63,0,0,1-.59-10.4c1.63,1.73,3.08,3.54,4.57,5.37a11.38,11.38,0,0,0-1.31,2.3c-.91-1-1.82-2.07-2.72-3.11a.05.05,0,0,0-.08.06,98.7,98.7,0,0,0,14.36,16.39.18.18,0,0,0,.26-.26c-3.73-4-7.4-8.09-11-12.19l9.15.69v0c4.92,6.08,9.7,12.36,14.86,18.23a.13.13,0,0,0,.21-.16,138.68,138.68,0,0,0-14.48-18l4.57.33a.41.41,0,0,0-.08.63,146.19,146.19,0,0,1,12.66,14.57h0a8.82,8.82,0,0,1-.27,1.26,4.27,4.27,0,0,1-.24.53l-.77.06c-.23,0-.24.38,0,.37H866a4.11,4.11,0,0,1-.48.62.16.16,0,0,0,.23.23,4.41,4.41,0,0,0,.8-.86l1.8,0a.42.42,0,0,0-.12.41A94,94,0,0,1,870.16,669.46Zm66.63-15c-23.3,1.15-46.68,1.8-69.93,3.63a2.85,2.85,0,0,0,.38-2,.22.22,0,0,0-.33-.13,128,128,0,0,0-12.24-14.76h0l.89.07a52.43,52.43,0,0,0,5.68,5.47c.28.24.83-.08.56-.43a.35.35,0,0,1,0-.08h0c-.67-.88-1.35-1.75-2-2.62a26.57,26.57,0,0,1,5,4,.41.41,0,0,0,.64-.5,28.39,28.39,0,0,0-2-3.15,44.57,44.57,0,0,1,4.43,3.48c.36.33,1-.09.69-.53l-1.92-3.11,4.8,3.68c.36.27.88-.26.62-.62-.64-.94-1.29-1.87-1.94-2.8a45,45,0,0,1,4.53,3c.42.32.92-.36.56-.72-.64-.63-1.24-1.29-1.81-2,1.37.81,2.68,1.69,4,2.62.21.17.42.32.66.48.51.33.93-.45.47-.8l-1-.67a5.58,5.58,0,0,1-1-1.11l4.08,2.55a.48.48,0,0,0,.66-.65L880,645l3.61,2.24c.4.25.95-.26.67-.66s-.55-.77-.83-1.16l3.6,1.85a.5.5,0,0,0,.67-.68c-.37-.83-.75-1.67-1.13-2.5a8.33,8.33,0,0,1,4.16,2.14.5.5,0,0,0,.78-.6l-.41-.73,2.9,1.62a.5.5,0,0,0,.68-.69l-.09-.38a18.79,18.79,0,0,1,3.91,1.89.51.51,0,0,0,.74-.57l-.4-1.17a9.47,9.47,0,0,1,2.82,1.17.49.49,0,0,0,.51,0l2.77.2a.51.51,0,0,0,.84-.49l-.09-.63a6,6,0,0,0,2.62.24c1.27,0,2.49.46,3.88.3.64-.08.65-1.09,0-1a4.07,4.07,0,0,1-2.82-.36q46.62,3,93.29,5.23C980.71,651.87,958.78,653.41,936.79,654.49Zm140-11.82-.37-.06h-.07c0-.18,0-.36,0-.55C1076.54,642.26,1076.67,642.47,1076.8,642.67Zm-.53.8a1.85,1.85,0,0,0,.14.14.26.26,0,0,0-.06.46,6.28,6.28,0,0,0,.84.51l-1.09.11C1076.16,644.29,1076.22,643.89,1076.27,643.47Zm1.27-6.25,0,0c-.42-.21-.88.32-.52.67l.42.45c-.31.05-.53.49-.24.71s.42.36.62.54l-.14,0c-.38-.06-.73.39-.4.7s.61.63.91,1c-.54,0-1.08,0-1.64-.06h-.08a10.91,10.91,0,0,0-.13-1.82.17.17,0,0,0,.16-.17c0-1,.1-1.95.14-2.93C1076.9,636.55,1077.22,636.89,1077.54,637.22Zm.8-53.71c4.12-.16,8.63-.18,12.75-1.16q-.42.95-.78,1.95a.24.24,0,0,0-.36-.26c-2.78,1.66-5.93.57-9,.52a35.82,35.82,0,0,0-7.51.8c-5.53,1.1-10.87,2.82-16.45,3.63,1.08-1.22,2.2-2.4,3.33-3.56a.27.27,0,0,0,.16,0A95.21,95.21,0,0,1,1078.34,583.51Zm-14.3-1.69,1.06-1a3.21,3.21,0,0,0,1.14.84C1065.5,581.72,1064.78,581.78,1064,581.82Zm2.34-1.49a3.42,3.42,0,0,0,.33.84,2.62,2.62,0,0,1-1.27-.65c2.47-2.31,5-4.58,7.5-6.88a.48.48,0,0,0,.07.2c.13.21.27.41.41.62l-.47,0a.47.47,0,0,0-.33.79l1.48,1.45-2.64-.65c-.3-.07-.71.22-.56.57a5.84,5.84,0,0,0,.56,1.06l-2-.53a.46.46,0,0,0-.44.76l.8.9a3.76,3.76,0,0,0-1.71.34.45.45,0,0,0-.2.74l.13.18-1.1-.29A.42.42,0,0,0,1066.38,580.33Zm10.47-6.56c4.54,2.18,9.81,2.36,14.27,4.74-7.74,1.2-15.4,2.37-23.18,3a.37.37,0,0,0-.1-.23c-.07-.14-.15-.28-.23-.42l1.32.36a.45.45,0,0,0,.5-.65,6.73,6.73,0,0,0-.46-.77,3.46,3.46,0,0,1,2,.2c.45.19.7-.45.44-.75l-.75-.84,2.24.59a.46.46,0,0,0,.35-.84l-.73-.9,3,.75a.47.47,0,0,0,.45-.78l-1.47-1.44a.48.48,0,0,0,.47-.7l-.78-1.19a4.69,4.69,0,0,1,2.06.25A.5.5,0,0,0,1076.85,573.77Zm-1.61-.89a.56.56,0,0,0-.07.16,7.19,7.19,0,0,0-1.66.08l1-1a.3.3,0,0,0,.13.36C1074.86,572.65,1075.05,572.76,1075.24,572.88Zm-146.57-75c.7,1.51.24,1.07-.9.45l-.84-.5Zm-4.64-.12,1.22,0c.4.71.83,1.51.61,1.72a20.27,20.27,0,0,1-3.4-1.79Zm-2.61-.06c.71,1,2.78,2.89.65,1.76-1-.54-2-1.17-3-1.81Zm-3.77-.08c.7,1,1.92,2.79,2,2.77-.28.21-4-2.3-4.83-2.83Zm.68,2.72-1.61-.35c-.66-.73-2.51-2.36-.38-.85A19.81,19.81,0,0,0,918.33,500.37Zm-4-2.79a.32.32,0,0,0,0,.39l1.12,1.37-.14,0a20.7,20.7,0,0,1-3.38-1.79Zm.27,2-1.17-.26-.47-.53H913A14.46,14.46,0,0,1,914.57,499.55Zm-3.13-2a.3.3,0,0,0,0,.41c.41.47,1.35,1,1.3,1.21l-2.55-.57c-.68-.35-1.34-.74-1.88-1-.23-.1-.43.22-.2.35l.59.3-3.25-.74a.23.23,0,0,0-.13.45q3.47,1,7,1.87l1.31.47a.24.24,0,0,0,.26-.06,384.16,384.16,0,0,0,42.08,8.6.43.43,0,0,0,.38-.15,5.46,5.46,0,0,0-.13.89l-.06.89c-10.84-2.34-21.69-4.63-32.57-6.79-10.52-2.09-21-4.68-31.6-6.47Q901.7,497.32,911.44,497.52Zm-24.44-.4,2.89,0c-3.16,4.22-3.56,10.8,0,14.95.21.25.55-.06.43-.33h0c5.21,1.87,11.07,2.52,16.49,3.64q7.68,1.58,15.36,3.18,15.93,3.38,31.91,6.6a.51.51,0,0,0,.54-.22l.23,0h0c0,.5,0,1-.05,1.48-21.45-3.5-42.58-9.09-64.08-12.28a.31.31,0,0,0-.29-.29c-6.89-.67-7.08-12.18-3.48-16.44A.28.28,0,0,0,887,497.12Zm-2.84,0c-.07.26-.14.53-.22.8,0-.27,0-.54-.05-.8Zm-1.83,0h.42l-.81,3c0-1-.06-2-.13-3Zm-1.89,0c-.32,1.32-.64,2.65-1,4-.11-1.33-.21-2.66-.31-4ZM878,497c-.31,1.37-.62,2.75-.92,4.13-.23-1.39-.48-2.76-.77-4.14Zm-2.66,0c-.26,1.44-.57,2.85-1,4.26-.22-1.43-.49-2.85-.81-4.27Zm-2.83,0-.81,3.57c-.17-1.19-.35-2.38-.52-3.57Zm-2.26,0c-.25,1.22-.51,2.45-.76,3.67-.21-1.22-.41-2.44-.62-3.67Zm-8.25.22a.39.39,0,0,0,.26-.22H868l-.64,3.16a14.85,14.85,0,0,0-.89-2.77c-.18-.41-.7-.14-.74.2-.08.75-.17,1.5-.25,2.25a17.08,17.08,0,0,0-.88-2.58.42.42,0,0,0-.76.09c-.19,1.07-.35,2.13-.47,3.19l-.42-2.21c-.07-.36-.7-.38-.75,0-.13,1-.27,2-.4,3a19.19,19.19,0,0,0-.67-2.34.38.38,0,0,0-.72,0l-.33,1.55a20,20,0,0,0-.43-2.49.31.31,0,0,0-.07-.14Zm-3.09.82c-.3,1.2-.61,2.4-.91,3.6l-.65-2.18a.42.42,0,0,0-.8,0c-.12.49-.23,1-.35,1.47a5.38,5.38,0,0,0-1-1.43.42.42,0,0,0-.69.19,6.78,6.78,0,0,1-.39,1.85,8.25,8.25,0,0,0-.84-1.72.42.42,0,0,0-.71,0,6.75,6.75,0,0,0-1,1.78l-.71-1.24a.4.4,0,0,0-.67,0c-.62,1-1.07,1.07-1.56.05C852.11,499.65,855.55,498.91,858.94,498Zm-14.37,3.29,2.69-.61-.06,1.2c0,.3.41.33.5.07.53-1.47,1-.06,1.53.56a.37.37,0,0,0,.58-.07c.8-1.25.87-1,1.57.28a.41.41,0,0,0,.73-.09,4.87,4.87,0,0,1,.83-1.95,5.3,5.3,0,0,1,.74,2.15.41.41,0,0,0,.75.1,10.28,10.28,0,0,0,.66-1.76l.68,1.77a.41.41,0,0,0,.81.11l.45-1.91c.21.7.42,1.4.64,2.09a.41.41,0,0,0,.78,0c.28-1.13.56-2.26.83-3.39a16.43,16.43,0,0,1,.21,3.59.37.37,0,0,0,.73.1l.66-3.06a17.31,17.31,0,0,1,.58,3.55c0,.4.68.55.74.1.16-1.11.31-2.22.47-3.33.17.91.34,1.81.5,2.72.09.46.76.32.79-.11.09-1.49.25-3,.48-4.43a15.09,15.09,0,0,1,.75,3.77.41.41,0,0,0,.81,0c.12-1.17.25-2.34.38-3.51a12.49,12.49,0,0,1,.56,3.2c0,.41.68.56.78.1.24-1.16.48-2.32.71-3.49l.66,3.9a.41.41,0,0,0,.79,0l.81-3.86.57,3.78c0,.4.69.37.78,0l1-4.5c.34,1.6.61,3.19.81,4.82a.41.41,0,0,0,.8.11c.46-1.49.85-3,1.18-4.48.29,1.56.54,3.13.73,4.71.06.45.75.65.87.12.34-1.46.67-2.91,1-4.37.13,1.53.25,3.05.37,4.58,0,.48.76.64.88.12.43-1.76.86-3.53,1.28-5.29.07,1.67.07,3.33,0,5a.47.47,0,0,0,.92.13c.39-1.44.79-2.88,1.17-4.32a18.08,18.08,0,0,1-.52,3.82c-.14.59.78.85.93.25.42-1.73.88-3.45,1.27-5.18a.41.41,0,0,0,.42-.38,1.21,1.21,0,0,0-.14-1l1.42,0c-2.64,2.44-3.5,8.74-1.92,13.05-9.6-.75-19.21-1.49-28.79-2.43-8.78-.87-17.67-2.38-26.5-2.94C834.39,503.86,839.49,502.52,844.57,501.33Zm-18.19,7.11a.3.3,0,0,0-.29-.39c-.89,0-1-1.16-.59-1.72s.94-.76,1.33-1.22a.26.26,0,0,0,.2.05l.12,0c9.13,1.91,18.76,2.44,28,3.41,10,1.05,19.9,2,29.87,2.74a5.32,5.32,0,0,0,5.15,3.2.22.22,0,0,0,.18.15l2.37.57c-10.29-1.68-20.74-2.81-31.09-3.86q-8.88-.9-17.78-1.67C838.09,509.18,832.18,508.4,826.38,508.44ZM829.47,521l.1,0c9.67,1.27,19.46,1.82,29.16,3s19.38,2.48,29.08,3.65a.1.1,0,0,0,0-.2c-9.47-1.44-19-2.54-28.52-3.62-9.87-1.13-19.82-2.64-29.73-3.2a18,18,0,0,0,.47-1.89,207.23,207.23,0,0,1,37.36,4.9.14.14,0,0,0,.07-.27,163.61,163.61,0,0,0-37.38-4.88,17.07,17.07,0,0,0,.23-2.14c49.67,6.56,99.56,11.63,149.34,17.26,14.19,1.61,28.37,3.35,42.58,4.82a.17.17,0,0,0,0,.07c-.25.16-.49.33-.73.51,0,0,0,.13,0,.12l.66,0a9.52,9.52,0,0,0,1.4,6.32c-51.51-4.51-102.87-11.27-154.17-17.71-13.5-1.69-27.07-3.87-40.64-5C829.05,522.1,829.27,521.53,829.47,521Zm192.77,17.67,0,.42a3.86,3.86,0,0,1-.49-.06A6,6,0,0,0,1022.24,538.62Zm-55.93,31a.05.05,0,0,1,0,0c-21.35-5.09-42.74-10-64.08-15.16-10.4-2.51-20.72-5.36-31.08-8S850.37,540.5,839.9,538a13.25,13.25,0,0,0,.83-3c6.81,2.9,14.42,2.83,21.19,5.91.14.07.26-.14.12-.21-6.66-3.26-14.34-3.41-21.28-5.92a13.65,13.65,0,0,0,.08-3.13c13,4.21,26.16,8.26,39.4,11.72a.11.11,0,0,0,.06-.22c-13.19-3.89-26.38-7.68-39.5-11.78a11.74,11.74,0,0,0-.7-2.92.3.3,0,0,0-.07-.11l6.41.76,6.78.81a.18.18,0,0,0,0,.33c19,5,38.34,9.05,57.47,13.67s38.07,9.25,57.09,13.88a.41.41,0,0,0,.18.24A13.39,13.39,0,0,0,966.31,569.57Zm-72-34.35a9.09,9.09,0,0,0-5,.1,134.5,134.5,0,0,0-18.08-3.17c-.12,0-.14.18,0,.21,7.95,2.19,16.31,3.29,24.37,5s16.2,3.65,24.27,5.61c15.93,3.88,31.83,8.27,47.91,11.49a8.86,8.86,0,0,0,0,2.72q-28.29-7.43-56.77-14.16c-18.92-4.51-37.92-9.31-57-13l35.89,4.28,6.35.76a.23.23,0,0,0,0,.16C897.25,537.4,895.31,535.5,894.29,535.22Zm1.88,1.6-1-.21c-1.57-.33-3.14-.68-4.73-1A7.2,7.2,0,0,1,896.17,536.82Zm3.84.59c.17.16.54,0,.43-.25-.18-.48-.63-1.4-.48-1.46.32-.12,2.85,2.24,3.2,2.52.16.12.5,0,.4-.24-.38-.9-.92-1.2-.1-1,.58.16,1.67,1.35,2.09,1.69.18.15.55,0,.44-.25-.18-.46-.67-1.68-.66-1.69.22-.1,2.51,2.28,2.68,2.43s.45,0,.42-.17a17,17,0,0,0-.39-1.85c.54.66,2.44,2.38,2.67,2.61a.27.27,0,0,0,.45-.26c-.16-.83-.46-2.09-.85-2.34.82.52,2.11,2.18,3.08,2.93.19.15.57,0,.46-.27-.36-1-1.39-2-.25-1.66.92.24,2.2,1.7,3,2.29.2.15.5-.11.43-.33a7.34,7.34,0,0,1-.47-1.57c.38-.18,2.44,2.18,2.69,2.46a.29.29,0,0,0,.49-.28,11.49,11.49,0,0,1-.62-2.08,21.45,21.45,0,0,1,2.61,2.05.27.27,0,0,0,.44-.26c-.33-1.34-.82-1.54.39-1.08a16.67,16.67,0,0,1,3.16,2.3c.22.16.47-.14.35-.35-.34-.64-.57-1-.71-1.28a2.19,2.19,0,0,0,.53.56,23.72,23.72,0,0,0,2.2,1.43.27.27,0,0,0,.36-.36c-.34-.75-1.63-2.14-.65-1.78a13.15,13.15,0,0,1,2.71,2.1c.22.17.6,0,.51-.3s-.45-1.08-.73-1.7a29.91,29.91,0,0,0,2.32,2.19.31.31,0,0,0,.51-.3c-.29-1-1.11-1.69-.19-1.36s1.91,1.55,2.65,2.14c.22.18.69,0,.55-.32l-.77-1.85c-.15-.21,0-.15.34.17.75-.14,2.61,2.08,3.2,2.69.22.22.7,0,.56-.33-.21-.53-.43-1.07-.65-1.6l2.89,2.36c.23.19.7,0,.57-.34l-.42-1.19c-.2-.47-.2-.52,0-.15.35-.13,2.54,1.72,2.8,1.9a.36.36,0,0,0,.52-.4c-.14-.5-.29-1-.43-1.49l2.69,2.08a.36.36,0,0,0,.6-.35c-.22-.78-.43-1.56-.64-2.34a11.89,11.89,0,0,1,3.34,2.66.37.37,0,0,0,.62-.35l-.44-1.42,2.7,1.75a.39.39,0,0,0,.56-.43l-.21-.86,2.64,1.62a.39.39,0,0,0,.58-.34c-.28-1.31.23-1.39,1.53-.21a.41.41,0,0,0,.62-.08c1-1.34,1.77-1,3.22-.55a.37.37,0,0,0,.45-.22l13.12,1.57c11.69,1.4,23.38,2.93,35.08,4.32-7.08,1.08-14.17,2-21.29,2.86q-5.62.64-11.27,1.16c-3.26.31-6.89.23-10.08,1.13a1.77,1.77,0,0,0-.06-.17.29.29,0,0,0-.5,0,.56.56,0,0,0,0,.12c-15.92-4.66-32.24-8.3-48.39-12.05q-11.16-2.6-22.37-5c0-.38,0-1.58-.16-1.4C897.43,535.16,899.92,537.33,900,537.41Zm-2.6-2.2,1.85.23a8.07,8.07,0,0,1,.34.82l-.27-.1A14.86,14.86,0,0,1,897.41,535.21Zm3.12.38,1.62.19a.23.23,0,0,0,0,.16c.65,1.52.82,1.42-.3.67A14.78,14.78,0,0,1,900.53,535.59Zm2.3.27,1.65.2a14.62,14.62,0,0,1,.61,1.59A20.3,20.3,0,0,1,902.83,535.86Zm2.6.32,1.73.2C908.57,539.3,906.58,537.34,905.43,536.18Zm2.62.31,1.52.18c.48.78,1.81,2.54.44,1.68A10.67,10.67,0,0,1,908.05,536.49Zm2.38.28,1.76.22a.06.06,0,0,0,0,0c.39,1.05,1.47,2.31-.05,1.37A8.25,8.25,0,0,1,910.43,536.77Zm5.17,1.12c.19.54.37,1.07.55,1.6a1.61,1.61,0,0,0-.57-.5,11.81,11.81,0,0,1-2.5-1.9l5.06.61a.26.26,0,0,0,0,.15l.54,1.66-.34-.24c-.79-.46-1.52-1.21-2.3-1.71A.3.3,0,0,0,915.6,537.89Zm5.45.34c.18.74.47,1.32.16,1.42s-1.74-1.3-2.34-1.86l2.2.26A.37.37,0,0,0,921.05,538.23Zm5.51.72c.21.45,1,1.74,1,2.13s-2.36-2.1-2.35-2.09c-.19-.23-.58-.11-.5.21a5.93,5.93,0,0,0,.49,1.6c.07.16,0,.08-.12-.22-.23.12-2.53-1.79-3.35-2.45l4.87.58A.33.33,0,0,0,926.56,539Zm.67-.16,1.68.2,0,0c.4.52,1.73,1.92.74,1.59A9.27,9.27,0,0,1,927.23,538.79Zm2.8.34,1.63.19a.26.26,0,0,0,0,.15c.12.37.24.74.35,1.11a2.71,2.71,0,0,0-.37-.16C931.09,540,930.57,539.57,930,539.13Zm2.53.3,1.71.21a.23.23,0,0,0,0,.11c.22.54.45,1.08.68,1.62Zm5.07,1,.56,1.37a19.59,19.59,0,0,0-2.75-2l2.33.28A.26.26,0,0,0,937.63,540.42Zm6.39,2.35c-.32.13-2.54-1.73-2.8-1.9a.35.35,0,0,0-.51.39l.44,1.23-2.92-2.38,5.85.7a.39.39,0,0,0-.38.46C943.91,542,944.2,542.7,944,542.77Zm.11-1.95,2.35.28c.17.64.35,1.27.52,1.91l-2.78-2.14A.2.2,0,0,0,944.13,540.82Zm4.4.53,1.3.15a.57.57,0,0,0,0,.13l.3.94A11.75,11.75,0,0,0,948.53,541.35Zm4.44.81c.06.28.13.56.2.84l-2.1-1.35,1.94.24A.32.32,0,0,0,953,542.16Zm.94-.17,2.44.3C956.35,544,955,542.74,953.91,542Zm57.84,28.7,3.59-.58.13,0a7.35,7.35,0,0,1,1.87.79C1015.47,570.76,1013.6,570.68,1011.75,570.69Zm5.68-.45c-.29-.12-.57-.23-.86-.33l2.83-.46c0,1.68-.61-.24-1.58.38A1,1,0,0,0,1017.43,570.24Zm34,3.34a.31.31,0,0,0-.25-.18c-6.68-.94-13.58-1-20.31-1.42-4.13-.26-8.34-.74-12.55-1a.28.28,0,0,0-.16-.33l0,0c.84.25,1.23.63,2.09.3a.37.37,0,0,0,.21-.53c-.36-.51,2.83.39,3.08.46a.37.37,0,0,0,.45-.45c-.05-.12-.09-.25-.13-.38a9.09,9.09,0,0,0,1.71.41.36.36,0,0,0,.36-.6l-.44-.54,2.43.85c.34.11.53-.28.42-.54s-.15-.33-.22-.49l2.75,1c.36.14.58-.36.35-.61l-.15-.17,1.37.45a.37.37,0,0,0,.42-.54c-.93-1.65,1-.5,1.73-.05a.37.37,0,0,0,.51-.5l-.48-.73a19.82,19.82,0,0,1,3,1.21.37.37,0,0,0,.45-.58l-.31-.38a16.49,16.49,0,0,1,2.13.63c.31.12.58-.28.42-.54l-.65-1.06,2.61,1.28c.27.13.69-.09.57-.43a5.72,5.72,0,0,0-.38-.82c.63.26,1.27.5,1.94.71a.39.39,0,0,0,.44-.57l-.28-.54,3.12,1.24a.39.39,0,0,0,.44-.58c-.15-.2-.32-.4-.48-.59q1,.44,2,.81c.36.13.62-.32.47-.62l-.32-.61,2.18.59a.42.42,0,0,0,.41-.69l-.48-.52c.63.22,1.27.41,1.92.59a.43.43,0,0,0,.48-.62l-.36-.66.71.11a.44.44,0,0,0,.55-.42,8.35,8.35,0,0,0,2.88-.85c.43-.35-.18-1-.61-.61,0,0-2.59.5-2.93.58-.75.19.37.47-1.27.21a.43.43,0,0,0-.48.63c.09.18.19.35.29.53-.86-.25-1.7-.53-2.53-.86-.41-.16-.66.42-.41.7l.65.7-1.69-.47a.42.42,0,0,0-.47.61c.09.17.18.35.26.52a23.7,23.7,0,0,1-3-1.41c6.25-1,12.51-2,18.63-3.54l0,0a2.19,2.19,0,0,0,.35.27C1060.39,565.74,1056,569.76,1051.46,573.58Zm-28.55-4.1c.17.5-1.38.07-2.34-.23l3.53-.57a.25.25,0,0,0,0,.07l.65.8a6.22,6.22,0,0,1-1.35-.48C1023.18,569,1022.8,569.15,1022.91,569.48Zm4.22-.84c.07.16.14.33.22.5l-1.93-.68,1.79-.29A.44.44,0,0,0,1027.13,568.64Zm4.19-.65.42.75-1.79-.58c-.37-.12-.59.36-.36.61l.09.1-2.1-.76,4-.65A.37.37,0,0,0,1031.32,568Zm2.12-.5.25.37a6.65,6.65,0,0,0-2-.42l1.76-.29A.34.34,0,0,0,1033.44,567.49Zm3.14.37a19.15,19.15,0,0,0-2.42-.83l4.15-.68a.44.44,0,0,0,0,.15l.78,1.26a16.15,16.15,0,0,0-2.18-.49A.37.37,0,0,0,1036.58,567.86Zm4.25-1.42.52.75-2.06-1,.62-.1.88-.14A.33.33,0,0,0,1040.83,566.44Zm2.56-.17.32.61a22.07,22.07,0,0,1-2.34-1l3.67-.58a.41.41,0,0,0,.16.37,8.74,8.74,0,0,1,1.31,1.11l-2.68-1.06C1043.49,565.56,1043.24,566,1043.39,566.27ZM1074,543.75a52.08,52.08,0,0,0,8.74.42A109.66,109.66,0,0,0,1069.88,557a25.19,25.19,0,0,0,0-6.5,19.59,19.59,0,0,0-2.44-7.35C1069.59,543.56,1072,543.59,1074,543.75Zm-9-1.25a.71.71,0,0,0,.09.07l.7.22c2.24,1.41,3,7.35,3.07,8.76.08,1.57.11,7.07-1.78,8.88a.34.34,0,0,0-.41.05l-.58.48a1.86,1.86,0,0,1-.71,0,.67.67,0,0,0-.81-.71c-16.17,3.49-32.53,6.1-48.83,8.92q-12.32,2.12-24.7,3.75-6.13.81-12.27,1.52c-3.69.42-7.58.49-11.23,1.27a8.27,8.27,0,0,1-.41-1.08,2.83,2.83,0,0,1,.08-1.26l1.07,0a.26.26,0,0,0,.21,0c15.75-.78,31.63-3.78,47.14-6.38,16.56-2.78,33.25-4.93,49.74-8.07a.69.69,0,0,0,.32-1.21,10.25,10.25,0,0,0,1.08-10c-1.59-3.4-4.29-2.89-7.64-2.67a194.06,194.06,0,0,0-24.39,2.74c2-.65,3.9-1.34,5.84-2a.27.27,0,0,0,.36.24,73.49,73.49,0,0,1,21.18-2.49.41.41,0,0,0,.32-.13.35.35,0,0,0,.48,0A2.82,2.82,0,0,1,1065,542.5Zm-2-.19a5.32,5.32,0,0,0-.49.47.42.42,0,0,0-.35-.22,56,56,0,0,0-17.47,1.64c3.25-1.2,6.49-2.43,9.72-3.65A17.21,17.21,0,0,0,1062.91,542.31Zm-4.83-21.91,14.65-1.34a15.32,15.32,0,0,1-.93,10.51c-3.78,1.43-7.35,3.3-11.24,4.53s-7.83,2.24-11.74,3.37c-8,2.32-16.21,5.06-23.48,9.19-.3.17-.1.71.24.58,8.34-3.21,16.46-6.62,25.1-9,7.11-2,16.07-3.45,22-8.11a.42.42,0,0,0,0-.64,12.39,12.39,0,0,0,.95-10.5l1.56-.14a32.63,32.63,0,0,1-.18,8.08c-.58,3.54-2,5.48-5.5,6.87-4.87,1.91-9.87,3.54-14.79,5.31-9.52,3.42-19.41,6.39-28.65,10.51h0a2,2,0,0,0,.07-2.08.26.26,0,0,0-.41.05,2.15,2.15,0,0,0-.09,1.1,4.58,4.58,0,0,1-.1,1.43c0,.13.16.23.23.1l.14-.27a.38.38,0,0,0,.46.33l2.75-.79c7.14-.82,14.2-2.16,21.36-2.84a78.69,78.69,0,0,1,10.39-.76c1.71.07,3.93.62,4.81,2.2a.76.76,0,0,1,0,.11c-13.7,1.71-27.41,3.46-41,5.85-6.66,1.17-13.26,2.59-19.9,3.8a166.24,166.24,0,0,1-22.15,2.25,0,0,0,0,0,0,.09c13.59.08,26.54-2.93,39.84-5.26,14.4-2.52,28.92-4.25,43.41-6.08a.24.24,0,0,0,.09,0,8.08,8.08,0,0,1,.42,2.09c-2.69.56-5.2,1.65-7.84,2.38-3,.84-6.12.66-9.19,1.11-6.62,1-12.89,3.47-19.63,3.67a.11.11,0,1,0,0,.21c6.44.15,12.41-2.16,18.69-3.21,3.09-.52,6.26-.33,9.31-1s5.74-1.86,8.69-2.54a10.13,10.13,0,0,1-1.78,5.6.55.55,0,0,0-.08.34c-16.28,2.34-32.43,5.66-48.66,8.31-8.1,1.32-16.2,2.67-24.32,3.87-7.72,1.15-15.5,1.9-23.22,3a17.77,17.77,0,0,1-1.49-5.07c9.93-1.19,19.81-3,29.69-4.54,10.18-1.57,20.67-2.56,30.7-4.87.19,0,.15-.36,0-.34-9.9.8-19.83,2.94-29.64,4.46-10.24,1.58-20.6,2.87-30.73,5a14.2,14.2,0,0,1-.1-2.26c6.67-2.57,14.73-2.55,21.77-3.42s14.15-1.63,21.19-2.66c.15,0,.12-.29,0-.27-7.85.8-15.68,1.91-23.51,2.89-6.23.78-13.55.73-19.41,3.26A16.83,16.83,0,0,1,968.5,558a.26.26,0,0,0,0-.11.47.47,0,0,0,.06-.19,10.83,10.83,0,0,0,.06-3.12c3.24.38,6.73-.27,9.94-.57,4.16-.39,8.31-.84,12.46-1.32q11.61-1.38,23.16-3.23a.41.41,0,0,0,.27-.14l4.56.52c-7.4.86-14.82,2.25-22.16,3.35-9.39,1.41-18.81,2.77-28.15,4.46-.27,0-.21.5.06.47,9.09-1,18.16-2.29,27.22-3.55,9.37-1.3,19-2.18,28.24-4.15h0l.65.07c.78.09.75-1.1,0-1.2-25.87-3.43-51.86-6.15-77.78-9.24q-38.58-4.59-77.17-9.16l-21.71-2.6c-3.62-.43-7.24-.85-10.85-1.3l-5.43-.7-2.41-.27-1.93-.24c-1.39-.07-2-1-1.82-2.77l2,.32a.44.44,0,0,0,.61.1c11.6,1.87,23.41,2.9,35.07,4.29q19.44,2.31,38.89,4.73c26.11,3.22,52.21,6.57,78.34,9.62,14.75,1.71,29.52,3.31,44.32,4.57.75.07.74-1.1,0-1.16l-.27,0a.64.64,0,0,0,0-.07,9.65,9.65,0,0,1-1.09-2.9c10.87-.79,20.34-7.13,30.46-10.59a.12.12,0,1,0-.07-.23c-10.41,2.91-19.46,9.53-30.42,10.66a13.82,13.82,0,0,1-.19-3.41,6.44,6.44,0,0,0,.82-.19s0,0,0,0a7,7,0,0,1-.82.19s0-.08,0-.13c7.57-3.32,15-6.85,22.71-9.94,7.44-3,15-5.56,22.54-8.34.21-.08.13-.42-.1-.35-8,2.37-15.89,5.45-23.65,8.61-7.25,2.94-14.52,6-21.46,9.6a28.77,28.77,0,0,1,.45-3c11.45-4.75,22.94-9.64,34.14-14.93Zm-7.12.65,6.14-.56c-11.16,4.59-22.22,9.62-33.16,14.72.38-1.94.89-3.85,1.26-5.62l1.68.14v.07a.24.24,0,0,0,.48,0v-.14l0,0a.35.35,0,0,0,.41.23,80.08,80.08,0,0,0,23-8.65A.36.36,0,0,0,1051,521.05Zm-9.16.84,6.83-.62a175.9,175.9,0,0,1-21,7.92.28.28,0,0,0-.18.13l-.06-.13c0-.29,0-.57,0-.86a3.34,3.34,0,0,0,0-1.34h0a15.31,15.31,0,0,0,5.67-1.7,30.54,30.54,0,0,1,8.45-2.9A.39.39,0,0,0,1041.8,521.89Zm-10.35,1c0,.74-.4.48-1,.1Zm-1.9.17c.22.92,0,.56-.9.3-.12,0-.39.38-.44.37a4.36,4.36,0,0,1-.52-.5Zm-3.18.29c.05.58-.15.54-.87.08Zm-1.63.15v0c.39,1.63-.43.78-1.56.43a.26.26,0,0,0-.33.25c.13,1.12-.72.26-1.48-.39Zm-3.78,1.89c.14,0,.34-.07.32-.25-.23-1.93,1.11-.05,1.82.71.14.15.46,0,.43-.18-.15-1.37,1.07-.6,1.79-.08.2.15.44-.09.39-.3-.33-1.45,0-1,1.11-.29.22.15.47-.1.42-.33-.43-2.09-.16-1.36,1-.31a.28.28,0,0,0,.46-.2l1,.45a.27.27,0,0,0,.49-.07c.24-1.3.28-.92,1.64-.16a.3.3,0,0,0,.45-.26c-.1-.92-.22-1.13.73-1a.3.3,0,0,0,.33-.4l3.12-.28c-3.33,1.26-6.56,3.58-9.9,4.19-2.86-.41-5.73-.78-8.61-1.09a.21.21,0,0,0,0-.22c-.55-1.43.46-.16,1.12.27a.28.28,0,0,0,.42-.24C1019.42,524.57,1020.43,525.24,1021,525.34Zm-1.3-1.42-.32.13a.27.27,0,0,0-.45.19c0,.61-.69.21-1.18-.14Zm-2.76.25c.43.87.17.9-.79.08Zm-1.29.12a9,9,0,0,0,1.59,1.13c-2.41-.25-4.82-.46-7.24-.6Zm-30,2.66c7.4-.57,14.79-1.24,22.17-1.93a.3.3,0,0,0,.25.23c6.17.76,12.36,1.41,18.54,2.2a.34.34,0,0,0,.24-.07,6,6,0,0,0,0,1c0,.22,0,.45,0,.67-5.11-.51-10.23-1-15.35-1.46s-10.48-1.44-15.65-1.12c-.14,0-.18.22,0,.25,4.87,1.21,10.1,1.27,15.08,1.68,4.56.37,9.11.79,13.67,1.18a38.71,38.71,0,0,0-1.71,5.41.2.2,0,0,0-.14-.06c-17.72-1.08-35.17-3-52.76-5.34-.11,0-.16.14-.05.17a354.66,354.66,0,0,0,52.81,5.64h0c-.18.84-.34,1.7-.44,2.55-49.79-6.13-99.73-11.2-149.56-17-14.14-1.65-28.26-3.45-42.4-5a15.2,15.2,0,0,0-.09-1.9c0-.1,0-.22,0-.34,21.06,4.29,42.65,4.86,64,6.63a329,329,0,0,1,33.42,4.29c10.4,2,20.93,4.54,31.57,4.67.2,0,.2-.29,0-.31-11.22-.92-22.1-3.13-33.15-5.16-10.15-1.87-20.39-3.05-30.67-3.91-21.79-1.82-43.63-2.66-65.2-6.42a14.87,14.87,0,0,0-.26-1.81,293.88,293.88,0,0,0,49.1,4.23.19.19,0,0,0,0-.37,427.89,427.89,0,0,1-49.16-4.14,2.65,2.65,0,0,0-1.34-2c4.48.53,9.05.7,13.53,1.1q9.2.81,18.38,1.82c12,1.34,24,3,36,4.32a.33.33,0,0,0,.33-.4c19.22,4.29,38.82,7,58,11.41a.33.33,0,0,0,.29.2C965.21,528.54,975.52,527.73,985.57,527Zm100.9-19.37c-7.49.41-15,1-22.44,1.62-.2,0-.21.32,0,.31,7.49-.48,15-1,22.47-1.68a13.16,13.16,0,0,0,1.27,3.89c-22.37,2.52-44.71,5.15-67.08,7.66-11.52,1.29-23.05,2.64-34.58,3.88a90.37,90.37,0,0,1-16.28.41c-5-.38-10.21-1-15.07.5l-.12-1c5.3-1.15,10.57-1,16-.77a148.12,148.12,0,0,0,15.34-.27c9.89-.68,19.69-2.23,29.5-3.58,20.82-2.85,41.61-4.72,62.56-6.12.17,0,.17-.27,0-.26a565.28,565.28,0,0,0-61.46,5.93c-10.56,1.54-21.12,3.11-31.78,3.74-5.11.3-10.21.3-15.32.12s-10-.23-14.82,1c-.12-.89-.24-1.8-.34-2.73,8.48,0,16.71-1.64,25.1-2.5s16.93,0,25.38-.81c17.14-1.73,33.78-6.27,51.07-6.75a.13.13,0,0,0,0-.25c-17.23-.27-34,4.93-51.07,6.65-8.27.83-16.57,0-24.83.74-8.59.81-17,2.07-25.68,2.57-.06-.62-.1-1.24-.13-1.86,16.6-1.33,33.2-3,49.75-4.82.16,0,.17-.28,0-.26-16.59,1.52-33.19,3-49.76,4.74a16.53,16.53,0,0,1,.16-3c21.71-1.43,43.41-4.05,65.09-6,21.88-1.92,43.78-3.6,65.66-5.44.26,0,.26-.43,0-.41-21.9,1.62-43.78,3.59-65.66,5.53-21.66,1.91-43.49,3.34-65.06,6.1a9.65,9.65,0,0,1,.77-2.55c.16-.32-.24-.69-.52-.4a7.54,7.54,0,0,0-1.64,5.36c-10.18-3-20.69-5.07-31-7.27-10.57-2.24-21.17-4.33-31.82-6.18-.1,0-.14.13,0,.15,10.63,1.94,21.23,4,31.78,6.33s20.72,5.11,31.14,7.38a29.55,29.55,0,0,0,.55,4.35q-31.65-6.81-63.49-13c-.16,0-.24.21-.07.25,21,4.93,42.34,9.25,63.61,13,.14.76.3,1.49.43,2.15q-16-3.36-32.12-6.51c-5.33-1.06-10.65-2.15-16-3.23-5.07-1-10.32-2.61-15.49-2.92a.16.16,0,0,0-.16.12c-2.26-4.81-2.54-9.38.21-14.08,10.83,2.79,21.94,4.69,32.86,7.1s22.09,4.75,33.16,7a.49.49,0,0,0,.54-.24.32.32,0,0,0,.27.15c11.53,0,23.27-1.66,34.75-2.63s22.75-2,34.12-3.12c20.7-2,41.54-3.75,62.17-6.55A11.86,11.86,0,0,0,1086.47,507.58Zm6.94-10.37a.34.34,0,0,0,0,.22c-22.85,2.08-45.62,5.11-68.46,7.34q-17,1.65-34.12,3.11c-11.15,1-22.57,1.22-33.64,2.88a.34.34,0,0,0-.15.06.25.25,0,0,0,0-.07c.08-.35.16-.7.22-1.05a2.87,2.87,0,0,0,.07-1.3.46.46,0,0,0-.82-.11l-.05.11a.3.3,0,0,0-.27-.32c-11.91-2.38-23.78-4.71-35.62-7.24-.56-.77-1.15-1.55-1.64-2.35s-1.08-.81-.2-.56c1.62.44,3.56,2.21,5,3.1a.24.24,0,0,0,.33-.33c-.33-.49-1.62-2.28-1.46-2.4s3.75,2,4.15,2.2a.24.24,0,0,0,.32-.32,16.07,16.07,0,0,1-1.21-2.35l.57,0c.94.52,2.72,1.79,3,2a.23.23,0,0,0,.34-.26c-.4-1.64-.64-2,1.17-.76a.24.24,0,0,0,.32-.08c.09-.13,2.34.48,2.9.33a.25.25,0,0,0,.18-.31c-.22-.52.72,0,1.31,0,.34,0,.34-.52,0-.54l-.34-.11c24,.75,48,2,72.07,3.12,7.5.34,15,.59,22.51.68-11.72.79-23.43,1.93-35.14,2.89-12.34,1-24.74,1.91-37,3.32-.29,0-.3.49,0,.47,12.36-.59,24.72-1.73,37-2.72s24.72-1.81,37-3a.56.56,0,0,0,.39-.89c7.38.06,14.77,0,22.15-.38a.66.66,0,0,0,.64-.54,5.3,5.3,0,0,0,2.69-1.41c6-.6,11.94-1.51,17.93-2.16,2.73-.3,5.46-.51,8.19-.73,1.43-.11,2.86-.24,4.29-.38C1088.38,496.28,1094.17,495.48,1093.41,497.21Zm-6.28-2c-2.48.25-4.78.67-5.42.74-7.86.92-15.81,1.62-23.59,3.15,1.52-1.55,2.81-3.65,3.84-4.88.73-.86,1.53-1.73,2.28-2.65C1071.92,492.63,1079.53,493.69,1087.13,495.16Zm6.84-67.5c-4.59-1.2-10.19,0-14.72.23-3.16.17-6.31.32-9.47.45-2.92.12-6.24-.13-9.08.74a2.37,2.37,0,0,0,.19-.35.54.54,0,0,0,.42,0,6.68,6.68,0,0,0,3.68-2.56,81.9,81.9,0,0,1,14-1.68C1081.2,424.48,1092.53,424.48,1094,427.66Zm-27.34-5.85c2.61,1.15,5.86,1.3,8.63,1.68l1.49.22a60.15,60.15,0,0,0-11.47,2.05,9.71,9.71,0,0,0,1.25-3.34C1066.57,422.22,1066.6,422,1066.63,421.81ZM922.7,404.12c-11.9-2.29-24-3.79-36-5.4-6.31-.85-12.62-1.63-18.92-2.41s-12.39-1.82-18.59-2.08a.34.34,0,0,0-.17-.38c.26-1.16.84-1.6,1.77-1.31q1.2.12,2.4.27c1.61.19,3.21.4,4.81.6,3.21.39,6.41.8,9.62,1.2l18,2.27c12.4,1.55,24.79,3.36,37.23,4.52A5.26,5.26,0,0,0,922.7,404.12Zm.56-3.39a.29.29,0,0,0-.24-.15c-15.19-2.33-30.53-3.85-45.79-5.69L857,392.45c7.88-.08,15.79-.58,23.64-.68,10.3-.15,20.6-.27,30.9-.28,20.41,0,40.8.82,61.19,1a.43.43,0,0,0,.31-.11l.1,0c12.85,2.29,26,2.83,39,3.6,12.12.71,24.09,2,36.13,3.37-1.26.08-2.48.19-3.55.21l-16.78.33-34.76.69c-11.59.23-23.19.5-34.79.59s-23.21-.88-34.79-.77A.33.33,0,0,0,923.26,400.73Zm2.32,30.91.11,0a.5.5,0,0,0,.16-.88v0a3.22,3.22,0,0,0,.1-.54l.51.08a.57.57,0,0,0,.61-.34c5.32.85,11.2.27,16.59.25,6,0,12-.17,18-.35,11.6-.34,23.19-.87,34.79-1.33s23.19-.84,34.79-.89q9,0,18,.2c4.39.13,9,.51,12.74-2.08a.28.28,0,0,0-.12-.53l0-.05a28.08,28.08,0,0,0,1.51-13.65c-.4-2.9-1-6.84-4.11-8a12.7,12.7,0,0,0-4.8-.22l-9,.38q-8.14.33-16.29.6-33.78,1.11-67.57,1.23c-6.24,0-12.48.05-18.71-.08s-13-.71-19.27,0V405a.5.5,0,0,0,0-.61c0-.39.06-.78.09-1.16a6.35,6.35,0,0,0,.08-2.08.54.54,0,0,0-.05-.11c10.52,1.55,21.58,1.07,32.18,1,11.2,0,22.4-.29,33.6-.47l33.56-.52,16.78-.27,7.79-.13c2.62,0,5.7-.54,7.92,1.14.46.36,1.06-.42.62-.81l-.26-.21c2.12.13,4.31.32,6.08,1.53,3,2,3.62,5.78,3.71,9.09.13,4.87,1.19,14.51-4.77,16.17a.67.67,0,0,0-.19.09.53.53,0,0,0-.92.2c-.08.32,0,.6-.24.88a1,1,0,0,1-.48.36l-.1,0c-11,0-22,.89-32.94,1.34q-16.84.67-33.69,1.18t-33.7.55c-8.56,0-17.13-.27-25.69-.23-2.5-.11-5-.19-7.48-.27ZM972.37,435l0,0a65.64,65.64,0,0,0,8-1.29.16.16,0,0,0,0-.32,62.59,62.59,0,0,0-6.52.76c-.05-.13-.11-.26-.17-.38l1.67.13a.37.37,0,0,0,.35-.47l.11-.11a.31.31,0,0,0,.44-.31q8.1-.13,16.2-.33c11.23-.27,22.46-.67,33.69-1.09,3.86-.15,7.73-.25,11.61-.35-1,.19-2,.43-2.93.7-5.13-.46-10.51.25-15.61.56s-10.35.55-15.53,1c-10.32.86-20.79,1.74-31,3.65a.31.31,0,0,0-.15-.17A2.09,2.09,0,0,0,972.37,435Zm-6.7-1.61a6.12,6.12,0,0,0,3,.71c1.34.12,4,.79,3.2,2.64a163.61,163.61,0,0,0-21-3.51l7.91-.05,6.86-.05A.22.22,0,0,0,965.67,433.41Zm.67-.26,2.11,0a.17.17,0,0,0,.1.11l.31.16C968,433.32,967.14,433.3,966.34,433.15Zm2.9,0h1a.32.32,0,0,0,.09.29l.4.39-.17-.06Zm2.06,0,1.53,0a.44.44,0,0,0-.08.48l.11.22ZM945,434c7.82.7,15.51,1.95,23.25,3.12a.63.63,0,0,0-.11.12,32.7,32.7,0,0,0-4.41,11.33c-15.38-1.82-30.94-2.6-46.38-3.7-16-1.13-32-2.46-48-3.23-.09,0-.09.14,0,.15,16,1.24,32,2.1,48,3.36,15.43,1.22,30.86,2.93,46.32,3.77a35.81,35.81,0,0,0-.58,6.62c-26.05-2-52.06-3.81-78-6.83-.14,0-.14.21,0,.22,25.88,3.09,52,5.9,78,6.95a34.9,34.9,0,0,0,1.47,9.67c-16.13-.94-32.26-1.8-48.36-3.24s-32.2-3.64-48.3-5.59c-.11,0-.14.18,0,.2,15.78,2.62,31.8,4.24,47.72,5.75,16.3,1.55,32.69,2.83,49.07,3.23.22.71.47,1.41.74,2.1-6.57-.54-13.27-.55-19.79-.95q-13.26-.81-26.51-1.77t-26.49-2.13c-8.67-.75-17.4-2.05-26.09-2.42-.35-.54-1.41-2.32-1.52-2.58a18.41,18.41,0,0,1-1-3.15,26.9,26.9,0,0,1-.53-7.75c.28-4.69.83-9.78,3.34-13.84,17.47-.28,34.92-1.14,52.39-.78C927.78,432.8,936.4,433.21,945,434ZM861,459.4c.08.32.15.65.23,1a.46.46,0,0,0-.3.11c0-.32-.1-.65-.16-1Zm-1.7.69c-.09.32-.18.64-.26,1-.06-.26-.12-.52-.19-.78Zm-1.76.69-.21,1.05A8.69,8.69,0,0,0,857,461Zm-1.58.59-.33,1.31-.37-1.05Zm-6.44,2.22,2.45-.82a.33.33,0,0,0,.6.1l.27-.4.34-.12c.13.37.26.74.4,1.1a.39.39,0,0,0,.74,0,7.6,7.6,0,0,1,.38-1c.21.58.41,1.17.62,1.76a.4.4,0,0,0,.77,0c.16-.64.32-1.28.49-1.92a8.3,8.3,0,0,1,.23,2.2.42.42,0,0,0,.83.11c.21-.94.41-1.88.6-2.81a12.76,12.76,0,0,1,.2,2.16c0,.51.81.66.91.12.18-1,.42-2,.69-3a12.1,12.1,0,0,1,0,2.33c0,.55.8.62,1,.12.08-.3.17-.6.26-.9,0,.19.11.39.17.58a.5.5,0,0,0,.8.22,7.06,7.06,0,0,0,1,1.47c-5.91.13-11.8.42-17.72.19h-.06C846.79,464.56,848.16,464,849.49,463.59Zm-9.84,4.83a.2.2,0,0,0-.17-.21c.46-1.47,1.21-2.28,2.23-2.47a2.83,2.83,0,0,0,.56,0h.07a12.35,12.35,0,0,1,1.36,0l2.35.08c2.15.05,4.31.05,6.47,0,3.78,0,7.57-.17,11.35-.42a1.88,1.88,0,0,0,2.7-.21c2.79,2,7.52,1.46,10.71,1.73,5.2.44,10.4.87,15.59,1.33l1.75.16c-7-.16-14.07-.1-21-.1C862.31,468.31,850.91,467.88,839.65,468.42Zm212.4,27.94a.62.62,0,0,0,.11.66c-27.08,1.08-54.06-.28-81.1-1.82-27.61-1.57-55.23-2.41-82.88-2.74-14.48-.17-29.12-.8-43.62-.24.28-.71.52-1.43.75-2.15h0c3-.05,6.07-.28,9.11-.51.11,0,.11-.18,0-.18-3,0-6,.08-9,.31a31.1,31.1,0,0,0,1.22-7.19c10.11.37,20.19.76,30.28,1.61.08,0,.08-.12,0-.13a286,286,0,0,0-30.26-1.79,30.86,30.86,0,0,0-.09-3.6,368,368,0,0,1,55.52,2.79c.06,0,.08-.1,0-.11a279.83,279.83,0,0,0-55.55-3h0a29.22,29.22,0,0,0-2.39-9.21s0,0,0,0c9.81.3,19.66.12,29.46.38,11.43.3,23,1,34.46.64a.46.46,0,0,0,.47-.43l17.19,1.53L958,474.06l7.76.69c1.71.15,4,.72,5.66,0a3.26,3.26,0,0,0,.92-.58.44.44,0,0,0,.18,0q11.28-.54,22.57-1.45a.23.23,0,0,0,.19.19c9.68,1.16,19.69,1,29.43,1.36,8.84.35,17.69.74,26.54.74a.38.38,0,0,0,0,.17,32.17,32.17,0,0,1,1.46,3.59c-30.44-1.21-60.9-1.91-91.34-2.68a.09.09,0,1,0,0,.18c30.46,1.13,60.94,2.33,91.42,3h.07a26.19,26.19,0,0,1,1,4.72.09.09,0,0,0,0,0,24,24,0,0,1,.09,4.72c-24.89-1.55-49.88-2.21-74.79-3.2-25.16-1-50.35-1.76-75.52-.73a.08.08,0,0,0,0,.16c50.16-1.93,100.17,2.9,150.27,4.17A23.67,23.67,0,0,1,1052.05,496.36Zm1.7-22.22a2.38,2.38,0,0,1-.54-1.35,104.7,104.7,0,0,0,10.25-8.42l1.47-.19v0a101.14,101.14,0,0,0-10.87,10.44.23.23,0,0,0-.21-.12h0A.42.42,0,0,0,1053.75,474.14Zm-.66-1.95a.27.27,0,0,0-.34.15,2.34,2.34,0,0,0-.09.24l-.22.21a.25.25,0,0,0,.15.41,2.31,2.31,0,0,0,.42,1.29c-9.45-.37-18.91-.59-28.35-1-8.5-.33-17.16-1.13-25.7-1.07,13.62-1.17,27.21-2.73,40.68-4.7,7.38-1.09,14.77-2.21,22.17-3.17C1058.75,466.9,1055.9,469.61,1053.09,472.19Zm12.82,2.73c.13,3.22.48,6.7-1.4,9.51a58.43,58.43,0,0,1-11.15,11.78,24.22,24.22,0,0,0,1.63-13c3.19-3.07,6.42-6.13,9.42-9.37a.13.13,0,0,0-.18-.18c-3.21,2.94-6.24,6.12-9.29,9.24a21.79,21.79,0,0,0-1.5-5.1,105.08,105.08,0,0,1,8.54-8.21c.09-.07,0-.23-.12-.16a48.31,48.31,0,0,0-8.57,8,19.42,19.42,0,0,0-1.31-2.41h1.86a.21.21,0,0,0,.35.1c3.56-3.43,7.15-6.86,10.83-10.16C1065.45,468.28,1065.78,471.6,1065.91,474.92Zm24.68-18.16c-.07-.52-.13-1-.2-1.55a4.32,4.32,0,0,1,1.48-.28,11.18,11.18,0,0,1,2.23.38.6.6,0,0,0,.36-.05c-1,6.14-9.47,5.89-14.35,6.25-5.33.4-10.64.95-15.93,1.62h0a.27.27,0,0,0-.3,0l-.06,0c-9.73,1.23-19.42,2.78-29.13,4.17-20.52,2.93-41.22,3.74-61.78,6.16a2.37,2.37,0,0,0-.32-3.22.36.36,0,0,0-.51.51c.18,2.12-.49,3.12-2,3a6.12,6.12,0,0,1-1.91,0c-1,0-2-.17-3-.26l-6.57-.56-13.14-1.13-25.67-2.19-25.67-2.19q-6.6-.56-13.18-1.16l-6-.54c-2.31-.2-5.73.05-7.81-1.24a.35.35,0,0,0-.51-.34c-.35-.17-.75.2-.55.51a1.52,1.52,0,0,1-.86.35.26.26,0,0,0-.28-.29h-.56c-1.37-1-2.17-4.3-2.34-5-.06-.24-.11-.49-.17-.73h0c.42-.19.2-.83-.2-.86-.25-1.23-.45-2.46-.6-3.71a60.47,60.47,0,0,1-.34-8.82c.08-3,.33-5.92.65-8.86a27.14,27.14,0,0,1,.68-4.66c.53-1.86,3.55-5.48,5.44-2.8-.06.08-.11.16-.18.24s0,.36.19.25l.21-.15c.05.1.1.19.15.3.23.45.91.05.69-.4l-.21-.37a7.78,7.78,0,0,1,2.74-1.61,41.46,41.46,0,0,1,5.36-.6c2.9-.31,5.82-.57,8.7-1,1.73.28,3.46.55,5.19.84q9.48,1.55,19,3.09c2.58.42,5.43,1.14,8.3,1.61-16.77-.31-33.58.09-50.33,1a.5.5,0,0,0-.81-.29c-1.91,1.79-2.57,4.35-3.06,6.85a52.46,52.46,0,0,0-1.16,10.51,23.53,23.53,0,0,0,1.5,8.47c.5,1.27,1.15,3.62,2.73,3.77a.37.37,0,0,0,.35-.2l0-.06c8.1,1.27,16.44,1.63,24.6,2.37q13.23,1.2,26.48,2.22t26.51,1.89c8.73.57,17.79,1.77,26.53,1.38a.43.43,0,0,0,.27-.13c20-.67,40.11-2.27,60.06-4,9.91-.88,19.8-1.88,29.67-3.11s20-2.26,29.64-4.48A.51.51,0,0,0,1090.59,456.76Zm-.64-24.18a.24.24,0,0,0-.15,0c-20.53,3.26-41.32,2.77-62,4.72-10,1-19.92,2.63-29.89,3.9a164.26,164.26,0,0,1-30.47,1.16c-.16,0-.15.22,0,.24,20.45,2.74,41.26-3.28,61.54-5.1s40.76-1.13,60.86-4.53a57.41,57.41,0,0,0-1.3,9c-7.38.48-14.79,1.58-22.13,2.48-.09,0-.09.16,0,.15,7.35-.7,14.81-1.22,22.11-2.34a48.17,48.17,0,0,0,0,6.58c-18,1.68-35.92,3.55-53.87,5.32-18.2,1.8-36.54,4.35-54.84,4.54a.07.07,0,1,0,0,.13c9.16.2,18.3-.79,27.41-1.68s18.28-1.79,27.43-2.67c18-1.73,35.94-3.36,53.9-5.19a43.68,43.68,0,0,0,.79,5.47l-.35.26c-.34.27.09.8.45.59l.08,0c.09.41.19.82.29,1.24-9.67,1.18-19.28,3-29,4.25q-15.11,1.88-30.27,3.21c-20,1.77-40,2.58-60,4.3-1.53-.22-3.06-.38-4.6-.52-.42-1.4-.76-2.79-1-4.18,20.31-2.17,40.56-4.44,60.94-6,20.62-1.61,41.26-3.16,61.8-5.66.26,0,.27-.45,0-.42-20.74,2.57-41.57,4.13-62.4,5.77-20.09,1.58-40.5,2.73-60.39,6.09a39.7,39.7,0,0,1-.69-6.54c19.52-.62,39.07-2.44,58.49-4.43,19.27-2,38.58-4.07,57.77-6.69.14,0,.11-.27,0-.25-19.46,2.13-38.86,4.71-58.33,6.67-19.29,1.95-38.57,3.3-57.91,4.52,0-1.06,0-2.12.08-3.17,8-.92,15.77-1.86,23.81-2.06s16.27-.18,24.38-.84c16.5-1.36,32.81-4.25,49.31-5.59.14,0,.15-.23,0-.23-16.71,0-33.28,4.2-49.9,5.53-8.11.66-16.24.61-24.37.79-7.64.17-15.79.2-23.22,2.21A37,37,0,0,1,965,449l.32,0c.18,0,.17-.25,0-.27l-.27,0c.15-.75.33-1.49.52-2.23,19.49-.46,39-2.77,58.33-4.74s38.87-3.55,58.34-5c.26,0,.26-.42,0-.4-39,2.22-77.7,7.4-116.64,10a43.82,43.82,0,0,1,3.29-8.68.41.41,0,0,0,0-.47l3.35.49a.45.45,0,0,0,.38-.11.2.2,0,0,0,.19.07c10.71-1.05,21.36-2.59,32.11-3.42,5.17-.41,10.34-.86,15.52-1s10.54.16,15.62-.69c.16,0,.19-.15.15-.27.53-.08,1.06-.17,1.6-.24h0s0,0,0,0c1.63-.23,3.27-.44,4.91-.71a.17.17,0,0,0,.16-.2c5.43-.17,10.84-.4,16.22-.86a.54.54,0,0,0,.44-.28,1.9,1.9,0,0,0,.92-.5l0,0c2.61.58,5.49.08,8.15-.08,3-.18,5.91-.37,8.87-.52l8.88-.44c1.6-.08,3.19-.2,4.77-.14C1090.68,429.66,1090.29,431.12,1090,432.58Z" transform="translate(-824.22 -390.39)"/><path class="cls-1" d="M924.9,425.31c-9.87-1.61-19.87-2.69-29.78-4-.09,0-.12.15,0,.16,9.83,1.64,19.84,3.25,29.78,4C925,425.47,925,425.32,924.9,425.31Z" transform="translate(-824.22 -390.39)"/><path class="cls-1" d="M913.67,413.16c-19.42-2.52-38.75-5-58-8.65-.11,0-.16.15,0,.17,19.14,3.8,38.61,7.11,58.06,8.8C913.88,413.5,913.87,413.19,913.67,413.16Z" transform="translate(-824.22 -390.39)"/><path class="cls-1" d="M902.41,406.54c-8.12-.75-16.22-1.35-24.3-2.47-7.7-1.07-15.31-2.69-23-3.84-.11,0-.17.15,0,.18a202.73,202.73,0,0,0,23,3.94c8.06,1.08,16.2,2.1,24.34,2.47C902.59,406.83,902.58,406.56,902.41,406.54Z" transform="translate(-824.22 -390.39)"/><path class="cls-1" d="M921.57,408.31c-5.92-.68-12-1-17.92-1.19-.12,0-.11.17,0,.18,5.93.61,12,1.16,17.92,1.29C921.75,408.6,921.74,408.33,921.57,408.31Z" transform="translate(-824.22 -390.39)"/><path class="cls-1" d="M896.65,403c-10.67-1.07-21.26-2.46-31.86-4.05-.1,0-.14.14,0,.16,10.54,1.91,21.23,3.25,31.9,4.14C896.81,403.26,896.81,403,896.65,403Z" transform="translate(-824.22 -390.39)"/><path class="cls-1" d="M958.93,423.31H957.1s0,.07,0,.07h1.83A0,0,0,0,0,958.93,423.31Z" transform="translate(-824.22 -390.39)"/><path class="cls-1" d="M1001.75,420.8a162.31,162.31,0,0,0-34.33,1.9c-.07,0,0,.12,0,.12a269.35,269.35,0,0,1,34.31-1.9C1001.83,420.92,1001.82,420.8,1001.75,420.8Z" transform="translate(-824.22 -390.39)"/><path class="cls-1" d="M1061.57,419.22a408.86,408.86,0,0,0-57.4,1.21h0c19.17-.82,38.21-1.31,57.4-1A.13.13,0,0,0,1061.57,419.22Z" transform="translate(-824.22 -390.39)"/><path class="cls-1" d="M979.28,417.77a.41.41,0,0,0,0,.81A.41.41,0,0,0,979.28,417.77Z" transform="translate(-824.22 -390.39)"/><path class="cls-1" d="M985.05,418.13s0,.09,0,.09S985.1,418.13,985.05,418.13Z" transform="translate(-824.22 -390.39)"/><path class="cls-1" d="M989,418.14a0,0,0,1,0,0,.07S989,418.14,989,418.14Z" transform="translate(-824.22 -390.39)"/><path class="cls-1" d="M983.53,417.77a.41.41,0,0,0,0,.81A.41.41,0,0,0,983.53,417.77Z" transform="translate(-824.22 -390.39)"/><path class="cls-1" d="M1062.81,415.17a454.64,454.64,0,0,0-57.4,2.34c-.15,0-.15.25,0,.23,19.11-1.83,38.21-2.37,57.4-2.38A.1.1,0,0,0,1062.81,415.17Z" transform="translate(-824.22 -390.39)"/><path class="cls-1" d="M963.47,463.15c-25.46-1.62-50.88-3.44-76.23-6.35a0,0,0,0,0,0,0c25.28,3.25,50.75,5.78,76.23,6.69C963.71,463.53,963.71,463.16,963.47,463.15Z" transform="translate(-824.22 -390.39)"/><path class="cls-1" d="M961.94,459.07c-15.9-1.8-31.93-2.8-47.87-4.28s-31.84-3.32-47.76-5c0,0-.07.09,0,.1,15.68,2.11,31.44,3.69,47.18,5.33,16.08,1.66,32.29,3.48,48.46,4.14C962.16,459.41,962.15,459.09,961.94,459.07Z" transform="translate(-824.22 -390.39)"/><path class="cls-1" d="M962,450.49c-22.57-1.28-45.17-1.73-67.74-3.24-.13,0-.13.19,0,.2,22.47,1.72,45.2,3.47,67.74,3.33A.15.15,0,0,0,962,450.49Z" transform="translate(-824.22 -390.39)"/><path class="cls-1" d="M965.32,440.82c-30.93-1.75-62-2.54-93-3.37a.1.1,0,0,0,0,.19c30.94,1.47,62,3,93,3.55A.19.19,0,0,0,965.32,440.82Z" transform="translate(-824.22 -390.39)"/><path class="cls-1" d="M959.54,436.49c-20-2.68-40.58-2.75-60.73-1.39-.17,0-.17.27,0,.26,20.33-1.21,40.47-.34,60.73,1.4C959.72,436.78,959.71,436.52,959.54,436.49Z" transform="translate(-824.22 -390.39)"/><path class="cls-1" d="M960.75,436.3a.41.41,0,0,0,0,.81A.41.41,0,0,0,960.75,436.3Z" transform="translate(-824.22 -390.39)"/><path class="cls-1" d="M1021,460.38c-9.18-.43-18.27,2.94-27.34,4.06s-18.4,1.27-27.62,1.7a.1.1,0,0,0,0,.2,262.64,262.64,0,0,0,27.62-1.68c9.1-1.09,18.14-4.33,27.34-4.12A.08.08,0,1,0,1021,460.38Z" transform="translate(-824.22 -390.39)"/><path class="cls-1" d="M1075.27,456.47q-25.92,2.91-51.95,4.52c-.05,0-.05.08,0,.07q26.05-1.15,51.95-4.52S1075.31,456.46,1075.27,456.47Z" transform="translate(-824.22 -390.39)"/><path class="cls-1" d="M1088,439.68c-18.51-1.19-36.72,3.79-55.12,4.88-18,1.07-36.28.14-53.84,4.65-.1,0-.06.17,0,.15,18.1-4.09,36.55-3.34,54.95-4.5,18-1.13,35.83-6,54-4.79C1088.26,440.09,1088.26,439.69,1088,439.68Z" transform="translate(-824.22 -390.39)"/><path class="cls-1" d="M1050.66,496c-48.43-2-96.9-3.25-145.34-5.12l-41.17-1.59a.06.06,0,0,0,0,.11q72.65,3.26,145.33,5.69c13.72.48,27.45,1.07,41.18,1.4A.25.25,0,0,0,1050.66,496Z" transform="translate(-824.22 -390.39)"/><path class="cls-1" d="M859.6,486.4c-4.44-.1-8.92-.19-13.36.05a.07.07,0,1,0,0,.13c4.44.24,8.92.15,13.36.06A.12.12,0,1,0,859.6,486.4Z" transform="translate(-824.22 -390.39)"/><path class="cls-1" d="M1051.24,492.83c-21.55-1.09-43.14-1.73-64.71-2.6-21.78-.88-43.57-1.85-65.36-2.17-12.52-.18-25-.29-37.56,0a0,0,0,1,0,0,.07c43.53-.38,87,1.79,130.48,3.59,12.38.51,24.77,1.15,37.15,1.55A.24.24,0,0,0,1051.24,492.83Z" transform="translate(-824.22 -390.39)"/><path class="cls-1" d="M885.42,484.08h0l2.43.3h0Z" transform="translate(-824.22 -390.39)"/><path class="cls-1" d="M898.18,484.66l-4.25-.31c-.06,0-.06.08,0,.09l4.25.29S898.22,484.67,898.18,484.66Z" transform="translate(-824.22 -390.39)"/><path class="cls-1" d="M978.37,482.21c-18.69-1.28-37.47-1.55-56.2-1.2a0,0,0,0,0,0,.08c18.75-.08,37.47.48,56.2,1.29C978.47,482.38,978.47,482.22,978.37,482.21Z" transform="translate(-824.22 -390.39)"/><path class="cls-1" d="M1053.08,484.71q-31.59-.87-63.16-2.42s0,.06,0,.07q31.53,2.17,63.16,2.7C1053.31,485.07,1053.31,484.72,1053.08,484.71Z" transform="translate(-824.22 -390.39)"/><path class="cls-1" d="M892.1,476.14a446.09,446.09,0,0,1-44.62-1.86c-.19,0-.19.27,0,.29a322.77,322.77,0,0,0,44.62,1.69A.06.06,0,1,0,892.1,476.14Z" transform="translate(-824.22 -390.39)"/><path class="cls-1" d="M939.79,476.09c-13.88.35-27.73.56-41.61.13,0,0,0,0,0,0,13.85.44,27.76.6,41.61,0A.08.08,0,0,0,939.79,476.09Z" transform="translate(-824.22 -390.39)"/><path class="cls-1" d="M1063.72,467.66a0,0,0,0,0,0,0A0,0,0,0,0,1063.72,467.66Z" transform="translate(-824.22 -390.39)"/><path class="cls-1" d="M1064.84,469.67a94.43,94.43,0,0,0-10.58,9.81.12.12,0,0,0,.16.17c3.47-3.32,7.12-6.45,10.57-9.79C1065.09,469.77,1065,469.59,1064.84,469.67Z" transform="translate(-824.22 -390.39)"/><path class="cls-1" d="M1065.2,477.37c-3.31,3-6.29,6.52-9.32,9.81-.05.06,0,.14.08.08,3.16-3.17,6.52-6.31,9.39-9.75A.1.1,0,0,0,1065.2,477.37Z" transform="translate(-824.22 -390.39)"/><path class="cls-1" d="M1061.79,484.59a70.83,70.83,0,0,0-7,7.86c-.08.09,0,.22.12.13,2.34-2.62,4.86-5.09,7.16-7.74A.18.18,0,0,0,1061.79,484.59Z" transform="translate(-824.22 -390.39)"/><path class="cls-1" d="M952.89,519.21c-16.07-3.41-32.24-6.33-48.35-9.51h0c16.08,3.29,32.12,6.82,48.25,9.88C953,519.63,953.13,519.26,952.89,519.21Z" transform="translate(-824.22 -390.39)"/><path class="cls-1" d="M951.72,512.57c-9.15-2-18.44-3.54-27.65-5.27s-18.41-3.65-27.65-5.25c-.18,0-.26.23-.08.27,9.18,1.92,18.44,3.52,27.64,5.31s18.4,3.79,27.65,5.28C951.85,513,952,512.62,951.72,512.57Z" transform="translate(-824.22 -390.39)"/><path class="cls-1" d="M1079.82,510.16c-17.83.76-35.68,2.92-53.4,5-17.52,2-35,5-52.62,5.61a.1.1,0,0,0,0,.19c17.62-.21,35.15-3.46,52.62-5.48,17.77-2.06,35.61-3.22,53.4-5C1080,510.44,1080,510.15,1079.82,510.16Z" transform="translate(-824.22 -390.39)"/><path class="cls-1" d="M1084,504.89c-24.77,3-49.5,5.78-74.34,8.12-.13,0-.13.22,0,.21,24.82-1.83,49.76-4.42,74.38-8C1084.25,505.19,1084.21,504.87,1084,504.89Z" transform="translate(-824.22 -390.39)"/><path class="cls-1" d="M891.8,527.42a.41.41,0,0,0,0,.81A.41.41,0,0,0,891.8,527.42Z" transform="translate(-824.22 -390.39)"/><path class="cls-1" d="M1020.31,542.73c-10.06-1.55-20.19-2.71-30.28-4s-20.34-2.66-30.59-3.14a136.81,136.81,0,0,1-16.18-1.34c-5-.84-10-2-15.1-2.84a263.05,263.05,0,0,0-30.28-3.24,0,0,0,1,0,0,0,256.37,256.37,0,0,1,31.36,3.68c5,.9,10,2.08,15.1,2.9A125.79,125.79,0,0,0,958.86,536c20.59.94,40.93,4.86,61.41,7C1020.43,543,1020.47,542.75,1020.31,542.73Z" transform="translate(-824.22 -390.39)"/><path class="cls-1" d="M1020.92,539.77c-24-3-48.11-5.37-72.14-8.13s-48.08-5.56-72.12-8.29c-.15,0-.15.22,0,.24q36,4.45,72.12,8.51c24,2.75,48.06,5.77,72.14,8.11C1021.2,540.24,1021.2,539.81,1020.92,539.77Z" transform="translate(-824.22 -390.39)"/><path class="cls-1" d="M1019.11,533.12c-13.83-2-27.77-3.48-41.63-5.27-.16,0-.2.25,0,.28,13.71,2.28,27.76,4.33,41.63,5.28C1019.24,533.42,1019.28,533.14,1019.11,533.12Z" transform="translate(-824.22 -390.39)"/><path class="cls-1" d="M1020.33,531.55c-8.19-1.23-16.42-2.19-24.64-3.21-.07,0-.08.1,0,.11,8.2,1.18,16.4,2.42,24.62,3.39C1020.46,531.86,1020.5,531.57,1020.33,531.55Z" transform="translate(-824.22 -390.39)"/><path class="cls-2" d="M1024.23,538.76h0" transform="translate(-824.22 -390.39)"/><path class="cls-1" d="M1072.16,520.06c-14.45,6.1-29.2,11.69-43.47,18.18-.09,0,0,.19.06.15,14.76-5.15,29.23-11.77,43.49-18.15C1072.34,520.19,1072.26,520,1072.16,520.06Z" transform="translate(-824.22 -390.39)"/><path class="cls-1" d="M1072.16,523.16a162.64,162.64,0,0,1-15.78,6.31c-.13,0-.08.24,0,.2a68.87,68.87,0,0,0,15.84-6.32C1072.4,523.28,1072.29,523.11,1072.16,523.16Z" transform="translate(-824.22 -390.39)"/><path class="cls-1" d="M1072.28,527c-8.58,3-17,6.6-25.57,9.65-.11,0-.07.23.06.19,8.61-2.65,17.53-5.58,25.62-9.57C1072.53,527.18,1072.43,526.94,1072.28,527Z" transform="translate(-824.22 -390.39)"/><path class="cls-1" d="M961.75,566c-32.84-7.61-65.54-15.55-98.16-24a.08.08,0,0,0-.05.15c32.35,9.23,65.2,17.31,98.18,24C961.8,566.14,961.83,566,961.75,566Z" transform="translate(-824.22 -390.39)"/><path class="cls-1" d="M964.06,563.83q-37.72-8.94-75.32-18.29a.18.18,0,0,0-.09.34c24.93,6.64,50.12,12.77,75.34,18.2C964.15,564.11,964.22,563.87,964.06,563.83Z" transform="translate(-824.22 -390.39)"/><path class="cls-1" d="M930.75,552.11c-14.93-3.83-30-7-45-10.81S856,533.22,841.17,529a.12.12,0,0,0-.06.24c14.72,4.59,29.63,8.58,44.55,12.47s29.91,7.86,45,10.6A.11.11,0,0,0,930.75,552.11Z" transform="translate(-824.22 -390.39)"/><path class="cls-1" d="M934,552.63a.41.41,0,0,0,0,.81A.41.41,0,0,0,934,552.63Z" transform="translate(-824.22 -390.39)"/><path class="cls-1" d="M965.63,560.25c-7.35-1.88-14.8-3.37-22.2-5-.11,0-.15.14,0,.16,7.39,1.72,14.75,3.61,22.19,5.1A.12.12,0,1,0,965.63,560.25Z" transform="translate(-824.22 -390.39)"/><path class="cls-1" d="M1028.5,551.85c-10.34,1.66-20.65,3.23-31,4.45l-15.36,1.76c-4.69.54-9.83.57-14.37,1.86,0,0,0,0,0,0,5.09.25,10.51-1,15.57-1.57l15.9-1.83c9.81-1.16,19.74-2.24,29.42-4.27C1028.89,552.21,1028.77,551.8,1028.5,551.85Z" transform="translate(-824.22 -390.39)"/><path class="cls-1" d="M1058.57,546.81c-4.21.51-8,.17-12.15,1.31a79.08,79.08,0,0,1-14.91,2.47.17.17,0,0,0,0,.33,52.32,52.32,0,0,0,13.57-1.87,35.93,35.93,0,0,1,7-1.52c2.23-.14,4.39.22,6.59-.3C1058.85,547.18,1058.81,546.78,1058.57,546.81Z" transform="translate(-824.22 -390.39)"/><path class="cls-1" d="M1065.21,549.64c-8,1-15.91,2.84-23.86,4.12-8.33,1.35-16.69,2.53-25,3.86-.11,0-.09.2,0,.19,8-.92,16-2.16,23.95-3.45,8.28-1.33,16.81-2.34,25-4.34C1065.47,550,1065.43,549.61,1065.21,549.64Z" transform="translate(-824.22 -390.39)"/><path class="cls-1" d="M1065.24,554.16c-30.56,5.24-61.18,10.39-91.61,16.29,0,0,0,.08,0,.07,30.65-4.75,61.23-10.27,91.77-15.69C1065.87,554.75,1065.68,554.08,1065.24,554.16Z" transform="translate(-824.22 -390.39)"/><path class="cls-1" d="M980.13,582.29c-18.48-2.47-37.15-3.93-55.69-5.87s-37.1-4-55.68-5.59a0,0,0,1,0,0,0c18.53,2.26,37.12,4.09,55.68,6s37.11,4.36,55.69,5.75C980.36,582.66,980.35,582.32,980.13,582.29Z" transform="translate(-824.22 -390.39)"/><path class="cls-1" d="M898.79,567.81c-15.79-.87-31.59-1.36-47.38-2-.12,0-.12.18,0,.19,15.79.71,31.58,1.59,47.38,2.09C899,568.09,899,567.82,898.79,567.81Z" transform="translate(-824.22 -390.39)"/><path class="cls-1" d="M1044.59,581.71c-24.48-.84-49-1.64-73.38-3.58s-48.4-5.49-72.65-7.7c-13.81-1.26-27.57-1.79-41.42-2.08a.1.1,0,1,0,0,.19c24.25-.16,48.63,3.05,72.69,5.76,24.28,2.72,48.57,4.88,73,6.16,13.92.73,27.85,1.21,41.79,1.7C1044.88,582.17,1044.88,581.72,1044.59,581.71Z" transform="translate(-824.22 -390.39)"/><path class="cls-1" d="M1047,579.92c-11-.95-22-1.36-33-2s-22-1.62-33-2c-.23,0-.22.32,0,.34,11,1,22,1.36,33,2s22,1.59,33,2C1047.21,580.21,1047.21,579.94,1047,579.92Z" transform="translate(-824.22 -390.39)"/><path class="cls-1" d="M1010.58,575.81c-5.57-.67-11.16-1.21-16.74-1.75-.13,0-.13.19,0,.2,5.58.65,11.15,1.31,16.74,1.84C1010.77,576.11,1010.76,575.83,1010.58,575.81Z" transform="translate(-824.22 -390.39)"/><path class="cls-1" d="M933.42,568.2c-23.92-.36-47.75-6.19-71.69-3.68-.13,0-.14.22,0,.21,24.06-2.43,47.68,4.5,71.69,3.95A.24.24,0,0,0,933.42,568.2Z" transform="translate(-824.22 -390.39)"/><path class="cls-1" d="M912.25,610.88c-2.17-1.07-4.46-1.91-6.69-2.82-.17-.07-.3.22-.13.3,2.21,1,4.41,2,6.68,2.84A.18.18,0,0,0,912.25,610.88Z" transform="translate(-824.22 -390.39)"/><path class="cls-1" d="M908.68,601.61c-12.57-5.48-25.15-10.71-37.34-17a.16.16,0,0,0-.16.28c12.08,6.33,24.46,12.58,37.29,17.27C908.76,602.23,909,601.74,908.68,601.61Z" transform="translate(-824.22 -390.39)"/><path class="cls-1" d="M1030.92,592.36c-18.82,2.24-37.58,5.09-56.4,7.4q-14,1.72-28,3.31c-9.11,1-18.37,1.57-27.42,3.07-.17,0-.13.29,0,.28,9.53-.42,19.09-1.95,28.57-3s18.64-2.15,28-3.29c18.42-2.25,36.95-4.33,55.27-7.31C1031.22,592.75,1031.17,592.33,1030.92,592.36Z" transform="translate(-824.22 -390.39)"/><path class="cls-1" d="M1086.45,592.06c-14.47,2.35-28.82,5.33-43.32,7.5-7.43,1.11-14.87,2.12-22.31,3.09-7.08.91-14.25,1.39-21.3,2.5-.18,0-.14.34.05.33,7.29-.38,14.59-1.58,21.84-2.48q10.64-1.34,21.25-2.93c14.63-2.18,29.49-4.25,43.92-7.52C1086.9,592.47,1086.76,592,1086.45,592.06Z" transform="translate(-824.22 -390.39)"/><path class="cls-1" d="M1085.23,596.59c-15.92,2.15-31.85,4.82-47.63,7.84-.17,0-.1.28.07.26,15.89-2.56,31.79-5.08,47.66-7.74C1085.58,596.91,1085.47,596.55,1085.23,596.59Z" transform="translate(-824.22 -390.39)"/><path class="cls-1" d="M1086.44,600.85c-10.72,1.35-21.37,3.65-32,5.33q-16.83,2.66-33.73,4.83c-22.19,2.88-44.44,5.2-66.71,7.34-12.52,1.21-25.1,2-37.59,3.56-.17,0-.18.29,0,.28,22.29-1.36,44.61-4,66.81-6.34,21.86-2.32,43.71-4.94,65.45-8.23,12.6-1.91,25.44-3.58,37.88-6.38C1086.71,601.19,1086.67,600.83,1086.44,600.85Z" transform="translate(-824.22 -390.39)"/><path class="cls-1" d="M1082.53,606.12c-42.14,7.52-85,10.62-127.53,14.83-12.27,1.22-24.57,2.3-36.82,3.7-.2,0-.21.34,0,.32,21.75-1.81,43.46-4.25,65.18-6.39,21.42-2.12,42.87-4,64.24-6.59,11.72-1.42,23.49-3,35.06-5.38C1083,606.55,1082.85,606.06,1082.53,606.12Z" transform="translate(-824.22 -390.39)"/><path class="cls-1" d="M1064.35,637c-10.85-1-21.84-1.1-32.72-1.58q-16.07-.7-32.12-1.31c-21.62-.8-43.25-1.57-64.88-1.91-.11,0-.11.16,0,.17,21.62.8,43.25,1.42,64.88,2.26q16.07.61,32.12,1.31c10.89.48,21.83,1.37,32.72,1.47C1064.63,637.42,1064.62,637,1064.35,637Z" transform="translate(-824.22 -390.39)"/><path class="cls-1" d="M1070.08,645.24q-86.88-2.18-173.63-7.78c-16.32-1.07-32.62-2.4-48.94-3.35-.25,0-.24.37,0,.39,28.93,2.68,58,4.14,87,5.79q43.25,2.44,86.52,4.11,24.51.95,49,1.62A.39.39,0,0,0,1070.08,645.24Z" transform="translate(-824.22 -390.39)"/><path class="cls-1" d="M1012.36,652.55c-11.76,1.57-23.61,1.91-35.45,2.49l-35.16,1.72c-23.85,1.16-47.71,2.2-71.54,3.56-.29,0-.3.47,0,.46,24-1,48.1-2.29,72.15-3.47l35.77-1.75c11.44-.56,22.92-1,34.28-2.62C1012.63,652.91,1012.58,652.52,1012.36,652.55Z" transform="translate(-824.22 -390.39)"/><path class="cls-1" d="M910.65,661.59c-13.21.58-26.67,1-39.8,2.61-.17,0-.18.27,0,.27,13.22-.16,26.63-1.47,39.8-2.63A.13.13,0,0,0,910.65,661.59Z" transform="translate(-824.22 -390.39)"/><path class="cls-1" d="M1036.29,651.86c-9.46,1.37-18.9,2.87-28.41,3.89-9.1,1-18.24,1.4-27.39,1.81-18.92.86-37.89,1.37-56.79,2.68a.09.09,0,0,0,0,.17c19.33-.4,38.68-1.61,58-2.47a473.25,473.25,0,0,0,54.69-5.7C1036.64,652.2,1036.53,651.83,1036.29,651.86Z" transform="translate(-824.22 -390.39)"/><path class="cls-1" d="M1079.38,655.48c-18.44,4.64-37.54,4.55-56.4,5.59s-37.52,4.74-56.45,5.28a.12.12,0,0,0,0,.24c9.68.26,19.37-1.16,29-2.43s19-2.29,28.66-2.79c18.55-1,37.21-1,55.36-5.46A.22.22,0,0,0,1079.38,655.48Z" transform="translate(-824.22 -390.39)"/><path class="cls-1" d="M1022.68,664.27c-12.79.49-25.6,1.84-38.36,2.89q-18.59,1.51-37.15,3.19c-25.12,2.25-50.37,4.23-75.4,7.47-.28,0-.29.48,0,.46,25.16-2.09,50.26-5.06,75.4-7.35q18.57-1.7,37.15-3.23c12.77-1.05,25.63-1.7,38.36-3.11C1022.89,664.57,1022.9,664.26,1022.68,664.27Z" transform="translate(-824.22 -390.39)"/><path class="cls-1" d="M1078.9,661.59c-15.39.93-30.78,2-46.16,3.2-.11,0-.11.19,0,.18,15.39-.91,30.79-1.88,46.16-3C1079.12,661.92,1079.12,661.58,1078.9,661.59Z" transform="translate(-824.22 -390.39)"/><path class="cls-1" d="M1004.49,670.21c-10.8.56-21.65,1.66-32.43,2.56l-32.43,2.72-32.43,2.72c-10.79.9-21.69,1.45-32.43,2.84-.21,0-.23.34,0,.34,10.81-.42,21.64-1.71,32.43-2.61l32.43-2.73,32.43-2.73c10.79-.91,21.68-1.65,32.43-2.9C1004.62,670.41,1004.63,670.21,1004.49,670.21Z" transform="translate(-824.22 -390.39)"/></svg>