<?xml version="1.0" encoding="iso-8859-1"?>
<!-- Generator: Adobe Illustrator 19.0.0, SVG Export Plug-In . SVG Version: 6.00 Build 0)  -->
<svg version="1.1" id="Capa_1" xmlns="http://www.w3.org/2000/svg" xmlns:xlink="http://www.w3.org/1999/xlink" x="0px" y="0px"
	 viewBox="0 0 512 512" style="enable-background:new 0 0 512 512;" xml:space="preserve">
<path style="fill:#303C42;" d="M509.232,184.823L402.565,67.49c-2.021-2.219-4.896-3.49-7.896-3.49h-96V42.667
	C298.669,19.135,279.523,0,256.003,0h-42.667c-23.521,0-42.667,19.135-42.667,42.667V64h-160C4.773,64,0.003,68.771,0.003,74.667
	v234.667c0,5.896,4.771,10.667,10.667,10.667h160v106.667h-21.333c-23.521,0-42.667,19.135-42.667,42.667v32
	c0,5.896,4.771,10.667,10.667,10.667h234.667c5.896,0,10.667-4.771,10.667-10.667v-32c0-23.531-19.146-42.667-42.667-42.667h-21.333
	V320h96c3,0,5.875-1.271,7.896-3.49l106.667-117.333C512.919,195.104,512.919,188.896,509.232,184.823z"/>
<g>
	<path style="fill:#9E5F2C;" d="M192.003,42.667c0-11.76,9.563-21.333,21.333-21.333h42.667c11.771,0,21.333,9.573,21.333,21.333V64
		h-85.333V42.667z"/>
	<path style="fill:#9E5F2C;" d="M341.336,469.333v21.333H128.003v-21.333c0-11.76,9.563-21.333,21.333-21.333h170.667
		C331.773,448,341.336,457.573,341.336,469.333z"/>
</g>
<path style="opacity:0.2;fill:#FFFFFF;enable-background:new    ;" d="M166.402,448h-17.066c-11.771,0-21.333,9.573-21.333,21.333
	v21.333h21.333v-21.333C149.336,457.573,156.986,448,166.402,448z"/>
<path style="opacity:0.1;enable-background:new    ;" d="M320.003,448h-17.066c9.417,0,17.066,9.573,17.066,21.333v21.333h21.333
	v-21.333C341.336,457.573,331.773,448,320.003,448z"/>
<g>
	<rect x="192" y="320" style="fill:#9E5F2C;" width="85.333" height="106.667"/>
	<polygon style="fill:#9E5F2C;" points="389.961,298.667 21.336,298.667 21.336,85.333 389.961,85.333 486.919,192 	"/>
</g>
<polygon style="opacity:0.1;enable-background:new    ;" points="389.961,277.333 21.336,277.333 21.336,298.667 389.961,298.667 
	486.919,192 "/>
<polygon style="opacity:0.2;fill:#FFFFFF;enable-background:new    ;" points="21.336,85.333 21.336,106.667 389.961,106.667 
	486.919,192 389.961,85.333 "/>
<path style="fill:#FBC02D;" d="M256.003,138.667c-5.198,0-10.181,0.793-15.022,1.967c-11.749-14.113-29.22-23.301-48.978-23.301
	c-35.292,0-64,28.708-64,64s28.708,64,64,64c5.198,0,10.181-0.793,15.022-1.967c11.749,14.113,29.22,23.301,48.978,23.301
	c35.292,0,64-28.708,64-64S291.294,138.667,256.003,138.667z M234.669,181.333c0,14.685-7.461,27.652-18.783,35.331
	c-1.544-4.408-2.551-9.069-2.551-13.997c0-14.685,7.461-27.652,18.783-35.331C233.663,171.743,234.669,176.405,234.669,181.333z
	 M192.003,224c-23.521,0-42.667-19.135-42.667-42.667s19.146-42.667,42.667-42.667c10.875,0,20.706,4.215,28.25,10.939
	c-17.031,11.512-28.25,31-28.25,53.061c0,7.375,1.507,14.35,3.811,20.948C194.538,223.73,193.307,224,192.003,224z M256.003,245.333
	c-10.875,0-20.706-4.215-28.25-10.939c17.031-11.512,28.25-31,28.25-53.061c0-7.375-1.507-14.35-3.811-20.948
	c1.275-0.116,2.507-0.385,3.811-0.385c23.521,0,42.667,19.135,42.667,42.667S279.523,245.333,256.003,245.333z"/>
<linearGradient id="SVGID_1_" gradientUnits="userSpaceOnUse" x1="-36.703" y1="632.4844" x2="-32.703" y2="628.4844" gradientTransform="matrix(21.3333 0 0 -21.3333 996.3334 13791.667)">
	<stop  offset="0" style="stop-color:#000000;stop-opacity:0.1"/>
	<stop  offset="1" style="stop-color:#000000;stop-opacity:0"/>
</linearGradient>
<polygon style="fill:url(#SVGID_1_);" points="192.003,320 277.336,405.333 277.336,320 "/>
<linearGradient id="SVGID_2_" gradientUnits="userSpaceOnUse" x1="-48.409" y1="639.436" x2="-26.5023" y2="629.2236" gradientTransform="matrix(21.3333 0 0 -21.3333 996.3334 13791.667)">
	<stop  offset="0" style="stop-color:#FFFFFF;stop-opacity:0.2"/>
	<stop  offset="1" style="stop-color:#FFFFFF;stop-opacity:0"/>
</linearGradient>
<path style="fill:url(#SVGID_2_);" d="M509.232,184.823L402.565,67.49c-2.021-2.219-4.896-3.49-7.896-3.49h-96V42.667
	C298.669,19.135,279.523,0,256.003,0h-42.667c-23.521,0-42.667,19.135-42.667,42.667V64h-160C4.773,64,0.003,68.771,0.003,74.667
	v234.667c0,5.896,4.771,10.667,10.667,10.667h160v106.667h-21.333c-23.521,0-42.667,19.135-42.667,42.667v32
	c0,5.896,4.771,10.667,10.667,10.667h234.667c5.896,0,10.667-4.771,10.667-10.667v-32c0-23.531-19.146-42.667-42.667-42.667h-21.333
	V320h96c3,0,5.875-1.271,7.896-3.49l106.667-117.333C512.919,195.104,512.919,188.896,509.232,184.823z"/>
<g>
</g>
<g>
</g>
<g>
</g>
<g>
</g>
<g>
</g>
<g>
</g>
<g>
</g>
<g>
</g>
<g>
</g>
<g>
</g>
<g>
</g>
<g>
</g>
<g>
</g>
<g>
</g>
<g>
</g>
</svg>
